<svg viewBox="0 0 5334 2296" xmlns="http://www.w3.org/2000/svg" xml:space="preserve" style="fill-rule:evenodd;clip-rule:evenodd;stroke-linecap:round;stroke-miterlimit:1.5"><path id="Artboard1" style="fill:none" d="M0 0h5333.33v2295.83H0z"/><path d="m226.845 1091.57 1536.46 666.667-361.458 250-605.895 28.72-369.105-87.857-200-857.53Z" style="fill:#fff"/><path d="M231.821 1080.1a12.502 12.502 0 0 0-17.149 14.306l200 857.53a12.498 12.498 0 0 0 9.279 9.321l369.105 87.857c1.141.272 2.314.382 3.486.326l605.895-28.72a12.502 12.502 0 0 0 6.519-2.206l361.458-250a12.5 12.5 0 0 0-2.135-21.747L231.819 1080.1Zm-4.976 11.467 1536.46 666.667-361.458 250-605.895 28.72-369.105-87.857-200-857.53Z"/><path d="m226.845 1091.57 200 857.53 375 89.26 600-30.123 361.458-250" style="fill:none"/><circle cx="226.845" cy="1091.57" r="18.512"/><circle cx="424.003" cy="1946.54" r="18.512"/><circle cx="799.003" cy="2038.36" r="18.512"/><circle cx="1407.34" cy="2001.34" r="18.512"/><circle cx="1763.3" cy="1763.21" r="18.512"/><circle cx="1261.5" cy="1763.21" r="18.512"/><circle cx="710.178" cy="1853.98" r="18.512"/><circle cx="1176.85" cy="1656.01" r="18.512"/><circle cx="578.169" cy="1564.97" r="18.512"/><circle cx="578.169" cy="1909.52" r="18.512"/><circle cx="836.026" cy="1726.18" r="18.512"/><circle cx="1370.31" cy="1872.49" r="18.512"/><circle cx="1069.84" cy="1527.94" r="18.512"/><path d="m208.333 1371.85 27.257-6.322 106.269 458.185 25.31-5.87-29.908 47.969-47.969-29.907 25.31-5.87-106.269-458.185Z" style="fill:#fff"/><path d="M205.509 1359.67c-6.725 1.56-10.912 8.276-9.352 15.001l103.444 446.008-13.133 3.046a12.5 12.5 0 0 0-3.789 22.785l47.969 29.907c5.858 3.652 13.568 1.864 17.221-3.994l29.907-47.97a12.5 12.5 0 0 0-13.432-18.79l-13.133 3.046-103.444-446.008c-1.56-6.725-8.276-10.912-15.001-9.353l-27.257 6.322Zm2.824 12.177 27.257-6.322 106.269 458.185 25.31-5.87-29.908 47.969-47.969-29.907 25.31-5.87-106.269-458.185Z"/><path d="m463.824 2031.81 5.126-21.4 215.641 51.647 4.76-19.871 23.249 37.893-37.893 23.249 4.759-19.871-215.642-51.647Z" style="fill:#fff"/><path d="M451.668 2028.9c-1.608 6.714 2.531 13.46 9.245 15.068l203.485 48.736-1.847 7.715a12.5 12.5 0 0 0 18.693 13.565l37.893-23.249c5.884-3.61 7.727-11.307 4.117-17.191l-23.249-37.893a12.501 12.501 0 0 0-22.811 3.626l-1.847 7.715-203.486-48.736c-6.714-1.608-13.46 2.531-15.068 9.245l-5.125 21.399Zm12.156 2.912 5.126-21.4 215.641 51.647 4.76-19.871 23.249 37.893-37.893 23.249 4.759-19.871-215.642-51.647Z"/><path style="fill:#fff" d="M1645.83 1099.38h1062.5v957.53h-1062.5z"/><path d="M2725 2073.58v-990.863H1629.17v990.863H2725Zm-16.667-974.197h-1062.5v957.531h1062.5v-957.531Z"/><path style="fill:#fff" d="M1645.83 1099.38h780.873v741.822H1645.83z"/><path d="M2443.37 1857.87v-775.155h-814.206v775.155h814.206Zm-16.666-758.489H1645.83v741.822h780.874v-741.822Z"/><path style="fill:#fff" d="M1645.83 1099.38h390.437v441.667H1645.83z"/><path d="M2052.94 1557.71v-475h-423.77v475h423.77Zm-16.667-458.334h-390.437v441.667h390.437v-441.667Z"/><path style="fill:#fff" d="M2036.27 1099.38h390.437v542.765H2036.27z"/><path d="M2443.37 1658.81v-576.098H2019.6v576.098h423.77Zm-16.666-559.432h-390.437v542.765h390.437v-542.765Z"/><path style="fill:#fff" d="M2036.27 1652.39h390.437v188.81H2036.27z"/><path d="M2443.37 1857.87v-222.143H2019.6v222.143h423.77Zm-16.666-205.476h-390.437v188.809h390.437v-188.809Z"/><path style="fill:#fff" d="M2036.27 1652.39h101.23v180.321h-101.23z"/><path d="M2154.17 1849.38v-213.654h-134.564v213.654h134.564Zm-16.667-196.987h-101.23v180.321h101.23v-180.321Z"/><path style="fill:#fff" d="M2154.17 1652.39h272.54v180.321h-272.54z"/><path d="M2443.37 1849.38v-213.654h-305.873v213.654h305.873Zm-16.666-196.987h-272.54v180.321h272.54v-180.321Z"/><path style="fill:#fff" d="M2154.17 1728.55h272.54v104.167h-272.54z"/><path d="M2443.37 1849.38v-137.5h-305.873v137.5h305.873Zm-16.666-120.833h-272.54v104.167h272.54v-104.167Z"/><path style="fill:#fff" d="M2036.27 1099.38h142.897v533.333H2036.27z"/><path d="M2195.83 1649.38v-566.666H2019.6v566.666h176.23Zm-16.666-550h-142.897v533.334h142.897V1099.38Z"/><path style="fill:#fff" d="M1645.83 1851.45h780.873v205.461H1645.83z"/><path d="M2443.37 2073.58v-238.794h-814.206v238.794h814.206Zm-16.666-222.127H1645.83v205.461h780.874v-205.461Z"/><path style="fill:#fff" d="M2766.67 420.214h979.167v1016.67H2766.67z"/><clipPath id="_clip1"><path d="M2766.67 420.214h979.167v1016.67H2766.67z"/></clipPath><g clip-path="url('#_clip1')"><path d="M2766.67 420.214v1016.67M3582.64 420.214v1016.67M3419.44 420.214v1016.67M3256.25 420.214v1016.67M3093.06 420.214v1016.67M2929.86 420.214v1016.67M3745.83 420.214v1016.67M2766.67 928.547h979.166M2766.67 1267.44h979.166M2766.67 1097.99h979.166M2766.67 420.214h979.166M2766.67 759.103h979.166M2766.67 589.658h979.166M2766.67 1436.88h979.166" style="fill:none;stroke:#000;stroke-width:16.67px"/></g><path d="M3762.5 1453.55v-1050H2750v1050h1012.5Zm-16.667-1033.33h-979.166v1016.67h979.166V420.22Z"/><text x="347.378" y="1776.63" style="fill:#fff;stroke:#000;stroke-width:25px;stroke-linecap:butt;stroke-linejoin:round;stroke-miterlimit:2;font-family:Montserrat-BlackItalic,Montserrat;font-size:1649.29px;font-style:italic;font-weight:900">TPC<tspan x="3862.01" y="1776.63">S</tspan></text><path d="M4069.16 617.791c22.513-57.144 87.184-85.26 144.328-62.748 57.144 22.513 85.26 87.184 62.747 144.328-22.512 57.144-87.184 85.26-144.328 62.747-57.144-22.512-85.26-87.183-62.747-144.327Z" style="fill:#fff"/><path d="M4053.65 611.682c-25.884 65.702 6.443 140.059 72.145 165.943 65.703 25.885 140.059-6.443 165.944-72.145 25.884-65.702-6.443-140.059-72.145-165.943-65.703-25.885-140.059 6.442-165.944 72.145Zm15.507 6.109c22.513-57.144 87.184-85.26 144.328-62.748 57.144 22.513 85.26 87.184 62.747 144.328-22.512 57.144-87.184 85.26-144.328 62.747-57.144-22.512-85.26-87.183-62.747-144.327Z"/><path d="M4560.4 314.407c19.191-48.714 74.322-72.682 123.035-53.49 48.714 19.191 72.682 74.321 53.491 123.035-19.192 48.714-74.322 72.682-123.036 53.491-48.714-19.192-72.682-74.322-53.49-123.036Z" style="fill:#fff"/><path d="M4544.89 308.298c-22.563 57.272 5.616 122.088 62.888 144.651 57.272 22.564 122.088-5.616 144.652-62.888 22.563-57.272-5.617-122.088-62.889-144.651-57.272-22.563-122.088 5.616-144.651 62.888Zm15.507 6.109c19.191-48.714 74.322-72.682 123.035-53.49 48.714 19.191 72.682 74.321 53.491 123.035-19.192 48.714-74.322 72.682-123.036 53.491-48.714-19.192-72.682-74.322-53.49-123.036Z"/><path d="M4556.38 896.116c26.191-66.481 101.43-99.191 167.911-73 66.481 26.191 99.191 101.429 73 167.91-26.191 66.481-101.429 99.192-167.911 73.001-66.481-26.192-99.191-101.43-73-167.911Z" style="fill:#fff"/><path d="M4540.88 890.007c-29.563 75.04 7.358 159.963 82.397 189.526 75.04 29.563 159.964-7.358 189.527-82.398 29.562-75.039-7.359-159.963-82.398-189.526-75.04-29.563-159.964 7.359-189.526 82.398Zm15.506 6.109c26.191-66.481 101.43-99.191 167.911-73 66.481 26.191 99.191 101.429 73 167.91-26.191 66.481-101.429 99.192-167.911 73.001-66.481-26.192-99.191-101.43-73-167.911Z"/><path d="m4342.52 570.216 10.761 15.743-40.776-7.665 7.665-40.776 10.761 15.743L4518.572 425l11.589 16.954-187.641 128.262Z" style="fill:#fff"/><path d="m4365.68 574.57 173.881-118.856c7.599-5.195 9.549-15.566 4.354-23.165l-11.589-16.954c-5.194-7.599-15.565-9.549-23.164-4.354L4335.28 530.097l-1.356-1.984a16.665 16.665 0 0 0-30.139 6.326l-7.665 40.776c-1.7 9.047 4.255 17.759 13.301 19.459l40.777 7.665a16.667 16.667 0 0 0 16.838-25.785l-1.356-1.984Zm-23.165-4.354 10.761 15.743-40.776-7.665 7.665-40.776 10.761 15.743L4518.567 425l11.589 16.954-187.641 128.262Z"/><path d="m4641.46 526.57-18.969 1.957 26.173-32.194 32.194 26.173-18.97 1.956 23.871 231.408-20.428 2.108-23.871-231.408Z" style="fill:#fff"/><path d="m4626.59 544.859 22.161 214.829c.945 9.156 9.133 15.813 18.289 14.868l20.429-2.107c9.156-.944 15.813-9.133 14.868-18.289l-22.161-214.829 2.391-.247a16.665 16.665 0 0 0 8.803-29.511l-32.194-26.172c-7.142-5.807-17.639-4.724-23.445 2.418l-26.173 32.194a16.666 16.666 0 0 0 14.642 27.092l2.39-.246Zm14.869-18.289-18.969 1.957 26.173-32.194 32.194 26.173-18.97 1.956 23.871 231.408-20.428 2.108-23.871-231.408Z"/><path d="m2074.21 353.255 171.353 223.975M2074.21 353.255 1902.858 577.23M1902.86 577.23l171.352 223.974M1902.86 577.23l-171.352 223.974M2245.57 560.703l171.352 223.974" style="fill:none;stroke:#000;stroke-width:16.67px"/><circle cx="2074.21" cy="353.255" r="85.676" style="fill:#fff"/><path d="M2074.21 250.912c-56.484 0-102.342 45.858-102.342 102.343 0 56.484 45.858 102.343 102.342 102.343 56.485 0 102.343-45.859 102.343-102.343 0-56.485-45.858-102.343-102.343-102.343Zm0 16.667c-47.286 0-85.676 38.39-85.676 85.676s38.39 85.676 85.676 85.676 85.677-38.39 85.677-85.676-38.391-85.676-85.677-85.676Z"/><circle cx="2245.57" cy="577.23" r="85.676" style="fill:#fff"/><path d="M2245.57 474.887c-56.485 0-102.343 45.858-102.343 102.343 0 56.484 45.858 102.342 102.343 102.342 56.484 0 102.343-45.858 102.343-102.342 0-56.485-45.859-102.343-102.343-102.343Zm0 16.666c-47.286 0-85.676 38.391-85.676 85.677 0 47.286 38.39 85.676 85.676 85.676s85.676-38.39 85.676-85.676-38.39-85.677-85.676-85.677Z"/><circle cx="1902.86" cy="577.23" r="85.676" style="fill:#fff"/><path d="M1902.86 474.887c-56.485 0-102.343 45.858-102.343 102.343 0 56.484 45.858 102.342 102.343 102.342 56.485 0 102.343-45.858 102.343-102.342 0-56.485-45.858-102.343-102.343-102.343Zm0 16.666c-47.286 0-85.676 38.391-85.676 85.677 0 47.286 38.39 85.676 85.676 85.676s85.676-38.39 85.676-85.676-38.39-85.677-85.676-85.677Z"/><circle cx="2074.21" cy="801.204" r="85.676" style="fill:#fff"/><path d="M2074.21 698.861c-56.484 0-102.342 45.859-102.342 102.343 0 56.485 45.858 102.343 102.342 102.343 56.485 0 102.343-45.858 102.343-102.343 0-56.484-45.858-102.343-102.343-102.343Zm0 16.667c-47.286 0-85.676 38.39-85.676 85.676s38.39 85.676 85.676 85.676 85.677-38.39 85.677-85.676-38.391-85.676-85.677-85.676Z"/><circle cx="1731.51" cy="801.204" r="85.676" style="fill:#fff"/><path d="M1731.51 698.861c-56.485 0-102.343 45.859-102.343 102.343 0 56.485 45.858 102.343 102.343 102.343 56.484 0 102.342-45.858 102.342-102.343 0-56.484-45.858-102.343-102.342-102.343Zm0 16.667c-47.286 0-85.677 38.39-85.677 85.676s38.391 85.676 85.677 85.676c47.286 0 85.676-38.39 85.676-85.676s-38.39-85.676-85.676-85.676Z"/><circle cx="2416.92" cy="784.677" r="85.676" style="fill:#fff"/><path d="M2416.92 682.334c-56.484 0-102.343 45.859-102.343 102.343 0 56.485 45.859 102.343 102.343 102.343 56.485 0 102.343-45.858 102.343-102.343 0-56.484-45.858-102.343-102.343-102.343Zm0 16.667c-47.286 0-85.676 38.39-85.676 85.676s38.39 85.677 85.676 85.677 85.677-38.391 85.677-85.677c0-47.286-38.391-85.676-85.677-85.676Z"/><path d="M818.623 397.151 647.271 621.126M647.271 621.126 818.623 845.1M989.976 173.176l171.352 223.975M647.271 621.126 475.918 845.1M989.976 173.176 818.623 397.151" style="fill:none;stroke:#000;stroke-width:16.67px"/><circle cx="818.623" cy="397.151" r="85.676" style="fill:#fff"/><path d="M818.623 294.808c-56.484 0-102.343 45.858-102.343 102.343 0 56.485 45.859 102.343 102.343 102.343 56.485 0 102.343-45.858 102.343-102.343 0-56.485-45.858-102.343-102.343-102.343Zm0 16.667c-47.286 0-85.676 38.39-85.676 85.676s38.39 85.676 85.676 85.676 85.676-38.39 85.676-85.676-38.39-85.676-85.676-85.676Z"/><circle cx="989.976" cy="173.176" r="85.676" style="fill:#fff"/><path d="M989.976 70.833c-56.485 0-102.343 45.859-102.343 102.343 0 56.485 45.858 102.343 102.343 102.343 56.484 0 102.343-45.858 102.343-102.343 0-56.484-45.859-102.343-102.343-102.343Zm0 16.667c-47.286 0-85.677 38.39-85.677 85.676s38.391 85.676 85.677 85.676c47.286 0 85.676-38.39 85.676-85.676S1037.262 87.5 989.976 87.5Z"/><circle cx="647.271" cy="621.126" r="85.676" style="fill:#fff"/><path d="M647.271 518.783c-56.485 0-102.343 45.858-102.343 102.343 0 56.484 45.858 102.343 102.343 102.343 56.484 0 102.343-45.859 102.343-102.343 0-56.485-45.859-102.343-102.343-102.343Zm0 16.666c-47.286 0-85.676 38.391-85.676 85.677 0 47.286 38.39 85.676 85.676 85.676s85.676-38.39 85.676-85.676-38.39-85.677-85.676-85.677Z"/><circle cx="818.623" cy="845.1" r="85.676" style="fill:#fff"/><path d="M818.623 742.758c-56.484 0-102.343 45.858-102.343 102.342 0 56.485 45.859 102.343 102.343 102.343 56.485 0 102.343-45.858 102.343-102.343 0-56.484-45.858-102.342-102.343-102.342Zm0 16.666c-47.286 0-85.676 38.39-85.676 85.676s38.39 85.677 85.676 85.677 85.676-38.391 85.676-85.677c0-47.286-38.39-85.676-85.676-85.676Z"/><circle cx="475.918" cy="845.1" r="85.676" style="fill:#fff"/><path d="M475.918 742.758c-56.484 0-102.343 45.858-102.343 102.342 0 56.485 45.859 102.343 102.343 102.343 56.485 0 102.343-45.858 102.343-102.343 0-56.484-45.858-102.342-102.343-102.342Zm0 16.666c-47.286 0-85.676 38.39-85.676 85.676s38.39 85.677 85.676 85.677 85.677-38.391 85.677-85.677c0-47.286-38.391-85.676-85.677-85.676Z"/><circle cx="1161.33" cy="397.151" r="85.676" style="fill:#fff"/><path d="M1161.33 294.808c-56.484 0-102.343 45.858-102.343 102.343 0 56.485 45.859 102.343 102.343 102.343 56.485 0 102.343-45.858 102.343-102.343 0-56.485-45.858-102.343-102.343-102.343Zm0 16.667c-47.286 0-85.676 38.39-85.676 85.676s38.39 85.676 85.676 85.676 85.676-38.39 85.676-85.676-38.39-85.676-85.676-85.676ZM2825 524.901v-21.875h168.75v-20.312l31.25 31.25-31.25 31.25v-20.313H2825ZM3052.61 524.901v-21.875h149.472v-20.312l31.25 31.25-31.25 31.25v-20.313H3052.61ZM2825 695.735V673.86h168.75v-20.313l31.25 31.25-31.25 31.25v-20.312H2825ZM2828.65 553.547h21.875v60.417h20.312l-31.25 31.25-31.25-31.25h20.313v-60.417Z"/><path d="M2828.65 553.547h21.875v60.417h20.312l-31.25 31.25-31.25-31.25h20.313v-60.417ZM3010.42 549.908h21.875v60.417h20.313l-31.25 31.25-31.25-31.25h20.312v-60.417ZM2825 695.735V673.86h168.75v-20.313l31.25 31.25-31.25 31.25v-20.312H2825Z"/><path d="M2828.65 553.547h21.875v60.417h20.312l-31.25 31.25-31.25-31.25h20.313v-60.417ZM2828.65 724.38h21.875v60.417h20.312l-31.25 31.25-31.25-31.25h20.313V724.38ZM3010.42 549.908h21.875v60.417h20.313l-31.25 31.25-31.25-31.25h20.312v-60.417Z"/><path style="fill:#fff" d="M3233.33 1965.83H5150v137.5H3233.33z"/><path d="M3216.67 1949.16v170.834h1950V1949.16h-1950Zm16.666 154.167h1916.67v-137.5h-1916.67v137.5Z"/><path d="M5150 2103.33v-137.5M3233.33 2103.33v-137.5M4876.19 2103.33v-137.5M3780.95 2103.33v-137.5M4328.57 2103.33v-137.5M4054.76 2103.33v-137.5M4602.38 2103.33v-137.5M3507.14 2103.33v-137.5" style="fill:none;stroke:#000;stroke-width:16.67px"/><path d="M4191.58 2012.7c0 .601-.132 16.248-.132 16.248h21.675l-33.346 33.346-33.346-33.346h21.674s-.132-15.647-.132-16.248c0-157.764 127.893-285.657 285.658-285.657 157.764 0 285.657 127.893 285.657 285.657 0 6.514-5.289 11.803-11.803 11.803-6.515 0-11.804-5.289-11.804-11.803 0-144.727-117.324-262.051-262.05-262.051-144.727 0-262.051 117.324-262.051 262.051Z" style="fill:#fff"/><path d="M4204.08 2012.7c0-137.823 111.727-249.551 249.551-249.551 137.823 0 249.55 111.728 249.55 249.551 0 13.413 10.89 24.303 24.304 24.303 13.413 0 24.303-10.89 24.303-24.303 0-164.668-133.49-298.157-298.157-298.157-164.668 0-298.158 133.489-298.158 298.157 0 .18.012 1.701.029 3.748h-9.071a12.501 12.501 0 0 0-8.839 21.339l33.346 33.346c4.881 4.882 12.796 4.882 17.677 0l33.346-33.346a12.499 12.499 0 0 0-8.838-21.339h-9.072c.017-2.047.029-3.568.029-3.748Zm-12.5 0c0 .601-.132 16.248-.132 16.248h21.675l-33.346 33.346-33.346-33.346h21.674s-.132-15.647-.132-16.248c0-157.764 127.893-285.657 285.658-285.657 157.764 0 285.657 127.893 285.657 285.657 0 6.514-5.289 11.803-11.803 11.803-6.515 0-11.804-5.289-11.804-11.803 0-144.727-117.324-262.051-262.05-262.051-144.727 0-262.051 117.324-262.051 262.051Z"/><path d="M3948.52 1990.69c0 .868-.191 23.459-.191 23.459h31.294l-48.145 48.144-48.144-48.144h31.294s-.191-22.591-.191-23.459c0-227.776 184.649-412.425 412.425-412.425s412.425 184.649 412.425 412.425c0 9.405-7.636 17.041-17.041 17.041-9.406 0-17.041-7.636-17.041-17.041 0-208.953-169.39-378.343-378.343-378.343-208.953 0-378.342 169.39-378.342 378.343Z" style="fill:#fff"/><path d="M3961.02 1990.69c0-202.049 163.793-365.843 365.842-365.843 202.049 0 365.843 163.794 365.843 365.843 0 16.304 13.236 29.541 29.541 29.541 16.304 0 29.541-13.237 29.541-29.541 0-234.679-190.246-424.925-424.925-424.925s-424.925 190.246-424.925 424.925c0 .407.042 5.57.086 10.959h-18.689a12.5 12.5 0 0 0-8.839 21.339l48.145 48.144c4.881 4.882 12.796 4.882 17.677 0l48.144-48.144a12.499 12.499 0 0 0-8.838-21.339h-18.69c.045-5.389.087-10.552.087-10.959Zm-12.5 0c0 .868-.191 23.459-.191 23.459h31.294l-48.145 48.144-48.144-48.144h31.294s-.191-22.591-.191-23.459c0-227.776 184.649-412.425 412.425-412.425s412.425 184.649 412.425 412.425c0 9.405-7.636 17.041-17.041 17.041-9.406 0-17.041-7.636-17.041-17.041 0-208.953-169.39-378.343-378.343-378.343-208.953 0-378.342 169.39-378.342 378.343Z"/><path d="M3688.4 1990.69c0 .868-.19 23.459-.19 23.459h31.294l-48.145 48.144-48.144-48.144h31.294s-.191-22.591-.191-23.459c0-227.776 184.649-412.425 412.425-412.425s412.425 184.649 412.425 412.425c0 9.405-7.636 17.041-17.041 17.041-9.406 0-17.041-7.636-17.041-17.041-.001-208.953-169.39-378.343-378.343-378.343-208.953 0-378.343 169.39-378.343 378.343Z" style="fill:#fff"/><path d="M3700.9 1990.69c0-202.049 163.794-365.843 365.843-365.843s365.842 163.794 365.843 365.843c0 16.304 13.236 29.541 29.541 29.541 16.304 0 29.541-13.237 29.541-29.541 0-234.679-190.246-424.925-424.925-424.925s-424.925 190.246-424.925 424.925c0 .407.042 5.57.086 10.959h-18.689a12.5 12.5 0 0 0-8.839 21.339l48.145 48.144c4.881 4.882 12.796 4.882 17.677 0l48.144-48.144a12.499 12.499 0 0 0-8.838-21.339h-18.69c.045-5.389.086-10.552.086-10.959Zm-12.5 0c0 .868-.19 23.459-.19 23.459h31.294l-48.145 48.144-48.144-48.144h31.294s-.191-22.591-.191-23.459c0-227.776 184.649-412.425 412.425-412.425s412.425 184.649 412.425 412.425c0 9.405-7.636 17.041-17.041 17.041-9.406 0-17.041-7.636-17.041-17.041-.001-208.953-169.39-378.343-378.343-378.343-208.953 0-378.343 169.39-378.343 378.343Z"/><path d="M3398.45 1963.3c0 1.201-.263 32.432-.263 32.432h43.262l-66.558 66.558-66.558-66.558h43.263s-.263-31.231-.263-32.432c0-314.894 255.272-570.167 570.167-570.167 314.894 0 570.167 255.273 570.167 570.167 0 13.003-10.557 23.559-23.559 23.559-13.003 0-23.559-10.556-23.559-23.559 0-288.872-234.177-523.049-523.049-523.049-288.873 0-523.05 234.177-523.05 523.049Z" style="fill:#fff"/><path d="M3410.95 1963.3c0-281.968 228.581-510.549 510.55-510.549 281.968 0 510.549 228.581 510.549 510.549 0 19.902 16.157 36.059 36.059 36.059 19.901 0 36.059-16.157 36.059-36.059 0-321.798-260.869-582.667-582.667-582.667-321.799 0-582.667 260.869-582.667 582.667 0 .684.085 11.074.158 19.932h-30.658a12.5 12.5 0 0 0-8.839 21.339l66.559 66.558c4.881 4.882 12.796 4.882 17.677 0l66.558-66.558a12.499 12.499 0 0 0-8.839-21.339h-30.657c.073-8.858.158-19.248.158-19.932Zm-12.5 0c0 1.201-.263 32.432-.263 32.432h43.262l-66.558 66.558-66.558-66.558h43.263s-.263-31.231-.263-32.432c0-314.894 255.272-570.167 570.167-570.167 314.894 0 570.167 255.273 570.167 570.167 0 13.003-10.557 23.559-23.559 23.559-13.003 0-23.559-10.556-23.559-23.559 0-288.872-234.177-523.049-523.049-523.049-288.873 0-523.05 234.177-523.05 523.049Z"/><path d="M4740.96 2027.27c0 .323-.071 8.744-.071 8.744h11.664l-17.945 17.945-17.945-17.945h11.664s-.071-8.421-.071-8.744c0-84.902 68.826-153.728 153.727-153.728 84.901 0 153.727 68.826 153.727 153.728a6.354 6.354 0 0 1-6.352 6.351 6.354 6.354 0 0 1-6.351-6.351c0-77.886-63.139-141.024-141.024-141.024-77.885 0-141.023 63.138-141.023 141.024Z" style="fill:#fff"/><path d="M4715.8 2023.54a12.494 12.494 0 0 0-10.686 7.684 12.5 12.5 0 0 0 2.71 13.623l17.945 17.945c4.882 4.881 12.796 4.881 17.678 0l17.945-17.945a12.5 12.5 0 0 0-7.878-21.302c1.964-69.259 58.73-124.805 128.469-124.805 70.982 0 128.524 57.542 128.524 128.524 0 10.404 8.447 18.851 18.851 18.851 10.405 0 18.852-8.447 18.852-18.851 0-91.805-74.422-166.228-166.227-166.228-90.556 0-164.199 72.412-166.183 162.504Zm25.16 3.724c0 .323-.071 8.744-.071 8.744h11.664l-17.945 17.945-17.945-17.945h11.664s-.071-8.421-.071-8.744c0-84.902 68.826-153.728 153.727-153.728 84.901 0 153.727 68.826 153.727 153.728a6.354 6.354 0 0 1-6.352 6.351 6.354 6.354 0 0 1-6.351-6.351c0-77.886-63.139-141.024-141.024-141.024-77.885 0-141.023 63.138-141.023 141.024Z"/><path d="M4483.84 2013.37c0 .601-.132 16.248-.132 16.248h21.674l-33.346 33.346-33.346-33.346h21.675s-.132-15.647-.132-16.248c0-157.764 127.893-285.657 285.657-285.657 157.765 0 285.658 127.893 285.658 285.657 0 6.514-5.289 11.803-11.804 11.803-6.514 0-11.803-5.289-11.803-11.803 0-144.727-117.324-262.051-262.051-262.051-144.726 0-262.05 117.324-262.05 262.051Z" style="fill:#fff"/><path d="M4496.34 2013.37c0-137.823 111.727-249.551 249.55-249.551 137.824 0 249.551 111.728 249.551 249.551 0 13.413 10.89 24.303 24.303 24.303 13.414 0 24.304-10.89 24.304-24.303 0-164.668-133.49-298.157-298.158-298.157-164.667 0-298.157 133.489-298.157 298.157 0 .18.012 1.701.029 3.748h-9.072a12.5 12.5 0 0 0-8.838 21.339l33.346 33.346c4.881 4.882 12.796 4.882 17.677 0l33.346-33.346a12.499 12.499 0 0 0-8.839-21.339h-9.071c.017-2.047.029-3.568.029-3.748Zm-12.5 0c0 .601-.132 16.248-.132 16.248h21.674l-33.346 33.346-33.346-33.346h21.675s-.132-15.647-.132-16.248c0-157.764 127.893-285.657 285.657-285.657 157.765 0 285.658 127.893 285.658 285.657 0 6.514-5.289 11.803-11.804 11.803-6.514 0-11.803-5.289-11.803-11.803 0-144.727-117.324-262.051-262.051-262.051-144.726 0-262.05 117.324-262.05 262.051Z"/><path d="M1415.38 532.97v44.26l-68.091-68.092 68.091-68.091v44.259h173.722v-44.259l68.091 68.091-68.091 68.092v-44.26H1415.38Z" style="fill:#fff"/><path d="M1427.88 545.47h148.722v31.76a12.501 12.501 0 0 0 21.339 8.838l68.091-68.091c4.882-4.881 4.882-12.796 0-17.677l-68.091-68.092a12.5 12.5 0 0 0-21.339 8.839v31.759H1427.88v-31.759a12.499 12.499 0 0 0-21.339-8.839L1338.45 500.3c-4.882 4.881-4.882 12.796 0 17.677l68.091 68.091a12.5 12.5 0 0 0 21.339-8.838v-31.76Zm-12.5-12.5v44.26l-68.091-68.092 68.091-68.091v44.259h173.722v-44.259l68.091 68.091-68.091 68.092v-44.26H1415.38Z"/><text x="603.059" y="2001.79" style="fill:#fff;stroke:#000;stroke-width:16.67px;stroke-linecap:butt;stroke-linejoin:round;stroke-miterlimit:2;font-family:Montserrat-Black,Montserrat;font-size:198.761px;font-weight:900">c<tspan x="724.303" y="2001.79">o</tspan>mput<tspan x="1432.09" y="2001.79">e</tspan>r scien<tspan x="2282.78px 2404.03px" y="2001.79px 2001.79px">ce</tspan> @ TP</text></svg>