<?xml version="1.0" encoding="UTF-8" standalone="no"?><!DOCTYPE svg PUBLIC "-//W3C//DTD SVG 1.1//EN" "http://www.w3.org/Graphics/SVG/1.1/DTD/svg11.dtd"><svg width="100%" height="100%" viewBox="0 0 5334 2296" version="1.1" xmlns="http://www.w3.org/2000/svg" xmlns:xlink="http://www.w3.org/1999/xlink" xml:space="preserve" xmlns:serif="http://www.serif.com/" style="fill-rule:evenodd;clip-rule:evenodd;stroke-linecap:round;stroke-miterlimit:1.5;"><rect id="Artboard1" x="0" y="0" width="5333.33" height="2295.83" style="fill:none;"/><g><path d="M226.845,1091.57l1536.46,666.667l-361.458,250l-605.895,28.72l-369.105,-87.857l-200,-857.53Z" style="fill:#fff;"/><path d="M231.821,1080.1c-4.333,-1.88 -9.356,-1.157 -12.983,1.868c-3.627,3.026 -5.239,7.838 -4.166,12.438l200,857.53c1.076,4.615 4.669,8.224 9.279,9.321l369.105,87.857c1.141,0.272 2.314,0.382 3.486,0.326l605.895,-28.72c2.336,-0.111 4.595,-0.875 6.519,-2.206l361.458,-250c3.733,-2.582 5.773,-6.984 5.33,-11.502c-0.444,-4.517 -3.301,-8.439 -7.465,-10.245l-1536.46,-666.667Zm-4.976,11.467l1536.46,666.667l-361.458,250l-605.895,28.72l-369.105,-87.857l-200,-857.53Z"/><path d="M226.845,1091.57l200,857.53l375,89.26l600,-30.123l361.458,-250" style="fill:none;"/><g><g><circle cx="226.845" cy="1091.57" r="18.512"/><circle cx="424.003" cy="1946.54" r="18.512"/><circle cx="799.003" cy="2038.36" r="18.512"/><circle cx="1407.34" cy="2001.34" r="18.512"/><circle cx="1763.3" cy="1763.21" r="18.512"/><circle cx="1261.5" cy="1763.21" r="18.512"/><circle cx="710.178" cy="1853.98" r="18.512"/><circle cx="1176.85" cy="1656.01" r="18.512"/><circle cx="578.169" cy="1564.97" r="18.512"/><circle cx="578.169" cy="1909.52" r="18.512"/><circle cx="836.026" cy="1726.18" r="18.512"/><circle cx="1370.31" cy="1872.49" r="18.512"/><circle cx="1069.84" cy="1527.94" r="18.512"/></g><path d="M208.333,1371.85l27.257,-6.322l106.269,458.185l25.31,-5.87l-29.908,47.969l-47.969,-29.907l25.31,-5.87l-106.269,-458.185Z" style="fill:#fff;"/><path d="M205.509,1359.67c-6.725,1.56 -10.912,8.276 -9.352,15.001l103.444,446.008c-0,0 -13.133,3.046 -13.133,3.046c-4.925,1.143 -8.677,5.139 -9.507,10.127c-0.829,4.987 1.427,9.983 5.718,12.658l47.969,29.907c5.858,3.652 13.568,1.864 17.221,-3.994l29.907,-47.97c2.675,-4.29 2.502,-9.769 -0.438,-13.882c-2.94,-4.113 -8.069,-6.05 -12.994,-4.908l-13.133,3.046c0,0 -103.444,-446.008 -103.444,-446.008c-1.56,-6.725 -8.276,-10.912 -15.001,-9.353l-27.257,6.322Zm2.824,12.177l27.257,-6.322l106.269,458.185l25.31,-5.87l-29.908,47.969l-47.969,-29.907l25.31,-5.87l-106.269,-458.185Z"/><path d="M463.824,2031.81l5.126,-21.4l215.641,51.647l4.76,-19.871l23.249,37.893l-37.893,23.249l4.759,-19.871l-215.642,-51.647Z" style="fill:#fff;"/><path d="M451.668,2028.9c-1.608,6.714 2.531,13.46 9.245,15.068l203.485,48.736c0,-0 -1.847,7.715 -1.847,7.715c-1.178,4.916 0.722,10.058 4.814,13.028c4.092,2.969 9.569,3.181 13.879,0.537l37.893,-23.249c5.884,-3.61 7.727,-11.307 4.117,-17.191l-23.249,-37.893c-2.644,-4.309 -7.624,-6.601 -12.617,-5.808c-4.993,0.794 -9.016,4.517 -10.194,9.434l-1.847,7.715c-0,-0 -203.486,-48.736 -203.486,-48.736c-6.714,-1.608 -13.46,2.531 -15.068,9.245l-5.125,21.399Zm12.156,2.912l5.126,-21.4l215.641,51.647l4.76,-19.871l23.249,37.893l-37.893,23.249l4.759,-19.871l-215.642,-51.647Z"/></g></g><g><rect x="1645.83" y="1099.38" width="1062.5" height="957.53" style="fill:#fff;"/><path d="M2725,2073.58l0,-990.863l-1095.83,-0l-0,990.863l1095.83,0Zm-16.667,-974.197l-1062.5,0l0,957.531l1062.5,-0l0,-957.531Z"/><rect x="1645.83" y="1099.38" width="780.873" height="741.822" style="fill:#fff;"/><path d="M2443.37,1857.87l0,-775.155l-814.206,-0l-0,775.155l814.206,-0Zm-16.666,-758.489l-780.874,0l0,741.822l780.874,0l-0,-741.822Z"/><rect x="1645.83" y="1099.38" width="390.437" height="441.667" style="fill:#fff;"/><path d="M2052.94,1557.71l-0,-475l-423.77,-0l-0,475l423.77,-0Zm-16.667,-458.334l-390.437,0l0,441.667l390.437,0l0,-441.667Z"/><rect x="2036.27" y="1099.38" width="390.437" height="542.765" style="fill:#fff;"/><path d="M2443.37,1658.81l0,-576.098l-423.77,-0l0,576.098l423.77,-0Zm-16.666,-559.432l-390.437,0l0,542.765l390.437,-0l-0,-542.765Z"/><rect x="2036.27" y="1652.39" width="390.437" height="188.81" style="fill:#fff;"/><path d="M2443.37,1857.87l0,-222.143l-423.77,-0l0,222.143l423.77,-0Zm-16.666,-205.476l-390.437,-0l0,188.809l390.437,0l-0,-188.809Z"/><rect x="2036.27" y="1652.39" width="101.23" height="180.321" style="fill:#fff;"/><path d="M2154.17,1849.38l-0,-213.654l-134.564,-0l0,213.654l134.564,0Zm-16.667,-196.987l-101.23,-0l0,180.321l101.23,-0l0,-180.321Z"/><rect x="2154.17" y="1652.39" width="272.54" height="180.321" style="fill:#fff;"/><path d="M2443.37,1849.38l0,-213.654l-305.873,-0l0,213.654l305.873,0Zm-16.666,-196.987l-272.54,-0l-0,180.321l272.54,-0l-0,-180.321Z"/><rect x="2154.17" y="1728.55" width="272.54" height="104.167" style="fill:#fff;"/><path d="M2443.37,1849.38l0,-137.5l-305.873,0l0,137.5l305.873,0Zm-16.666,-120.833l-272.54,0l-0,104.167l272.54,-0l-0,-104.167Z"/><rect x="2036.27" y="1099.38" width="142.897" height="533.333" style="fill:#fff;"/><path d="M2195.83,1649.38l0,-566.666l-176.23,-0l0,566.666l176.23,0Zm-16.666,-550l-142.897,0l0,533.334l142.897,-0l-0,-533.334Z"/><rect x="1645.83" y="1851.45" width="780.873" height="205.461" style="fill:#fff;"/><path d="M2443.37,2073.58l0,-238.794l-814.206,0l-0,238.794l814.206,0Zm-16.666,-222.127l-780.874,-0l0,205.461l780.874,-0l-0,-205.461Z"/></g><rect x="2766.67" y="420.214" width="979.167" height="1016.67" style="fill:#fff;"/><clipPath id="_clip1"><rect x="2766.67" y="420.214" width="979.167" height="1016.67"/></clipPath><g clip-path="url(#_clip1)"><path d="M2766.67,420.214l-0,1016.67" style="fill:none;stroke:#000;stroke-width:16.67px;"/><path d="M3582.64,420.214l-0,1016.67" style="fill:none;stroke:#000;stroke-width:16.67px;"/><path d="M3419.44,420.214l0,1016.67" style="fill:none;stroke:#000;stroke-width:16.67px;"/><path d="M3256.25,420.214l0,1016.67" style="fill:none;stroke:#000;stroke-width:16.67px;"/><path d="M3093.06,420.214l-0,1016.67" style="fill:none;stroke:#000;stroke-width:16.67px;"/><path d="M2929.86,420.214l0,1016.67" style="fill:none;stroke:#000;stroke-width:16.67px;"/><path d="M3745.83,420.214l0,1016.67" style="fill:none;stroke:#000;stroke-width:16.67px;"/><path d="M2766.67,928.547l979.166,0" style="fill:none;stroke:#000;stroke-width:16.67px;"/><path d="M2766.67,1267.44l979.166,0" style="fill:none;stroke:#000;stroke-width:16.67px;"/><path d="M2766.67,1097.99l979.166,-0" style="fill:none;stroke:#000;stroke-width:16.67px;"/><path d="M2766.67,420.214l979.166,-0" style="fill:none;stroke:#000;stroke-width:16.67px;"/><path d="M2766.67,759.103l979.166,-0" style="fill:none;stroke:#000;stroke-width:16.67px;"/><path d="M2766.67,589.658l979.166,0" style="fill:none;stroke:#000;stroke-width:16.67px;"/><path d="M2766.67,1436.88l979.166,0" style="fill:none;stroke:#000;stroke-width:16.67px;"/></g><path d="M3762.5,1453.55l0,-1050l-1012.5,0l0,1050l1012.5,0Zm-16.667,-1033.33l-979.166,-0l-0,1016.67l979.166,0l0,-1016.67Z"/><text x="347.378px" y="1776.63px" style="font-family:'Montserrat-BlackItalic', 'Montserrat';font-weight:900;font-style:italic;font-size:1649.29px;fill:#fff;stroke:#000;stroke-width:25px;stroke-linecap:butt;stroke-linejoin:round;stroke-miterlimit:2;">TPC<tspan x="3862.01px " y="1776.63px ">S</tspan></text><g><path d="M4069.16,617.791c22.513,-57.144 87.184,-85.26 144.328,-62.748c57.144,22.513 85.26,87.184 62.747,144.328c-22.512,57.144 -87.184,85.26 -144.328,62.747c-57.144,-22.512 -85.26,-87.183 -62.747,-144.327Z" style="fill:#fff;"/><path d="M4053.65,611.682c-25.884,65.702 6.443,140.059 72.145,165.943c65.703,25.885 140.059,-6.443 165.944,-72.145c25.884,-65.702 -6.443,-140.059 -72.145,-165.943c-65.703,-25.885 -140.059,6.442 -165.944,72.145Zm15.507,6.109c22.513,-57.144 87.184,-85.26 144.328,-62.748c57.144,22.513 85.26,87.184 62.747,144.328c-22.512,57.144 -87.184,85.26 -144.328,62.747c-57.144,-22.512 -85.26,-87.183 -62.747,-144.327Z"/><path d="M4560.4,314.407c19.191,-48.714 74.322,-72.682 123.035,-53.49c48.714,19.191 72.682,74.321 53.491,123.035c-19.192,48.714 -74.322,72.682 -123.036,53.491c-48.714,-19.192 -72.682,-74.322 -53.49,-123.036Z" style="fill:#fff;"/><path d="M4544.89,308.298c-22.563,57.272 5.616,122.088 62.888,144.651c57.272,22.564 122.088,-5.616 144.652,-62.888c22.563,-57.272 -5.617,-122.088 -62.889,-144.651c-57.272,-22.563 -122.088,5.616 -144.651,62.888Zm15.507,6.109c19.191,-48.714 74.322,-72.682 123.035,-53.49c48.714,19.191 72.682,74.321 53.491,123.035c-19.192,48.714 -74.322,72.682 -123.036,53.491c-48.714,-19.192 -72.682,-74.322 -53.49,-123.036Z"/><path d="M4556.38,896.116c26.191,-66.481 101.43,-99.191 167.911,-73c66.481,26.191 99.191,101.429 73,167.91c-26.191,66.481 -101.429,99.192 -167.911,73.001c-66.481,-26.192 -99.191,-101.43 -73,-167.911Z" style="fill:#fff;"/><path d="M4540.88,890.007c-29.563,75.04 7.358,159.963 82.397,189.526c75.04,29.563 159.964,-7.358 189.527,-82.398c29.562,-75.039 -7.359,-159.963 -82.398,-189.526c-75.04,-29.563 -159.964,7.359 -189.526,82.398Zm15.506,6.109c26.191,-66.481 101.43,-99.191 167.911,-73c66.481,26.191 99.191,101.429 73,167.91c-26.191,66.481 -101.429,99.192 -167.911,73.001c-66.481,-26.192 -99.191,-101.43 -73,-167.911Z"/><path d="M4342.52,570.216l10.761,15.743l-40.776,-7.665l7.665,-40.776l10.761,15.743l187.641,-128.261l11.589,16.954l-187.641,128.262Z" style="fill:#fff;"/><path d="M4365.68,574.57l173.881,-118.856c7.599,-5.195 9.549,-15.566 4.354,-23.165l-11.589,-16.954c-5.194,-7.599 -15.565,-9.549 -23.164,-4.354l-173.882,118.856c0,-0 -1.356,-1.984 -1.356,-1.984c-3.804,-5.566 -10.586,-8.291 -17.183,-6.906c-6.597,1.384 -11.711,6.607 -12.956,13.232l-7.665,40.776c-1.7,9.047 4.255,17.759 13.301,19.459l40.777,7.665c6.625,1.245 13.347,-1.623 17.033,-7.267c3.686,-5.644 3.609,-12.953 -0.195,-18.518l-1.356,-1.984Zm-23.165,-4.354l10.761,15.743l-40.776,-7.665l7.665,-40.776l10.761,15.743l187.641,-128.261l11.589,16.954l-187.641,128.262Z"/><path d="M4641.46,526.57l-18.969,1.957l26.173,-32.194l32.194,26.173l-18.97,1.956l23.871,231.408l-20.428,2.108l-23.871,-231.408Z" style="fill:#fff;"/><path d="M4626.59,544.859l22.161,214.829c0.945,9.156 9.133,15.813 18.289,14.868l20.429,-2.107c9.156,-0.944 15.813,-9.133 14.868,-18.289l-22.161,-214.829c0,-0 2.391,-0.247 2.391,-0.247c6.705,-0.691 12.334,-5.354 14.261,-11.814c1.927,-6.46 -0.227,-13.444 -5.458,-17.697l-32.194,-26.172c-7.142,-5.807 -17.639,-4.724 -23.445,2.418l-26.173,32.194c-4.253,5.231 -4.936,12.508 -1.73,18.438c3.205,5.93 9.667,9.346 16.372,8.654l2.39,-0.246Zm14.869,-18.289l-18.969,1.957l26.173,-32.194l32.194,26.173l-18.97,1.956l23.871,231.408l-20.428,2.108l-23.871,-231.408Z"/></g><g><g><path d="M2074.21,353.255l171.353,223.975" style="fill:none;stroke:#000;stroke-width:16.67px;"/><path d="M2074.21,353.255l-171.352,223.975" style="fill:none;stroke:#000;stroke-width:16.67px;"/><path d="M1902.86,577.23l171.352,223.974" style="fill:none;stroke:#000;stroke-width:16.67px;"/><path d="M1902.86,577.23l-171.352,223.974" style="fill:none;stroke:#000;stroke-width:16.67px;"/><path d="M2245.57,560.703l171.352,223.974" style="fill:none;stroke:#000;stroke-width:16.67px;"/></g><circle cx="2074.21" cy="353.255" r="85.676" style="fill:#fff;"/><path d="M2074.21,250.912c-56.484,-0 -102.342,45.858 -102.342,102.343c-0,56.484 45.858,102.343 102.342,102.343c56.485,-0 102.343,-45.859 102.343,-102.343c0,-56.485 -45.858,-102.343 -102.343,-102.343Zm0,16.667c-47.286,-0 -85.676,38.39 -85.676,85.676c0,47.286 38.39,85.676 85.676,85.676c47.286,-0 85.677,-38.39 85.677,-85.676c-0,-47.286 -38.391,-85.676 -85.677,-85.676Z"/><circle cx="2245.57" cy="577.23" r="85.676" style="fill:#fff;"/><path d="M2245.57,474.887c-56.485,-0 -102.343,45.858 -102.343,102.343c-0,56.484 45.858,102.342 102.343,102.342c56.484,0 102.343,-45.858 102.343,-102.342c-0,-56.485 -45.859,-102.343 -102.343,-102.343Zm-0,16.666c-47.286,0 -85.676,38.391 -85.676,85.677c-0,47.286 38.39,85.676 85.676,85.676c47.286,-0 85.676,-38.39 85.676,-85.676c0,-47.286 -38.39,-85.677 -85.676,-85.677Z"/><circle cx="1902.86" cy="577.23" r="85.676" style="fill:#fff;"/><path d="M1902.86,474.887c-56.485,-0 -102.343,45.858 -102.343,102.343c0,56.484 45.858,102.342 102.343,102.342c56.485,0 102.343,-45.858 102.343,-102.342c-0,-56.485 -45.858,-102.343 -102.343,-102.343Zm-0,16.666c-47.286,0 -85.676,38.391 -85.676,85.677c-0,47.286 38.39,85.676 85.676,85.676c47.286,-0 85.676,-38.39 85.676,-85.676c0,-47.286 -38.39,-85.677 -85.676,-85.677Z"/><circle cx="2074.21" cy="801.204" r="85.676" style="fill:#fff;"/><path d="M2074.21,698.861c-56.484,0 -102.342,45.859 -102.342,102.343c-0,56.485 45.858,102.343 102.342,102.343c56.485,0 102.343,-45.858 102.343,-102.343c0,-56.484 -45.858,-102.343 -102.343,-102.343Zm0,16.667c-47.286,0 -85.676,38.39 -85.676,85.676c0,47.286 38.39,85.676 85.676,85.676c47.286,0 85.677,-38.39 85.677,-85.676c-0,-47.286 -38.391,-85.676 -85.677,-85.676Z"/><circle cx="1731.51" cy="801.204" r="85.676" style="fill:#fff;"/><path d="M1731.51,698.861c-56.485,0 -102.343,45.859 -102.343,102.343c-0,56.485 45.858,102.343 102.343,102.343c56.484,0 102.342,-45.858 102.342,-102.343c0,-56.484 -45.858,-102.343 -102.342,-102.343Zm-0,16.667c-47.286,0 -85.677,38.39 -85.677,85.676c0,47.286 38.391,85.676 85.677,85.676c47.286,0 85.676,-38.39 85.676,-85.676c-0,-47.286 -38.39,-85.676 -85.676,-85.676Z"/><circle cx="2416.92" cy="784.677" r="85.676" style="fill:#fff;"/><path d="M2416.92,682.334c-56.484,0 -102.343,45.859 -102.343,102.343c0,56.485 45.859,102.343 102.343,102.343c56.485,0 102.343,-45.858 102.343,-102.343c0,-56.484 -45.858,-102.343 -102.343,-102.343Zm0,16.667c-47.286,0 -85.676,38.39 -85.676,85.676c0,47.286 38.39,85.677 85.676,85.677c47.286,-0 85.677,-38.391 85.677,-85.677c-0,-47.286 -38.391,-85.676 -85.677,-85.676Z"/></g><g><g><path d="M818.623,397.151l-171.352,223.975" style="fill:none;stroke:#000;stroke-width:16.67px;"/><path d="M647.271,621.126l171.352,223.974" style="fill:none;stroke:#000;stroke-width:16.67px;"/><path d="M989.976,173.176l171.352,223.975" style="fill:none;stroke:#000;stroke-width:16.67px;"/><path d="M647.271,621.126l-171.353,223.974" style="fill:none;stroke:#000;stroke-width:16.67px;"/><path d="M989.976,173.176l-171.353,223.975" style="fill:none;stroke:#000;stroke-width:16.67px;"/></g><circle cx="818.623" cy="397.151" r="85.676" style="fill:#fff;"/><path d="M818.623,294.808c-56.484,0 -102.343,45.858 -102.343,102.343c0,56.485 45.859,102.343 102.343,102.343c56.485,-0 102.343,-45.858 102.343,-102.343c0,-56.485 -45.858,-102.343 -102.343,-102.343Zm0,16.667c-47.286,-0 -85.676,38.39 -85.676,85.676c0,47.286 38.39,85.676 85.676,85.676c47.286,0 85.676,-38.39 85.676,-85.676c0,-47.286 -38.39,-85.676 -85.676,-85.676Z"/><circle cx="989.976" cy="173.176" r="85.676" style="fill:#fff;"/><path d="M989.976,70.833c-56.485,0 -102.343,45.859 -102.343,102.343c-0,56.485 45.858,102.343 102.343,102.343c56.484,0 102.343,-45.858 102.343,-102.343c-0,-56.484 -45.859,-102.343 -102.343,-102.343Zm-0,16.667c-47.286,0 -85.677,38.39 -85.677,85.676c0,47.286 38.391,85.676 85.677,85.676c47.286,0 85.676,-38.39 85.676,-85.676c-0,-47.286 -38.39,-85.676 -85.676,-85.676Z"/><circle cx="647.271" cy="621.126" r="85.676" style="fill:#fff;"/><path d="M647.271,518.783c-56.485,-0 -102.343,45.858 -102.343,102.343c-0,56.484 45.858,102.343 102.343,102.343c56.484,-0 102.343,-45.859 102.343,-102.343c-0,-56.485 -45.859,-102.343 -102.343,-102.343Zm-0,16.666c-47.286,0 -85.676,38.391 -85.676,85.677c-0,47.286 38.39,85.676 85.676,85.676c47.286,-0 85.676,-38.39 85.676,-85.676c0,-47.286 -38.39,-85.677 -85.676,-85.677Z"/><circle cx="818.623" cy="845.1" r="85.676" style="fill:#fff;"/><path d="M818.623,742.758c-56.484,-0 -102.343,45.858 -102.343,102.342c0,56.485 45.859,102.343 102.343,102.343c56.485,0 102.343,-45.858 102.343,-102.343c0,-56.484 -45.858,-102.342 -102.343,-102.342Zm0,16.666c-47.286,0 -85.676,38.39 -85.676,85.676c0,47.286 38.39,85.677 85.676,85.677c47.286,-0 85.676,-38.391 85.676,-85.677c0,-47.286 -38.39,-85.676 -85.676,-85.676Z"/><circle cx="475.918" cy="845.1" r="85.676" style="fill:#fff;"/><path d="M475.918,742.758c-56.484,-0 -102.343,45.858 -102.343,102.342c0,56.485 45.859,102.343 102.343,102.343c56.485,0 102.343,-45.858 102.343,-102.343c0,-56.484 -45.858,-102.342 -102.343,-102.342Zm0,16.666c-47.286,0 -85.676,38.39 -85.676,85.676c0,47.286 38.39,85.677 85.676,85.677c47.286,-0 85.677,-38.391 85.677,-85.677c-0,-47.286 -38.391,-85.676 -85.677,-85.676Z"/><circle cx="1161.33" cy="397.151" r="85.676" style="fill:#fff;"/><path d="M1161.33,294.808c-56.484,0 -102.343,45.858 -102.343,102.343c0,56.485 45.859,102.343 102.343,102.343c56.485,-0 102.343,-45.858 102.343,-102.343c0,-56.485 -45.858,-102.343 -102.343,-102.343Zm0,16.667c-47.286,-0 -85.676,38.39 -85.676,85.676c-0,47.286 38.39,85.676 85.676,85.676c47.286,0 85.676,-38.39 85.676,-85.676c0,-47.286 -38.39,-85.676 -85.676,-85.676Z"/></g><g><path d="M2825,524.901l0,-21.875l168.75,0l0,-20.312l31.25,31.25l-31.25,31.25l0,-20.313l-168.75,0Z"/><path d="M3052.61,524.901l-0,-21.875l149.472,0l0,-20.312l31.25,31.25l-31.25,31.25l0,-20.313l-149.472,0Z"/><path d="M2825,695.735l0,-21.875l168.75,-0l0,-20.313l31.25,31.25l-31.25,31.25l0,-20.312l-168.75,-0Z"/><path d="M2828.65,553.547l21.875,0l-0,60.417l20.312,-0l-31.25,31.25l-31.25,-31.25l20.313,-0l-0,-60.417Z"/><path d="M2828.65,553.547l21.875,0l-0,60.417l20.312,-0l-31.25,31.25l-31.25,-31.25l20.313,-0l-0,-60.417Z"/><path d="M3010.42,549.908l21.875,-0l0,60.417l20.313,-0l-31.25,31.25l-31.25,-31.25l20.312,-0l0,-60.417Z"/><path d="M2825,695.735l0,-21.875l168.75,-0l0,-20.313l31.25,31.25l-31.25,31.25l0,-20.312l-168.75,-0Z"/><path d="M2828.65,553.547l21.875,0l-0,60.417l20.312,-0l-31.25,31.25l-31.25,-31.25l20.313,-0l-0,-60.417Z"/><path d="M2828.65,724.38l21.875,0l-0,60.417l20.312,0l-31.25,31.25l-31.25,-31.25l20.313,0l-0,-60.417Z"/><path d="M3010.42,549.908l21.875,-0l0,60.417l20.313,-0l-31.25,31.25l-31.25,-31.25l20.312,-0l0,-60.417Z"/></g><g><g><rect x="3233.33" y="1965.83" width="1916.67" height="137.5" style="fill:#fff;"/><path d="M3216.67,1949.16l-0,170.834l1950,-0l-0,-170.834l-1950,0Zm16.666,154.167l1916.67,0l0,-137.5l-1916.67,0l0,137.5Z"/><path d="M5150,2103.33l0,-137.5" style="fill:none;stroke:#000;stroke-width:16.67px;"/><path d="M3233.33,2103.33l0,-137.5" style="fill:none;stroke:#000;stroke-width:16.67px;"/><path d="M4876.19,2103.33l0,-137.5" style="fill:none;stroke:#000;stroke-width:16.67px;"/><path d="M3780.95,2103.33l0,-137.5" style="fill:none;stroke:#000;stroke-width:16.67px;"/><path d="M4328.57,2103.33l0,-137.5" style="fill:none;stroke:#000;stroke-width:16.67px;"/><path d="M4054.76,2103.33l-0,-137.5" style="fill:none;stroke:#000;stroke-width:16.67px;"/><path d="M4602.38,2103.33l-0,-137.5" style="fill:none;stroke:#000;stroke-width:16.67px;"/><path d="M3507.14,2103.33l-0,-137.5" style="fill:none;stroke:#000;stroke-width:16.67px;"/></g><g><path d="M4191.58,2012.7c-0,0.601 -0.132,16.248 -0.132,16.248l21.675,0l-33.346,33.346l-33.346,-33.346l21.674,0c0,0 -0.132,-15.647 -0.132,-16.248c0,-157.764 127.893,-285.657 285.658,-285.657c157.764,-0 285.657,127.893 285.657,285.657c-0,6.514 -5.289,11.803 -11.803,11.803c-6.515,-0 -11.804,-5.289 -11.804,-11.803c0,-144.727 -117.324,-262.051 -262.05,-262.051c-144.727,-0 -262.051,117.324 -262.051,262.051Z" style="fill:#fff;"/><path d="M4204.08,2012.7c-0,-137.823 111.727,-249.551 249.551,-249.551c137.823,-0 249.55,111.728 249.55,249.551c0,13.413 10.89,24.303 24.304,24.303c13.413,-0 24.303,-10.89 24.303,-24.303c-0,-164.668 -133.49,-298.157 -298.157,-298.157c-164.668,-0 -298.158,133.489 -298.158,298.157c0,0.18 0.012,1.701 0.029,3.748c-0,0 -9.071,0 -9.071,0c-5.056,0 -9.614,3.046 -11.549,7.717c-1.935,4.671 -0.865,10.047 2.71,13.622l33.346,33.346c4.881,4.882 12.796,4.882 17.677,0l33.346,-33.346c3.575,-3.575 4.645,-8.951 2.71,-13.622c-1.935,-4.671 -6.493,-7.717 -11.548,-7.717l-9.072,0c0.017,-2.047 0.029,-3.568 0.029,-3.748Zm-12.5,-0c-0,0.601 -0.132,16.248 -0.132,16.248l21.675,0l-33.346,33.346l-33.346,-33.346l21.674,0c0,0 -0.132,-15.647 -0.132,-16.248c0,-157.764 127.893,-285.657 285.658,-285.657c157.764,-0 285.657,127.893 285.657,285.657c-0,6.514 -5.289,11.803 -11.803,11.803c-6.515,-0 -11.804,-5.289 -11.804,-11.803c0,-144.727 -117.324,-262.051 -262.05,-262.051c-144.727,-0 -262.051,117.324 -262.051,262.051Z"/><path d="M3948.52,1990.69c-0,0.868 -0.191,23.459 -0.191,23.459l31.294,0l-48.145,48.144l-48.144,-48.144l31.294,0c0,0 -0.191,-22.591 -0.191,-23.459c0,-227.776 184.649,-412.425 412.425,-412.425c227.776,0 412.425,184.649 412.425,412.425c-0,9.405 -7.636,17.041 -17.041,17.041c-9.406,0 -17.041,-7.636 -17.041,-17.041c-0,-208.953 -169.39,-378.343 -378.343,-378.343c-208.953,0 -378.342,169.39 -378.342,378.343Z" style="fill:#fff;"/><path d="M3961.02,1990.69c-0,-202.049 163.793,-365.843 365.842,-365.843c202.049,0 365.843,163.794 365.843,365.843c-0,16.304 13.236,29.541 29.541,29.541c16.304,0 29.541,-13.237 29.541,-29.541c-0,-234.679 -190.246,-424.925 -424.925,-424.925c-234.679,0 -424.925,190.246 -424.925,424.925c0,0.407 0.042,5.57 0.086,10.959c0,0 -18.689,0 -18.689,0c-5.055,0 -9.613,3.046 -11.548,7.717c-1.935,4.671 -0.865,10.047 2.709,13.622l48.145,48.144c4.881,4.882 12.796,4.882 17.677,0l48.144,-48.144c3.575,-3.575 4.645,-8.951 2.71,-13.622c-1.935,-4.671 -6.493,-7.717 -11.548,-7.717l-18.69,0c0.045,-5.389 0.087,-10.552 0.087,-10.959Zm-12.5,-0c-0,0.868 -0.191,23.459 -0.191,23.459l31.294,0l-48.145,48.144l-48.144,-48.144l31.294,0c0,0 -0.191,-22.591 -0.191,-23.459c0,-227.776 184.649,-412.425 412.425,-412.425c227.776,0 412.425,184.649 412.425,412.425c-0,9.405 -7.636,17.041 -17.041,17.041c-9.406,0 -17.041,-7.636 -17.041,-17.041c-0,-208.953 -169.39,-378.343 -378.343,-378.343c-208.953,0 -378.342,169.39 -378.342,378.343Z"/><path d="M3688.4,1990.69c0,0.868 -0.19,23.459 -0.19,23.459l31.294,0l-48.145,48.144l-48.144,-48.144l31.294,0c-0,0 -0.191,-22.591 -0.191,-23.459c0,-227.776 184.649,-412.425 412.425,-412.425c227.776,0 412.425,184.649 412.425,412.425c-0,9.405 -7.636,17.041 -17.041,17.041c-9.406,0 -17.041,-7.636 -17.041,-17.041c-0.001,-208.953 -169.39,-378.343 -378.343,-378.343c-208.953,0 -378.343,169.39 -378.343,378.343Z" style="fill:#fff;"/><path d="M3700.9,1990.69c0,-202.049 163.794,-365.843 365.843,-365.843c202.049,0 365.842,163.794 365.843,365.843c-0,16.304 13.236,29.541 29.541,29.541c16.304,0 29.541,-13.237 29.541,-29.541c-0,-234.679 -190.246,-424.925 -424.925,-424.925c-234.679,0 -424.925,190.246 -424.925,424.925c0,0.407 0.042,5.57 0.086,10.959c0,0 -18.689,0 -18.689,0c-5.055,0 -9.613,3.046 -11.548,7.717c-1.935,4.671 -0.866,10.047 2.709,13.622l48.145,48.144c4.881,4.882 12.796,4.882 17.677,0l48.144,-48.144c3.575,-3.575 4.645,-8.951 2.71,-13.622c-1.935,-4.671 -6.493,-7.717 -11.548,-7.717l-18.69,0c0.045,-5.389 0.086,-10.552 0.086,-10.959Zm-12.5,-0c0,0.868 -0.19,23.459 -0.19,23.459l31.294,0l-48.145,48.144l-48.144,-48.144l31.294,0c-0,0 -0.191,-22.591 -0.191,-23.459c0,-227.776 184.649,-412.425 412.425,-412.425c227.776,0 412.425,184.649 412.425,412.425c-0,9.405 -7.636,17.041 -17.041,17.041c-9.406,0 -17.041,-7.636 -17.041,-17.041c-0.001,-208.953 -169.39,-378.343 -378.343,-378.343c-208.953,0 -378.343,169.39 -378.343,378.343Z"/><path d="M3398.45,1963.3c0,1.201 -0.263,32.432 -0.263,32.432l43.262,0l-66.558,66.558l-66.558,-66.558l43.263,0c0,0 -0.263,-31.231 -0.263,-32.432c-0,-314.894 255.272,-570.167 570.167,-570.167c314.894,0 570.167,255.273 570.167,570.167c-0,13.003 -10.557,23.559 -23.559,23.559c-13.003,0 -23.559,-10.556 -23.559,-23.559c-0,-288.872 -234.177,-523.049 -523.049,-523.049c-288.873,0 -523.05,234.177 -523.05,523.049Z" style="fill:#fff;"/><path d="M3410.95,1963.3c0,-281.968 228.581,-510.549 510.55,-510.549c281.968,0 510.549,228.581 510.549,510.549c-0,19.902 16.157,36.059 36.059,36.059c19.901,0 36.059,-16.157 36.059,-36.059c-0,-321.798 -260.869,-582.667 -582.667,-582.667c-321.799,0 -582.667,260.869 -582.667,582.667c-0,0.684 0.085,11.074 0.158,19.932c0,0 -30.658,0 -30.658,0c-5.055,0 -9.613,3.046 -11.548,7.717c-1.935,4.671 -0.865,10.047 2.709,13.622l66.559,66.558c4.881,4.882 12.796,4.882 17.677,0l66.558,-66.558c3.575,-3.575 4.645,-8.951 2.71,-13.622c-1.935,-4.671 -6.493,-7.717 -11.549,-7.717l-30.657,0c0.073,-8.858 0.158,-19.248 0.158,-19.932Zm-12.5,0c0,1.201 -0.263,32.432 -0.263,32.432l43.262,0l-66.558,66.558l-66.558,-66.558l43.263,0c0,0 -0.263,-31.231 -0.263,-32.432c-0,-314.894 255.272,-570.167 570.167,-570.167c314.894,0 570.167,255.273 570.167,570.167c-0,13.003 -10.557,23.559 -23.559,23.559c-13.003,0 -23.559,-10.556 -23.559,-23.559c-0,-288.872 -234.177,-523.049 -523.049,-523.049c-288.873,0 -523.05,234.177 -523.05,523.049Z"/><path d="M4740.96,2027.27c-0,0.323 -0.071,8.744 -0.071,8.744l11.664,-0l-17.945,17.945l-17.945,-17.945l11.664,-0c0,-0 -0.071,-8.421 -0.071,-8.744c0,-84.902 68.826,-153.728 153.727,-153.728c84.901,0 153.727,68.826 153.727,153.728c0,3.505 -2.846,6.351 -6.352,6.351c-3.505,0 -6.351,-2.846 -6.351,-6.351c-0,-77.886 -63.139,-141.024 -141.024,-141.024c-77.885,0 -141.023,63.138 -141.023,141.024Z" style="fill:#fff;"/><path d="M4715.8,2023.54c-4.707,0.322 -8.862,3.281 -10.686,7.684c-1.935,4.671 -0.865,10.048 2.71,13.623l17.945,17.945c4.882,4.881 12.796,4.881 17.678,-0l17.945,-17.945c3.575,-3.575 4.644,-8.952 2.71,-13.623c-1.812,-4.373 -5.922,-7.321 -10.588,-7.679c1.964,-69.259 58.73,-124.805 128.469,-124.805c70.982,0 128.524,57.542 128.524,128.524c-0,10.404 8.447,18.851 18.851,18.851c10.405,0 18.852,-8.447 18.852,-18.851c0,-91.805 -74.422,-166.228 -166.227,-166.228c-90.556,0 -164.199,72.412 -166.183,162.504Zm25.16,3.724c-0,0.323 -0.071,8.744 -0.071,8.744l11.664,-0l-17.945,17.945l-17.945,-17.945l11.664,-0c0,-0 -0.071,-8.421 -0.071,-8.744c0,-84.902 68.826,-153.728 153.727,-153.728c84.901,0 153.727,68.826 153.727,153.728c0,3.505 -2.846,6.351 -6.352,6.351c-3.505,0 -6.351,-2.846 -6.351,-6.351c-0,-77.886 -63.139,-141.024 -141.024,-141.024c-77.885,0 -141.023,63.138 -141.023,141.024Z"/><path d="M4483.84,2013.37c-0,0.601 -0.132,16.248 -0.132,16.248l21.674,0l-33.346,33.346l-33.346,-33.346l21.675,0c0,0 -0.132,-15.647 -0.132,-16.248c0,-157.764 127.893,-285.657 285.657,-285.657c157.765,-0 285.658,127.893 285.658,285.657c-0,6.514 -5.289,11.803 -11.804,11.803c-6.514,0 -11.803,-5.289 -11.803,-11.803c0,-144.727 -117.324,-262.051 -262.051,-262.051c-144.726,0 -262.05,117.324 -262.05,262.051Z" style="fill:#fff;"/><path d="M4496.34,2013.37c-0,-137.823 111.727,-249.551 249.55,-249.551c137.824,0 249.551,111.728 249.551,249.551c0,13.413 10.89,24.303 24.303,24.303c13.414,0 24.304,-10.89 24.304,-24.303c-0,-164.668 -133.49,-298.157 -298.158,-298.157c-164.667,-0 -298.157,133.489 -298.157,298.157c0,0.18 0.012,1.701 0.029,3.748c-0,0 -9.072,0 -9.072,0c-5.055,0 -9.613,3.046 -11.548,7.717c-1.935,4.671 -0.865,10.047 2.71,13.622l33.346,33.346c4.881,4.882 12.796,4.882 17.677,0l33.346,-33.346c3.575,-3.575 4.645,-8.951 2.71,-13.622c-1.935,-4.671 -6.493,-7.717 -11.549,-7.717l-9.071,0c0.017,-2.047 0.029,-3.568 0.029,-3.748Zm-12.5,-0c-0,0.601 -0.132,16.248 -0.132,16.248l21.674,0l-33.346,33.346l-33.346,-33.346l21.675,0c0,0 -0.132,-15.647 -0.132,-16.248c0,-157.764 127.893,-285.657 285.657,-285.657c157.765,-0 285.658,127.893 285.658,285.657c-0,6.514 -5.289,11.803 -11.804,11.803c-6.514,0 -11.803,-5.289 -11.803,-11.803c0,-144.727 -117.324,-262.051 -262.051,-262.051c-144.726,0 -262.05,117.324 -262.05,262.051Z"/></g></g><path d="M1415.38,532.97l-0,44.26l-68.091,-68.092l68.091,-68.091l-0,44.259l173.722,0l0,-44.259l68.091,68.091l-68.091,68.092l0,-44.26l-173.722,0Z" style="fill:#fff;"/><path d="M1427.88,545.47l148.722,0c0,0 0,31.76 0,31.76c0,5.055 3.046,9.613 7.716,11.548c4.671,1.935 10.048,0.865 13.623,-2.71l68.091,-68.091c4.882,-4.881 4.882,-12.796 0,-17.677l-68.091,-68.092c-3.575,-3.575 -8.952,-4.644 -13.623,-2.709c-4.67,1.934 -7.716,6.492 -7.716,11.548l0,31.759c0,0 -148.722,0 -148.722,0c-0,0 -0,-31.759 -0,-31.759c-0,-5.056 -3.046,-9.614 -7.717,-11.548c-4.67,-1.935 -10.047,-0.866 -13.622,2.709l-68.091,68.092c-4.882,4.881 -4.882,12.796 -0,17.677l68.091,68.091c3.575,3.575 8.952,4.645 13.622,2.71c4.671,-1.935 7.717,-6.493 7.717,-11.548l-0,-31.76Zm-12.5,-12.5l-0,44.26l-68.091,-68.092l68.091,-68.091l-0,44.259l173.722,0l0,-44.259l68.091,68.091l-68.091,68.092l0,-44.26l-173.722,0Z"/><text x="603.059px" y="2001.79px" style="font-family:'Montserrat-Black', 'Montserrat';font-weight:900;font-size:198.761px;fill:#fff;stroke:#000;stroke-width:16.67px;stroke-linecap:butt;stroke-linejoin:round;stroke-miterlimit:2;">c<tspan x="724.303px " y="2001.79px ">o</tspan>mput<tspan x="1432.09px " y="2001.79px ">e</tspan>r scien<tspan x="2282.78px 2404.03px " y="2001.79px 2001.79px ">ce</tspan> @ TP</text></svg>