<?xml version="1.0" encoding="UTF-8" standalone="no"?><!DOCTYPE svg PUBLIC "-//W3C//DTD SVG 1.1//EN" "http://www.w3.org/Graphics/SVG/1.1/DTD/svg11.dtd"><svg width="100%" height="100%" viewBox="0 0 5334 2296" version="1.1" xmlns="http://www.w3.org/2000/svg" xmlns:xlink="http://www.w3.org/1999/xlink" xml:space="preserve" xmlns:serif="http://www.serif.com/" style="fill-rule:evenodd;clip-rule:evenodd;stroke-linecap:round;stroke-miterlimit:1.5;"><rect id="Artboard1" x="0" y="0" width="5333.33" height="2295.83" style="fill:none;"/><g><path d="M226.845,1091.57l1536.46,666.667l-361.458,250l-605.895,28.72l-369.105,-87.857l-200,-857.53Z" style="fill:#fff;"/><path d="M231.821,1080.1c-4.333,-1.88 -9.356,-1.157 -12.983,1.868c-3.627,3.026 -5.239,7.838 -4.166,12.438l200,857.53c1.076,4.615 4.669,8.224 9.279,9.321l369.105,87.857c1.141,0.272 2.314,0.382 3.486,0.326l605.895,-28.72c2.336,-0.111 4.595,-0.875 6.519,-2.206l361.458,-250c3.733,-2.582 5.773,-6.984 5.33,-11.502c-0.444,-4.517 -3.301,-8.439 -7.465,-10.245l-1536.46,-666.667Zm-4.976,11.467l1536.46,666.667l-361.458,250l-605.895,28.72l-369.105,-87.857l-200,-857.53Z"/><path d="M226.845,1091.57l200,857.53l375,89.26l600,-30.123l361.458,-250" style="fill:none;"/><g><g><circle cx="226.845" cy="1091.57" r="18.512"/><circle cx="424.003" cy="1946.54" r="18.512"/><circle cx="799.003" cy="2038.36" r="18.512"/><circle cx="1407.34" cy="2001.34" r="18.512"/><circle cx="1763.3" cy="1763.21" r="18.512"/><circle cx="1261.5" cy="1763.21" r="18.512"/><circle cx="710.178" cy="1853.98" r="18.512"/><circle cx="1176.85" cy="1656.01" r="18.512"/><circle cx="578.169" cy="1564.97" r="18.512"/><circle cx="578.169" cy="1909.52" r="18.512"/><circle cx="836.026" cy="1726.18" r="18.512"/><circle cx="1370.31" cy="1872.49" r="18.512"/><circle cx="1069.84" cy="1527.94" r="18.512"/></g><path d="M208.333,1371.85l27.257,-6.322l106.269,458.185l25.31,-5.87l-29.908,47.969l-47.969,-29.907l25.31,-5.87l-106.269,-458.185Z" style="fill:#fff;"/><path d="M205.509,1359.67c-6.725,1.56 -10.912,8.276 -9.352,15.001l103.444,446.008c-0,0 -13.133,3.046 -13.133,3.046c-4.925,1.143 -8.677,5.139 -9.507,10.127c-0.829,4.987 1.427,9.983 5.718,12.658l47.969,29.907c5.858,3.652 13.568,1.864 17.221,-3.994l29.907,-47.97c2.675,-4.29 2.502,-9.769 -0.438,-13.882c-2.94,-4.113 -8.069,-6.05 -12.994,-4.908l-13.133,3.046c0,0 -103.444,-446.008 -103.444,-446.008c-1.56,-6.725 -8.276,-10.912 -15.001,-9.353l-27.257,6.322Zm2.824,12.177l27.257,-6.322l106.269,458.185l25.31,-5.87l-29.908,47.969l-47.969,-29.907l25.31,-5.87l-106.269,-458.185Z"/><path d="M463.824,2031.81l5.126,-21.4l215.641,51.647l4.76,-19.871l23.249,37.893l-37.893,23.249l4.759,-19.871l-215.642,-51.647Z" style="fill:#fff;"/><path d="M451.668,2028.9c-1.608,6.714 2.531,13.46 9.245,15.068l203.485,48.736c0,-0 -1.847,7.715 -1.847,7.715c-1.178,4.916 0.722,10.058 4.814,13.028c4.092,2.969 9.569,3.181 13.879,0.537l37.893,-23.249c5.884,-3.61 7.727,-11.307 4.117,-17.191l-23.249,-37.893c-2.644,-4.309 -7.624,-6.601 -12.617,-5.808c-4.993,0.794 -9.016,4.517 -10.194,9.434l-1.847,7.715c-0,-0 -203.486,-48.736 -203.486,-48.736c-6.714,-1.608 -13.46,2.531 -15.068,9.245l-5.125,21.399Zm12.156,2.912l5.126,-21.4l215.641,51.647l4.76,-19.871l23.249,37.893l-37.893,23.249l4.759,-19.871l-215.642,-51.647Z"/></g></g><g><rect x="1645.83" y="1099.38" width="1062.5" height="957.53" style="fill:#fff;"/><path d="M2725,2073.58l0,-990.863l-1095.83,-0l-0,990.863l1095.83,0Zm-16.667,-974.197l-1062.5,0l0,957.531l1062.5,-0l0,-957.531Z"/><rect x="1645.83" y="1099.38" width="780.873" height="741.822" style="fill:#fff;"/><path d="M2443.37,1857.87l0,-775.155l-814.206,-0l-0,775.155l814.206,-0Zm-16.666,-758.489l-780.874,0l0,741.822l780.874,0l-0,-741.822Z"/><rect x="1645.83" y="1099.38" width="390.437" height="441.667" style="fill:#fff;"/><path d="M2052.94,1557.71l-0,-475l-423.77,-0l-0,475l423.77,-0Zm-16.667,-458.334l-390.437,0l0,441.667l390.437,0l0,-441.667Z"/><rect x="2036.27" y="1099.38" width="390.437" height="542.765" style="fill:#fff;"/><path d="M2443.37,1658.81l0,-576.098l-423.77,-0l0,576.098l423.77,-0Zm-16.666,-559.432l-390.437,0l0,542.765l390.437,-0l-0,-542.765Z"/><rect x="2036.27" y="1652.39" width="390.437" height="188.81" style="fill:#fff;"/><path d="M2443.37,1857.87l0,-222.143l-423.77,-0l0,222.143l423.77,-0Zm-16.666,-205.476l-390.437,-0l0,188.809l390.437,0l-0,-188.809Z"/><rect x="2036.27" y="1652.39" width="101.23" height="180.321" style="fill:#fff;"/><path d="M2154.17,1849.38l-0,-213.654l-134.564,-0l0,213.654l134.564,0Zm-16.667,-196.987l-101.23,-0l0,180.321l101.23,-0l0,-180.321Z"/><rect x="2154.17" y="1652.39" width="272.54" height="180.321" style="fill:#fff;"/><path d="M2443.37,1849.38l0,-213.654l-305.873,-0l0,213.654l305.873,0Zm-16.666,-196.987l-272.54,-0l-0,180.321l272.54,-0l-0,-180.321Z"/><rect x="2154.17" y="1728.55" width="272.54" height="104.167" style="fill:#fff;"/><path d="M2443.37,1849.38l0,-137.5l-305.873,0l0,137.5l305.873,0Zm-16.666,-120.833l-272.54,0l-0,104.167l272.54,-0l-0,-104.167Z"/><rect x="2036.27" y="1099.38" width="142.897" height="533.333" style="fill:#fff;"/><path d="M2195.83,1649.38l0,-566.666l-176.23,-0l0,566.666l176.23,0Zm-16.666,-550l-142.897,0l0,533.334l142.897,-0l-0,-533.334Z"/><rect x="1645.83" y="1851.45" width="780.873" height="205.461" style="fill:#fff;"/><path d="M2443.37,2073.58l0,-238.794l-814.206,0l-0,238.794l814.206,0Zm-16.666,-222.127l-780.874,-0l0,205.461l780.874,-0l-0,-205.461Z"/></g><rect x="2766.67" y="420.214" width="979.167" height="1016.67" style="fill:#fff;"/><clipPath id="_clip1"><rect x="2766.67" y="420.214" width="979.167" height="1016.67"/></clipPath><g clip-path="url(#_clip1)"><path d="M2766.67,420.214l-0,1016.67" style="fill:none;stroke:#000;stroke-width:16.67px;"/><path d="M3582.64,420.214l-0,1016.67" style="fill:none;stroke:#000;stroke-width:16.67px;"/><path d="M3419.44,420.214l0,1016.67" style="fill:none;stroke:#000;stroke-width:16.67px;"/><path d="M3256.25,420.214l0,1016.67" style="fill:none;stroke:#000;stroke-width:16.67px;"/><path d="M3093.06,420.214l-0,1016.67" style="fill:none;stroke:#000;stroke-width:16.67px;"/><path d="M2929.86,420.214l0,1016.67" style="fill:none;stroke:#000;stroke-width:16.67px;"/><path d="M3745.83,420.214l0,1016.67" style="fill:none;stroke:#000;stroke-width:16.67px;"/><path d="M2766.67,928.547l979.166,0" style="fill:none;stroke:#000;stroke-width:16.67px;"/><path d="M2766.67,1267.44l979.166,0" style="fill:none;stroke:#000;stroke-width:16.67px;"/><path d="M2766.67,1097.99l979.166,-0" style="fill:none;stroke:#000;stroke-width:16.67px;"/><path d="M2766.67,420.214l979.166,-0" style="fill:none;stroke:#000;stroke-width:16.67px;"/><path d="M2766.67,759.103l979.166,-0" style="fill:none;stroke:#000;stroke-width:16.67px;"/><path d="M2766.67,589.658l979.166,0" style="fill:none;stroke:#000;stroke-width:16.67px;"/><path d="M2766.67,1436.88l979.166,0" style="fill:none;stroke:#000;stroke-width:16.67px;"/></g><path d="M3762.5,1453.55l0,-1050l-1012.5,0l0,1050l1012.5,0Zm-16.667,-1033.33l-979.166,-0l-0,1016.67l979.166,0l0,-1016.67Z"/><path d="M771.245,923.949l-338.104,0l61.024,-301.819l1065.44,-0l-61.024,301.819l-338.104,0l-169.877,852.682l-389.231,0l169.876,-852.682Z" style="fill:#fff;fill-rule:nonzero;stroke:#000;stroke-width:25px;stroke-linecap:butt;stroke-linejoin:round;stroke-miterlimit:2;"/><path d="M2173.14,622.13c153.933,-0 273.232,33.535 357.895,100.606c84.663,67.071 126.995,161.081 126.995,282.029c0,96.758 -23.915,181.971 -71.744,255.639c-47.829,73.668 -116,130.844 -204.512,171.526c-88.511,40.682 -191.042,61.024 -307.592,61.024l-199.563,-0l-56.076,283.677l-389.232,0l230.9,-1154.5l512.929,-0Zm-79.166,570.653c53.876,0 95.658,-13.469 125.346,-40.407c29.687,-26.939 44.53,-64.597 44.53,-112.976c0,-78.067 -48.379,-117.1 -145.137,-117.1l-130.294,0l-54.426,270.483l159.981,0Z" style="fill:#fff;fill-rule:nonzero;stroke:#000;stroke-width:25px;stroke-linecap:butt;stroke-linejoin:round;stroke-miterlimit:2;"/><path d="M3311.15,1803.02c-117.649,-0 -221.28,-21.716 -310.891,-65.147c-89.611,-43.431 -158.881,-104.18 -207.81,-182.246c-48.929,-78.067 -73.393,-167.678 -73.393,-268.834c-0,-134.142 31.061,-253.441 93.184,-357.896c62.124,-104.455 148.436,-186.094 258.939,-244.919c110.502,-58.824 236.123,-88.237 376.862,-88.237c111.052,0 209.459,20.067 295.222,60.199c85.763,40.133 149.536,97.033 191.318,170.702l-280.379,219.355c-51.678,-90.161 -128.645,-135.242 -230.901,-135.242c-60.473,0 -114.35,14.844 -161.63,44.531c-47.279,29.687 -84.113,71.194 -110.502,124.521c-26.389,53.327 -39.583,114.076 -39.583,182.246c0,68.171 21.716,122.872 65.147,164.105c43.431,41.232 100.881,61.848 172.35,61.848c97.858,-0 183.621,-44.531 257.289,-133.592l229.251,219.355c-67.071,82.464 -143.213,141.289 -228.426,176.473c-85.213,35.185 -183.896,52.778 -296.047,52.778Z" style="fill:#fff;fill-rule:nonzero;stroke:#000;stroke-width:25px;stroke-linecap:butt;stroke-linejoin:round;stroke-miterlimit:2;"/><path d="M4323.81,1803.02c-100.056,-0 -194.066,-10.721 -282.028,-32.161c-87.962,-21.441 -160.53,-49.754 -217.706,-84.939l150.085,-286.976c124.247,71.469 253.991,107.204 389.232,107.204c49.479,-0 87.412,-6.047 113.801,-18.142c26.389,-12.095 39.583,-28.588 39.583,-49.479c-0,-19.791 -13.469,-35.734 -40.408,-47.829c-26.938,-12.095 -69.545,-25.289 -127.819,-39.583c-76.967,-19.792 -140.74,-39.858 -191.318,-60.199c-50.578,-20.341 -94.834,-51.678 -132.767,-94.009c-37.934,-42.332 -56.901,-98.133 -56.901,-167.403c0,-86.863 23.365,-163.005 70.095,-228.426c46.73,-65.422 114.076,-116 202.038,-151.735c87.962,-35.734 191.867,-53.602 311.715,-53.602c85.763,0 165.753,8.522 239.971,25.564c74.218,17.043 138.266,41.507 192.142,73.394l-140.189,283.677c-45.081,-28.588 -94.834,-50.028 -149.261,-64.322c-54.426,-14.294 -110.227,-21.441 -167.402,-21.441c-53.877,0 -95.659,7.697 -125.346,23.09c-29.687,15.393 -44.531,33.536 -44.531,54.427c0,20.891 13.469,37.383 40.408,49.478c26.938,12.095 71.194,25.289 132.767,39.583c74.768,17.592 137.716,36.284 188.844,56.076c51.128,19.791 95.383,50.578 132.767,92.36c37.384,41.782 56.076,96.758 56.076,164.929c0,85.763 -23.64,161.08 -70.919,225.952c-47.28,64.872 -114.901,115.175 -202.863,150.91c-87.962,35.734 -191.317,53.602 -310.066,53.602Z" style="fill:#fff;fill-rule:nonzero;stroke:#000;stroke-width:25px;stroke-linecap:butt;stroke-linejoin:round;stroke-miterlimit:2;"/><g><path d="M4069.16,617.791c22.513,-57.144 87.184,-85.26 144.328,-62.748c57.144,22.513 85.26,87.184 62.747,144.328c-22.512,57.144 -87.184,85.26 -144.328,62.747c-57.144,-22.512 -85.26,-87.183 -62.747,-144.327Z" style="fill:#fff;"/><path d="M4053.65,611.682c-25.884,65.702 6.443,140.059 72.145,165.943c65.703,25.885 140.059,-6.443 165.944,-72.145c25.884,-65.702 -6.443,-140.059 -72.145,-165.943c-65.703,-25.885 -140.059,6.442 -165.944,72.145Zm15.507,6.109c22.513,-57.144 87.184,-85.26 144.328,-62.748c57.144,22.513 85.26,87.184 62.747,144.328c-22.512,57.144 -87.184,85.26 -144.328,62.747c-57.144,-22.512 -85.26,-87.183 -62.747,-144.327Z"/><path d="M4560.4,314.407c19.191,-48.714 74.322,-72.682 123.035,-53.49c48.714,19.191 72.682,74.321 53.491,123.035c-19.192,48.714 -74.322,72.682 -123.036,53.491c-48.714,-19.192 -72.682,-74.322 -53.49,-123.036Z" style="fill:#fff;"/><path d="M4544.89,308.298c-22.563,57.272 5.616,122.088 62.888,144.651c57.272,22.564 122.088,-5.616 144.652,-62.888c22.563,-57.272 -5.617,-122.088 -62.889,-144.651c-57.272,-22.563 -122.088,5.616 -144.651,62.888Zm15.507,6.109c19.191,-48.714 74.322,-72.682 123.035,-53.49c48.714,19.191 72.682,74.321 53.491,123.035c-19.192,48.714 -74.322,72.682 -123.036,53.491c-48.714,-19.192 -72.682,-74.322 -53.49,-123.036Z"/><path d="M4556.38,896.116c26.191,-66.481 101.43,-99.191 167.911,-73c66.481,26.191 99.191,101.429 73,167.91c-26.191,66.481 -101.429,99.192 -167.911,73.001c-66.481,-26.192 -99.191,-101.43 -73,-167.911Z" style="fill:#fff;"/><path d="M4540.88,890.007c-29.563,75.04 7.358,159.963 82.397,189.526c75.04,29.563 159.964,-7.358 189.527,-82.398c29.562,-75.039 -7.359,-159.963 -82.398,-189.526c-75.04,-29.563 -159.964,7.359 -189.526,82.398Zm15.506,6.109c26.191,-66.481 101.43,-99.191 167.911,-73c66.481,26.191 99.191,101.429 73,167.91c-26.191,66.481 -101.429,99.192 -167.911,73.001c-66.481,-26.192 -99.191,-101.43 -73,-167.911Z"/><path d="M4342.52,570.216l10.761,15.743l-40.776,-7.665l7.665,-40.776l10.761,15.743l187.641,-128.261l11.589,16.954l-187.641,128.262Z" style="fill:#fff;"/><path d="M4365.68,574.57l173.881,-118.856c7.599,-5.195 9.549,-15.566 4.354,-23.165l-11.589,-16.954c-5.194,-7.599 -15.565,-9.549 -23.164,-4.354l-173.882,118.856c0,-0 -1.356,-1.984 -1.356,-1.984c-3.804,-5.566 -10.586,-8.291 -17.183,-6.906c-6.597,1.384 -11.711,6.607 -12.956,13.232l-7.665,40.776c-1.7,9.047 4.255,17.759 13.301,19.459l40.777,7.665c6.625,1.245 13.347,-1.623 17.033,-7.267c3.686,-5.644 3.609,-12.953 -0.195,-18.518l-1.356,-1.984Zm-23.165,-4.354l10.761,15.743l-40.776,-7.665l7.665,-40.776l10.761,15.743l187.641,-128.261l11.589,16.954l-187.641,128.262Z"/><path d="M4641.46,526.57l-18.969,1.957l26.173,-32.194l32.194,26.173l-18.97,1.956l23.871,231.408l-20.428,2.108l-23.871,-231.408Z" style="fill:#fff;"/><path d="M4626.59,544.859l22.161,214.829c0.945,9.156 9.133,15.813 18.289,14.868l20.429,-2.107c9.156,-0.944 15.813,-9.133 14.868,-18.289l-22.161,-214.829c0,-0 2.391,-0.247 2.391,-0.247c6.705,-0.691 12.334,-5.354 14.261,-11.814c1.927,-6.46 -0.227,-13.444 -5.458,-17.697l-32.194,-26.172c-7.142,-5.807 -17.639,-4.724 -23.445,2.418l-26.173,32.194c-4.253,5.231 -4.936,12.508 -1.73,18.438c3.205,5.93 9.667,9.346 16.372,8.654l2.39,-0.246Zm14.869,-18.289l-18.969,1.957l26.173,-32.194l32.194,26.173l-18.97,1.956l23.871,231.408l-20.428,2.108l-23.871,-231.408Z"/></g><g><g><path d="M2074.21,353.255l171.353,223.975" style="fill:none;stroke:#000;stroke-width:16.67px;"/><path d="M2074.21,353.255l-171.352,223.975" style="fill:none;stroke:#000;stroke-width:16.67px;"/><path d="M1902.86,577.23l171.352,223.974" style="fill:none;stroke:#000;stroke-width:16.67px;"/><path d="M1902.86,577.23l-171.352,223.974" style="fill:none;stroke:#000;stroke-width:16.67px;"/><path d="M2245.57,560.703l171.352,223.974" style="fill:none;stroke:#000;stroke-width:16.67px;"/></g><circle cx="2074.21" cy="353.255" r="85.676" style="fill:#fff;"/><path d="M2074.21,250.912c-56.484,-0 -102.342,45.858 -102.342,102.343c-0,56.484 45.858,102.343 102.342,102.343c56.485,-0 102.343,-45.859 102.343,-102.343c0,-56.485 -45.858,-102.343 -102.343,-102.343Zm0,16.667c-47.286,-0 -85.676,38.39 -85.676,85.676c0,47.286 38.39,85.676 85.676,85.676c47.286,-0 85.677,-38.39 85.677,-85.676c-0,-47.286 -38.391,-85.676 -85.677,-85.676Z"/><circle cx="2245.57" cy="577.23" r="85.676" style="fill:#fff;"/><path d="M2245.57,474.887c-56.485,-0 -102.343,45.858 -102.343,102.343c-0,56.484 45.858,102.342 102.343,102.342c56.484,0 102.343,-45.858 102.343,-102.342c-0,-56.485 -45.859,-102.343 -102.343,-102.343Zm-0,16.666c-47.286,0 -85.676,38.391 -85.676,85.677c-0,47.286 38.39,85.676 85.676,85.676c47.286,-0 85.676,-38.39 85.676,-85.676c0,-47.286 -38.39,-85.677 -85.676,-85.677Z"/><circle cx="1902.86" cy="577.23" r="85.676" style="fill:#fff;"/><path d="M1902.86,474.887c-56.485,-0 -102.343,45.858 -102.343,102.343c0,56.484 45.858,102.342 102.343,102.342c56.485,0 102.343,-45.858 102.343,-102.342c-0,-56.485 -45.858,-102.343 -102.343,-102.343Zm-0,16.666c-47.286,0 -85.676,38.391 -85.676,85.677c-0,47.286 38.39,85.676 85.676,85.676c47.286,-0 85.676,-38.39 85.676,-85.676c0,-47.286 -38.39,-85.677 -85.676,-85.677Z"/><circle cx="2074.21" cy="801.204" r="85.676" style="fill:#fff;"/><path d="M2074.21,698.861c-56.484,0 -102.342,45.859 -102.342,102.343c-0,56.485 45.858,102.343 102.342,102.343c56.485,0 102.343,-45.858 102.343,-102.343c0,-56.484 -45.858,-102.343 -102.343,-102.343Zm0,16.667c-47.286,0 -85.676,38.39 -85.676,85.676c0,47.286 38.39,85.676 85.676,85.676c47.286,0 85.677,-38.39 85.677,-85.676c-0,-47.286 -38.391,-85.676 -85.677,-85.676Z"/><circle cx="1731.51" cy="801.204" r="85.676" style="fill:#fff;"/><path d="M1731.51,698.861c-56.485,0 -102.343,45.859 -102.343,102.343c-0,56.485 45.858,102.343 102.343,102.343c56.484,0 102.342,-45.858 102.342,-102.343c0,-56.484 -45.858,-102.343 -102.342,-102.343Zm-0,16.667c-47.286,0 -85.677,38.39 -85.677,85.676c0,47.286 38.391,85.676 85.677,85.676c47.286,0 85.676,-38.39 85.676,-85.676c-0,-47.286 -38.39,-85.676 -85.676,-85.676Z"/><circle cx="2416.92" cy="784.677" r="85.676" style="fill:#fff;"/><path d="M2416.92,682.334c-56.484,0 -102.343,45.859 -102.343,102.343c0,56.485 45.859,102.343 102.343,102.343c56.485,0 102.343,-45.858 102.343,-102.343c0,-56.484 -45.858,-102.343 -102.343,-102.343Zm0,16.667c-47.286,0 -85.676,38.39 -85.676,85.676c0,47.286 38.39,85.677 85.676,85.677c47.286,-0 85.677,-38.391 85.677,-85.677c-0,-47.286 -38.391,-85.676 -85.677,-85.676Z"/></g><g><g><path d="M818.623,397.151l-171.352,223.975" style="fill:none;stroke:#000;stroke-width:16.67px;"/><path d="M647.271,621.126l171.352,223.974" style="fill:none;stroke:#000;stroke-width:16.67px;"/><path d="M989.976,173.176l171.352,223.975" style="fill:none;stroke:#000;stroke-width:16.67px;"/><path d="M647.271,621.126l-171.353,223.974" style="fill:none;stroke:#000;stroke-width:16.67px;"/><path d="M989.976,173.176l-171.353,223.975" style="fill:none;stroke:#000;stroke-width:16.67px;"/></g><circle cx="818.623" cy="397.151" r="85.676" style="fill:#fff;"/><path d="M818.623,294.808c-56.484,0 -102.343,45.858 -102.343,102.343c0,56.485 45.859,102.343 102.343,102.343c56.485,-0 102.343,-45.858 102.343,-102.343c0,-56.485 -45.858,-102.343 -102.343,-102.343Zm0,16.667c-47.286,-0 -85.676,38.39 -85.676,85.676c0,47.286 38.39,85.676 85.676,85.676c47.286,0 85.676,-38.39 85.676,-85.676c0,-47.286 -38.39,-85.676 -85.676,-85.676Z"/><circle cx="989.976" cy="173.176" r="85.676" style="fill:#fff;"/><path d="M989.976,70.833c-56.485,0 -102.343,45.859 -102.343,102.343c-0,56.485 45.858,102.343 102.343,102.343c56.484,0 102.343,-45.858 102.343,-102.343c-0,-56.484 -45.859,-102.343 -102.343,-102.343Zm-0,16.667c-47.286,0 -85.677,38.39 -85.677,85.676c0,47.286 38.391,85.676 85.677,85.676c47.286,0 85.676,-38.39 85.676,-85.676c-0,-47.286 -38.39,-85.676 -85.676,-85.676Z"/><circle cx="647.271" cy="621.126" r="85.676" style="fill:#fff;"/><path d="M647.271,518.783c-56.485,-0 -102.343,45.858 -102.343,102.343c-0,56.484 45.858,102.343 102.343,102.343c56.484,-0 102.343,-45.859 102.343,-102.343c-0,-56.485 -45.859,-102.343 -102.343,-102.343Zm-0,16.666c-47.286,0 -85.676,38.391 -85.676,85.677c-0,47.286 38.39,85.676 85.676,85.676c47.286,-0 85.676,-38.39 85.676,-85.676c0,-47.286 -38.39,-85.677 -85.676,-85.677Z"/><circle cx="818.623" cy="845.1" r="85.676" style="fill:#fff;"/><path d="M818.623,742.758c-56.484,-0 -102.343,45.858 -102.343,102.342c0,56.485 45.859,102.343 102.343,102.343c56.485,0 102.343,-45.858 102.343,-102.343c0,-56.484 -45.858,-102.342 -102.343,-102.342Zm0,16.666c-47.286,0 -85.676,38.39 -85.676,85.676c0,47.286 38.39,85.677 85.676,85.677c47.286,-0 85.676,-38.391 85.676,-85.677c0,-47.286 -38.39,-85.676 -85.676,-85.676Z"/><circle cx="475.918" cy="845.1" r="85.676" style="fill:#fff;"/><path d="M475.918,742.758c-56.484,-0 -102.343,45.858 -102.343,102.342c0,56.485 45.859,102.343 102.343,102.343c56.485,0 102.343,-45.858 102.343,-102.343c0,-56.484 -45.858,-102.342 -102.343,-102.342Zm0,16.666c-47.286,0 -85.676,38.39 -85.676,85.676c0,47.286 38.39,85.677 85.676,85.677c47.286,-0 85.677,-38.391 85.677,-85.677c-0,-47.286 -38.391,-85.676 -85.677,-85.676Z"/><circle cx="1161.33" cy="397.151" r="85.676" style="fill:#fff;"/><path d="M1161.33,294.808c-56.484,0 -102.343,45.858 -102.343,102.343c0,56.485 45.859,102.343 102.343,102.343c56.485,-0 102.343,-45.858 102.343,-102.343c0,-56.485 -45.858,-102.343 -102.343,-102.343Zm0,16.667c-47.286,-0 -85.676,38.39 -85.676,85.676c-0,47.286 38.39,85.676 85.676,85.676c47.286,0 85.676,-38.39 85.676,-85.676c0,-47.286 -38.39,-85.676 -85.676,-85.676Z"/></g><g><path d="M2825,524.901l0,-21.875l168.75,0l0,-20.312l31.25,31.25l-31.25,31.25l0,-20.313l-168.75,0Z"/><path d="M3052.61,524.901l-0,-21.875l149.472,0l0,-20.312l31.25,31.25l-31.25,31.25l0,-20.313l-149.472,0Z"/><path d="M2825,695.735l0,-21.875l168.75,-0l0,-20.313l31.25,31.25l-31.25,31.25l0,-20.312l-168.75,-0Z"/><path d="M2828.65,553.547l21.875,0l-0,60.417l20.312,-0l-31.25,31.25l-31.25,-31.25l20.313,-0l-0,-60.417Z"/><path d="M2828.65,553.547l21.875,0l-0,60.417l20.312,-0l-31.25,31.25l-31.25,-31.25l20.313,-0l-0,-60.417Z"/><path d="M3010.42,549.908l21.875,-0l0,60.417l20.313,-0l-31.25,31.25l-31.25,-31.25l20.312,-0l0,-60.417Z"/><path d="M2825,695.735l0,-21.875l168.75,-0l0,-20.313l31.25,31.25l-31.25,31.25l0,-20.312l-168.75,-0Z"/><path d="M2828.65,553.547l21.875,0l-0,60.417l20.312,-0l-31.25,31.25l-31.25,-31.25l20.313,-0l-0,-60.417Z"/><path d="M2828.65,724.38l21.875,0l-0,60.417l20.312,0l-31.25,31.25l-31.25,-31.25l20.313,0l-0,-60.417Z"/><path d="M3010.42,549.908l21.875,-0l0,60.417l20.313,-0l-31.25,31.25l-31.25,-31.25l20.312,-0l0,-60.417Z"/></g><g><g><rect x="3233.33" y="1965.83" width="1916.67" height="137.5" style="fill:#fff;"/><path d="M3216.67,1949.16l-0,170.834l1950,-0l-0,-170.834l-1950,0Zm16.666,154.167l1916.67,0l0,-137.5l-1916.67,0l0,137.5Z"/><path d="M5150,2103.33l0,-137.5" style="fill:none;stroke:#000;stroke-width:16.67px;"/><path d="M3233.33,2103.33l0,-137.5" style="fill:none;stroke:#000;stroke-width:16.67px;"/><path d="M4876.19,2103.33l0,-137.5" style="fill:none;stroke:#000;stroke-width:16.67px;"/><path d="M3780.95,2103.33l0,-137.5" style="fill:none;stroke:#000;stroke-width:16.67px;"/><path d="M4328.57,2103.33l0,-137.5" style="fill:none;stroke:#000;stroke-width:16.67px;"/><path d="M4054.76,2103.33l-0,-137.5" style="fill:none;stroke:#000;stroke-width:16.67px;"/><path d="M4602.38,2103.33l-0,-137.5" style="fill:none;stroke:#000;stroke-width:16.67px;"/><path d="M3507.14,2103.33l-0,-137.5" style="fill:none;stroke:#000;stroke-width:16.67px;"/></g><g><path d="M4191.58,2012.7c-0,0.601 -0.132,16.248 -0.132,16.248l21.675,0l-33.346,33.346l-33.346,-33.346l21.674,0c0,0 -0.132,-15.647 -0.132,-16.248c0,-157.764 127.893,-285.657 285.658,-285.657c157.764,-0 285.657,127.893 285.657,285.657c-0,6.514 -5.289,11.803 -11.803,11.803c-6.515,-0 -11.804,-5.289 -11.804,-11.803c0,-144.727 -117.324,-262.051 -262.05,-262.051c-144.727,-0 -262.051,117.324 -262.051,262.051Z" style="fill:#fff;"/><path d="M4204.08,2012.7c-0,-137.823 111.727,-249.551 249.551,-249.551c137.823,-0 249.55,111.728 249.55,249.551c0,13.413 10.89,24.303 24.304,24.303c13.413,-0 24.303,-10.89 24.303,-24.303c-0,-164.668 -133.49,-298.157 -298.157,-298.157c-164.668,-0 -298.158,133.489 -298.158,298.157c0,0.18 0.012,1.701 0.029,3.748c-0,0 -9.071,0 -9.071,0c-5.056,0 -9.614,3.046 -11.549,7.717c-1.935,4.671 -0.865,10.047 2.71,13.622l33.346,33.346c4.881,4.882 12.796,4.882 17.677,0l33.346,-33.346c3.575,-3.575 4.645,-8.951 2.71,-13.622c-1.935,-4.671 -6.493,-7.717 -11.548,-7.717l-9.072,0c0.017,-2.047 0.029,-3.568 0.029,-3.748Zm-12.5,-0c-0,0.601 -0.132,16.248 -0.132,16.248l21.675,0l-33.346,33.346l-33.346,-33.346l21.674,0c0,0 -0.132,-15.647 -0.132,-16.248c0,-157.764 127.893,-285.657 285.658,-285.657c157.764,-0 285.657,127.893 285.657,285.657c-0,6.514 -5.289,11.803 -11.803,11.803c-6.515,-0 -11.804,-5.289 -11.804,-11.803c0,-144.727 -117.324,-262.051 -262.05,-262.051c-144.727,-0 -262.051,117.324 -262.051,262.051Z"/><path d="M3948.52,1990.69c-0,0.868 -0.191,23.459 -0.191,23.459l31.294,0l-48.145,48.144l-48.144,-48.144l31.294,0c0,0 -0.191,-22.591 -0.191,-23.459c0,-227.776 184.649,-412.425 412.425,-412.425c227.776,0 412.425,184.649 412.425,412.425c-0,9.405 -7.636,17.041 -17.041,17.041c-9.406,0 -17.041,-7.636 -17.041,-17.041c-0,-208.953 -169.39,-378.343 -378.343,-378.343c-208.953,0 -378.342,169.39 -378.342,378.343Z" style="fill:#fff;"/><path d="M3961.02,1990.69c-0,-202.049 163.793,-365.843 365.842,-365.843c202.049,0 365.843,163.794 365.843,365.843c-0,16.304 13.236,29.541 29.541,29.541c16.304,0 29.541,-13.237 29.541,-29.541c-0,-234.679 -190.246,-424.925 -424.925,-424.925c-234.679,0 -424.925,190.246 -424.925,424.925c0,0.407 0.042,5.57 0.086,10.959c0,0 -18.689,0 -18.689,0c-5.055,0 -9.613,3.046 -11.548,7.717c-1.935,4.671 -0.865,10.047 2.709,13.622l48.145,48.144c4.881,4.882 12.796,4.882 17.677,0l48.144,-48.144c3.575,-3.575 4.645,-8.951 2.71,-13.622c-1.935,-4.671 -6.493,-7.717 -11.548,-7.717l-18.69,0c0.045,-5.389 0.087,-10.552 0.087,-10.959Zm-12.5,-0c-0,0.868 -0.191,23.459 -0.191,23.459l31.294,0l-48.145,48.144l-48.144,-48.144l31.294,0c0,0 -0.191,-22.591 -0.191,-23.459c0,-227.776 184.649,-412.425 412.425,-412.425c227.776,0 412.425,184.649 412.425,412.425c-0,9.405 -7.636,17.041 -17.041,17.041c-9.406,0 -17.041,-7.636 -17.041,-17.041c-0,-208.953 -169.39,-378.343 -378.343,-378.343c-208.953,0 -378.342,169.39 -378.342,378.343Z"/><path d="M3688.4,1990.69c0,0.868 -0.19,23.459 -0.19,23.459l31.294,0l-48.145,48.144l-48.144,-48.144l31.294,0c-0,0 -0.191,-22.591 -0.191,-23.459c0,-227.776 184.649,-412.425 412.425,-412.425c227.776,0 412.425,184.649 412.425,412.425c-0,9.405 -7.636,17.041 -17.041,17.041c-9.406,0 -17.041,-7.636 -17.041,-17.041c-0.001,-208.953 -169.39,-378.343 -378.343,-378.343c-208.953,0 -378.343,169.39 -378.343,378.343Z" style="fill:#fff;"/><path d="M3700.9,1990.69c0,-202.049 163.794,-365.843 365.843,-365.843c202.049,0 365.842,163.794 365.843,365.843c-0,16.304 13.236,29.541 29.541,29.541c16.304,0 29.541,-13.237 29.541,-29.541c-0,-234.679 -190.246,-424.925 -424.925,-424.925c-234.679,0 -424.925,190.246 -424.925,424.925c0,0.407 0.042,5.57 0.086,10.959c0,0 -18.689,0 -18.689,0c-5.055,0 -9.613,3.046 -11.548,7.717c-1.935,4.671 -0.866,10.047 2.709,13.622l48.145,48.144c4.881,4.882 12.796,4.882 17.677,0l48.144,-48.144c3.575,-3.575 4.645,-8.951 2.71,-13.622c-1.935,-4.671 -6.493,-7.717 -11.548,-7.717l-18.69,0c0.045,-5.389 0.086,-10.552 0.086,-10.959Zm-12.5,-0c0,0.868 -0.19,23.459 -0.19,23.459l31.294,0l-48.145,48.144l-48.144,-48.144l31.294,0c-0,0 -0.191,-22.591 -0.191,-23.459c0,-227.776 184.649,-412.425 412.425,-412.425c227.776,0 412.425,184.649 412.425,412.425c-0,9.405 -7.636,17.041 -17.041,17.041c-9.406,0 -17.041,-7.636 -17.041,-17.041c-0.001,-208.953 -169.39,-378.343 -378.343,-378.343c-208.953,0 -378.343,169.39 -378.343,378.343Z"/><path d="M3398.45,1963.3c0,1.201 -0.263,32.432 -0.263,32.432l43.262,0l-66.558,66.558l-66.558,-66.558l43.263,0c0,0 -0.263,-31.231 -0.263,-32.432c-0,-314.894 255.272,-570.167 570.167,-570.167c314.894,0 570.167,255.273 570.167,570.167c-0,13.003 -10.557,23.559 -23.559,23.559c-13.003,0 -23.559,-10.556 -23.559,-23.559c-0,-288.872 -234.177,-523.049 -523.049,-523.049c-288.873,0 -523.05,234.177 -523.05,523.049Z" style="fill:#fff;"/><path d="M3410.95,1963.3c0,-281.968 228.581,-510.549 510.55,-510.549c281.968,0 510.549,228.581 510.549,510.549c-0,19.902 16.157,36.059 36.059,36.059c19.901,0 36.059,-16.157 36.059,-36.059c-0,-321.798 -260.869,-582.667 -582.667,-582.667c-321.799,0 -582.667,260.869 -582.667,582.667c-0,0.684 0.085,11.074 0.158,19.932c0,0 -30.658,0 -30.658,0c-5.055,0 -9.613,3.046 -11.548,7.717c-1.935,4.671 -0.865,10.047 2.709,13.622l66.559,66.558c4.881,4.882 12.796,4.882 17.677,0l66.558,-66.558c3.575,-3.575 4.645,-8.951 2.71,-13.622c-1.935,-4.671 -6.493,-7.717 -11.549,-7.717l-30.657,0c0.073,-8.858 0.158,-19.248 0.158,-19.932Zm-12.5,0c0,1.201 -0.263,32.432 -0.263,32.432l43.262,0l-66.558,66.558l-66.558,-66.558l43.263,0c0,0 -0.263,-31.231 -0.263,-32.432c-0,-314.894 255.272,-570.167 570.167,-570.167c314.894,0 570.167,255.273 570.167,570.167c-0,13.003 -10.557,23.559 -23.559,23.559c-13.003,0 -23.559,-10.556 -23.559,-23.559c-0,-288.872 -234.177,-523.049 -523.049,-523.049c-288.873,0 -523.05,234.177 -523.05,523.049Z"/><path d="M4740.96,2027.27c-0,0.323 -0.071,8.744 -0.071,8.744l11.664,-0l-17.945,17.945l-17.945,-17.945l11.664,-0c0,-0 -0.071,-8.421 -0.071,-8.744c0,-84.902 68.826,-153.728 153.727,-153.728c84.901,0 153.727,68.826 153.727,153.728c0,3.505 -2.846,6.351 -6.352,6.351c-3.505,0 -6.351,-2.846 -6.351,-6.351c-0,-77.886 -63.139,-141.024 -141.024,-141.024c-77.885,0 -141.023,63.138 -141.023,141.024Z" style="fill:#fff;"/><path d="M4715.8,2023.54c-4.707,0.322 -8.862,3.281 -10.686,7.684c-1.935,4.671 -0.865,10.048 2.71,13.623l17.945,17.945c4.882,4.881 12.796,4.881 17.678,-0l17.945,-17.945c3.575,-3.575 4.644,-8.952 2.71,-13.623c-1.812,-4.373 -5.922,-7.321 -10.588,-7.679c1.964,-69.259 58.73,-124.805 128.469,-124.805c70.982,0 128.524,57.542 128.524,128.524c-0,10.404 8.447,18.851 18.851,18.851c10.405,0 18.852,-8.447 18.852,-18.851c0,-91.805 -74.422,-166.228 -166.227,-166.228c-90.556,0 -164.199,72.412 -166.183,162.504Zm25.16,3.724c-0,0.323 -0.071,8.744 -0.071,8.744l11.664,-0l-17.945,17.945l-17.945,-17.945l11.664,-0c0,-0 -0.071,-8.421 -0.071,-8.744c0,-84.902 68.826,-153.728 153.727,-153.728c84.901,0 153.727,68.826 153.727,153.728c0,3.505 -2.846,6.351 -6.352,6.351c-3.505,0 -6.351,-2.846 -6.351,-6.351c-0,-77.886 -63.139,-141.024 -141.024,-141.024c-77.885,0 -141.023,63.138 -141.023,141.024Z"/><path d="M4483.84,2013.37c-0,0.601 -0.132,16.248 -0.132,16.248l21.674,0l-33.346,33.346l-33.346,-33.346l21.675,0c0,0 -0.132,-15.647 -0.132,-16.248c0,-157.764 127.893,-285.657 285.657,-285.657c157.765,-0 285.658,127.893 285.658,285.657c-0,6.514 -5.289,11.803 -11.804,11.803c-6.514,0 -11.803,-5.289 -11.803,-11.803c0,-144.727 -117.324,-262.051 -262.051,-262.051c-144.726,0 -262.05,117.324 -262.05,262.051Z" style="fill:#fff;"/><path d="M4496.34,2013.37c-0,-137.823 111.727,-249.551 249.55,-249.551c137.824,0 249.551,111.728 249.551,249.551c0,13.413 10.89,24.303 24.303,24.303c13.414,0 24.304,-10.89 24.304,-24.303c-0,-164.668 -133.49,-298.157 -298.158,-298.157c-164.667,-0 -298.157,133.489 -298.157,298.157c0,0.18 0.012,1.701 0.029,3.748c-0,0 -9.072,0 -9.072,0c-5.055,0 -9.613,3.046 -11.548,7.717c-1.935,4.671 -0.865,10.047 2.71,13.622l33.346,33.346c4.881,4.882 12.796,4.882 17.677,0l33.346,-33.346c3.575,-3.575 4.645,-8.951 2.71,-13.622c-1.935,-4.671 -6.493,-7.717 -11.549,-7.717l-9.071,0c0.017,-2.047 0.029,-3.568 0.029,-3.748Zm-12.5,-0c-0,0.601 -0.132,16.248 -0.132,16.248l21.674,0l-33.346,33.346l-33.346,-33.346l21.675,0c0,0 -0.132,-15.647 -0.132,-16.248c0,-157.764 127.893,-285.657 285.657,-285.657c157.765,-0 285.658,127.893 285.658,285.657c-0,6.514 -5.289,11.803 -11.804,11.803c-6.514,0 -11.803,-5.289 -11.803,-11.803c0,-144.727 -117.324,-262.051 -262.051,-262.051c-144.726,0 -262.05,117.324 -262.05,262.051Z"/></g></g><path d="M1415.38,532.97l-0,44.26l-68.091,-68.092l68.091,-68.091l-0,44.259l173.722,0l0,-44.259l68.091,68.091l-68.091,68.092l0,-44.26l-173.722,0Z" style="fill:#fff;"/><path d="M1427.88,545.47l148.722,0c0,0 0,31.76 0,31.76c0,5.055 3.046,9.613 7.716,11.548c4.671,1.935 10.048,0.865 13.623,-2.71l68.091,-68.091c4.882,-4.881 4.882,-12.796 0,-17.677l-68.091,-68.092c-3.575,-3.575 -8.952,-4.644 -13.623,-2.709c-4.67,1.934 -7.716,6.492 -7.716,11.548l0,31.759c0,0 -148.722,0 -148.722,0c-0,0 -0,-31.759 -0,-31.759c-0,-5.056 -3.046,-9.614 -7.717,-11.548c-4.67,-1.935 -10.047,-0.866 -13.622,2.709l-68.091,68.092c-4.882,4.881 -4.882,12.796 -0,17.677l68.091,68.091c3.575,3.575 8.952,4.645 13.622,2.71c4.671,-1.935 7.717,-6.493 7.717,-11.548l-0,-31.76Zm-12.5,-12.5l-0,44.26l-68.091,-68.092l68.091,-68.091l-0,44.259l173.722,0l0,-44.259l68.091,68.091l-68.091,68.092l0,-44.26l-173.722,0Z"/><path d="M671.433,2003.78c-12.323,-0 -23.354,-2.385 -33.094,-7.156c-9.739,-4.77 -17.358,-11.462 -22.857,-20.075c-5.499,-8.613 -8.249,-18.352 -8.249,-29.217c0,-10.866 2.75,-20.572 8.249,-29.119c5.499,-8.546 13.118,-15.205 22.857,-19.975c9.74,-4.77 20.771,-7.156 33.094,-7.156c13.251,0 24.58,2.849 33.988,8.547c9.408,5.698 15.901,13.582 19.479,23.653l-34.783,17.093c-4.241,-9.54 -10.535,-14.311 -18.883,-14.311c-5.3,0 -9.706,1.855 -13.217,5.566c-3.512,3.71 -5.267,8.944 -5.267,15.702c-0,6.89 1.755,12.19 5.267,15.9c3.511,3.711 7.917,5.566 13.217,5.566c8.348,-0 14.642,-4.77 18.883,-14.311l34.783,17.093c-3.578,10.071 -10.071,17.955 -19.479,23.653c-9.408,5.698 -20.737,8.547 -33.988,8.547Z" style="fill:#fff;fill-rule:nonzero;stroke:#000;stroke-width:16.67px;stroke-linecap:butt;stroke-linejoin:round;stroke-miterlimit:2;"/><path d="M791.683,2003.78c-12.058,-0 -22.89,-2.419 -32.497,-7.255c-9.607,-4.837 -17.127,-11.528 -22.559,-20.075c-5.433,-8.547 -8.15,-18.253 -8.15,-29.118c0,-10.866 2.717,-20.572 8.15,-29.119c5.432,-8.546 12.952,-15.205 22.559,-19.975c9.607,-4.77 20.439,-7.156 32.497,-7.156c12.191,0 23.09,2.386 32.696,7.156c9.607,4.77 17.094,11.429 22.46,19.975c5.367,8.547 8.05,18.253 8.05,29.119c0,10.865 -2.683,20.571 -8.05,29.118c-5.366,8.547 -12.853,15.238 -22.46,20.075c-9.606,4.836 -20.505,7.255 -32.696,7.255Zm0,-34.982c5.168,-0 9.408,-1.888 12.721,-5.665c3.313,-3.776 4.969,-9.044 4.969,-15.801c-0,-6.758 -1.656,-11.992 -4.969,-15.702c-3.313,-3.711 -7.553,-5.566 -12.721,-5.566c-5.168,0 -9.408,1.855 -12.72,5.566c-3.313,3.71 -4.969,8.944 -4.969,15.702c-0,6.757 1.656,12.025 4.969,15.801c3.312,3.777 7.552,5.665 12.72,5.665Z" style="fill:#fff;fill-rule:nonzero;stroke:#000;stroke-width:16.67px;stroke-linecap:butt;stroke-linejoin:round;stroke-miterlimit:2;"/><path d="M1012.9,1891.08c13.118,0 23.619,4.042 31.503,12.125c7.884,8.083 11.827,20.273 11.827,36.572l-0,62.013l-44.92,0l-0,-54.262c-0,-12.455 -4.042,-18.683 -12.125,-18.683c-4.24,-0 -7.652,1.59 -10.236,4.77c-2.584,3.18 -3.876,8.216 -3.876,15.106l0,53.069l-44.92,0l0,-54.262c0,-12.455 -4.041,-18.683 -12.124,-18.683c-4.24,-0 -7.652,1.59 -10.236,4.77c-2.584,3.18 -3.876,8.216 -3.876,15.106l-0,53.069l-44.92,0l0,-108.722l42.734,0l-0,10.137c8.083,-8.083 18.352,-12.125 30.807,-12.125c7.288,0 13.847,1.359 19.678,4.075c5.83,2.716 10.6,6.857 14.311,12.423c4.372,-5.301 9.673,-9.375 15.9,-12.224c6.228,-2.849 13.052,-4.274 20.473,-4.274Z" style="fill:#fff;fill-rule:nonzero;stroke:#000;stroke-width:16.67px;stroke-linecap:butt;stroke-linejoin:round;stroke-miterlimit:2;"/><path d="M1148.26,1891.08c9.54,0 18.319,2.286 26.335,6.858c8.017,4.571 14.377,11.163 19.081,19.776c4.704,8.613 7.056,18.551 7.056,29.814c0,11.263 -2.352,21.168 -7.056,29.715c-4.704,8.547 -11.064,15.106 -19.081,19.677c-8.016,4.572 -16.795,6.858 -26.335,6.858c-12.058,-0 -21.268,-3.114 -27.628,-9.342l-0,45.914l-44.92,-0l0,-147.282l42.734,0l-0,8.944c6.492,-7.288 16.43,-10.932 29.814,-10.932Zm-10.733,77.716c5.167,-0 9.408,-1.855 12.72,-5.566c3.313,-3.71 4.969,-8.944 4.969,-15.702c0,-6.757 -1.656,-12.025 -4.969,-15.801c-3.312,-3.777 -7.553,-5.665 -12.72,-5.665c-5.168,0 -9.408,1.888 -12.721,5.665c-3.313,3.776 -4.969,9.044 -4.969,15.801c-0,6.758 1.656,11.992 4.969,15.702c3.313,3.711 7.553,5.566 12.721,5.566Z" style="fill:#fff;fill-rule:nonzero;stroke:#000;stroke-width:16.67px;stroke-linecap:butt;stroke-linejoin:round;stroke-miterlimit:2;"/><path d="M1333.7,1893.07l0,108.722l-42.733,0l-0,-10.336c-3.976,4.108 -8.613,7.189 -13.914,9.243c-5.3,2.054 -10.931,3.081 -16.894,3.081c-13.781,-0 -24.845,-4.207 -33.193,-12.622c-8.348,-8.414 -12.522,-21.101 -12.522,-38.062l-0,-60.026l44.92,0l-0,52.274c-0,7.42 1.192,12.721 3.577,15.901c2.386,3.18 5.897,4.77 10.535,4.77c4.373,0 8.016,-1.756 10.932,-5.267c2.915,-3.511 4.372,-9.044 4.372,-16.597l0,-51.081l44.92,0Z" style="fill:#fff;fill-rule:nonzero;stroke:#000;stroke-width:16.67px;stroke-linecap:butt;stroke-linejoin:round;stroke-miterlimit:2;"/><path d="M1433.68,1998.02c-6.758,3.842 -15.967,5.764 -27.628,5.764c-15.238,-0 -26.965,-3.677 -35.181,-11.032c-8.215,-7.354 -12.323,-18.385 -12.323,-33.093l0,-27.827l-14.907,0l0,-32.795l14.907,-0l0,-30.411l44.92,0l0,30.411l22.261,-0l0,32.795l-22.261,0l0,27.429c0,3.313 0.861,5.897 2.584,7.752c1.723,1.855 3.975,2.783 6.758,2.783c3.843,-0 7.222,-0.994 10.137,-2.982l10.733,31.206Z" style="fill:#fff;fill-rule:nonzero;stroke:#000;stroke-width:16.67px;stroke-linecap:butt;stroke-linejoin:round;stroke-miterlimit:2;"/><path d="M1557.71,1947.33c0,0.662 -0.198,4.174 -0.596,10.534l-75.529,-0c1.59,4.108 4.24,7.255 7.95,9.441c3.711,2.186 8.348,3.28 13.914,3.28c4.77,-0 8.778,-0.597 12.025,-1.789c3.246,-1.193 6.791,-3.247 10.633,-6.162l23.454,23.653c-10.6,11.66 -26.435,17.491 -47.504,17.491c-13.118,-0 -24.646,-2.419 -34.584,-7.255c-9.938,-4.837 -17.623,-11.561 -23.056,-20.174c-5.433,-8.613 -8.149,-18.286 -8.149,-29.019c-0,-10.866 2.683,-20.572 8.049,-29.119c5.367,-8.546 12.721,-15.205 22.063,-19.975c9.342,-4.77 19.843,-7.156 31.503,-7.156c10.999,0 21.036,2.187 30.113,6.56c9.076,4.372 16.298,10.799 21.665,19.279c5.366,8.481 8.049,18.618 8.049,30.411Zm-59.429,-25.64c-4.638,-0 -8.481,1.258 -11.528,3.776c-3.048,2.518 -5.035,6.095 -5.963,10.733l34.982,0c-0.928,-4.505 -2.915,-8.05 -5.963,-10.634c-3.048,-2.584 -6.89,-3.875 -11.528,-3.875Z" style="fill:#fff;fill-rule:nonzero;stroke:#000;stroke-width:16.67px;stroke-linecap:butt;stroke-linejoin:round;stroke-miterlimit:2;"/><path d="M1614.55,1904.8c7.95,-9.143 19.677,-13.715 35.18,-13.715l0,39.753c-3.577,-0.531 -6.89,-0.796 -9.938,-0.796c-15.37,0 -23.056,7.818 -23.056,23.454l0,48.299l-44.92,0l0,-108.722l42.734,0l-0,11.727Z" style="fill:#fff;fill-rule:nonzero;stroke:#000;stroke-width:16.67px;stroke-linecap:butt;stroke-linejoin:round;stroke-miterlimit:2;"/><path d="M1764.62,2003.78c-9.275,-0 -18.418,-0.994 -27.429,-2.982c-9.01,-1.987 -16.298,-4.571 -21.864,-7.751l12.324,-29.616c5.035,3.048 10.998,5.433 17.888,7.156c6.89,1.722 13.582,2.584 20.075,2.584c5.168,-0 8.778,-0.431 10.832,-1.292c2.054,-0.862 3.081,-2.154 3.081,-3.876c0,-1.723 -1.292,-2.915 -3.876,-3.578c-2.584,-0.662 -6.791,-1.325 -12.621,-1.988c-8.878,-1.06 -16.431,-2.418 -22.659,-4.074c-6.228,-1.656 -11.693,-4.87 -16.397,-9.64c-4.704,-4.77 -7.056,-11.594 -7.056,-20.472c-0,-7.023 2.12,-13.317 6.36,-18.883c4.24,-5.565 10.567,-10.004 18.982,-13.317c8.414,-3.312 18.517,-4.969 30.31,-4.969c8.216,0 16.266,0.762 24.15,2.286c7.884,1.524 14.609,3.743 20.174,6.659l-12.323,29.615c-9.541,-5.3 -20.009,-7.95 -31.404,-7.95c-9.806,-0 -14.709,1.722 -14.709,5.167c0,1.723 1.326,2.949 3.976,3.677c2.65,0.729 6.824,1.425 12.522,2.087c8.878,1.06 16.397,2.452 22.559,4.174c6.162,1.723 11.594,4.969 16.298,9.74c4.704,4.77 7.056,11.594 7.056,20.472c0,6.758 -2.12,12.919 -6.36,18.485c-4.24,5.565 -10.601,10.004 -19.081,13.317c-8.48,3.312 -18.75,4.969 -30.808,4.969Z" style="fill:#fff;fill-rule:nonzero;stroke:#000;stroke-width:16.67px;stroke-linecap:butt;stroke-linejoin:round;stroke-miterlimit:2;"/><path d="M1892.82,2003.78c-12.324,-0 -23.355,-2.385 -33.094,-7.156c-9.739,-4.77 -17.358,-11.462 -22.857,-20.075c-5.5,-8.613 -8.249,-18.352 -8.249,-29.217c-0,-10.866 2.749,-20.572 8.249,-29.119c5.499,-8.546 13.118,-15.205 22.857,-19.975c9.739,-4.77 20.77,-7.156 33.094,-7.156c13.25,0 24.58,2.849 33.988,8.547c9.408,5.698 15.901,13.582 19.478,23.653l-34.783,17.093c-4.24,-9.54 -10.534,-14.311 -18.882,-14.311c-5.3,0 -9.706,1.855 -13.218,5.566c-3.511,3.71 -5.267,8.944 -5.267,15.702c0,6.89 1.756,12.19 5.267,15.9c3.512,3.711 7.918,5.566 13.218,5.566c8.348,-0 14.642,-4.77 18.882,-14.311l34.783,17.093c-3.577,10.071 -10.07,17.955 -19.478,23.653c-9.408,5.698 -20.738,8.547 -33.988,8.547Z" style="fill:#fff;fill-rule:nonzero;stroke:#000;stroke-width:16.67px;stroke-linecap:butt;stroke-linejoin:round;stroke-miterlimit:2;"/><path d="M1956.62,1893.07l44.92,0l-0,108.722l-44.92,0l-0,-108.722Zm22.46,-8.745c-8.083,-0 -14.609,-2.154 -19.578,-6.46c-4.969,-4.307 -7.454,-9.773 -7.454,-16.398c0,-6.625 2.485,-12.091 7.454,-16.398c4.969,-4.306 11.495,-6.459 19.578,-6.459c8.215,-0 14.774,2.053 19.677,6.161c4.903,4.108 7.354,9.408 7.354,15.901c0,6.89 -2.451,12.555 -7.354,16.994c-4.903,4.439 -11.462,6.659 -19.677,6.659Z" style="fill:#fff;fill-rule:nonzero;stroke:#000;stroke-width:16.67px;stroke-linecap:butt;stroke-linejoin:round;stroke-miterlimit:2;"/><path d="M2137.09,1947.33c0,0.662 -0.198,4.174 -0.596,10.534l-75.529,-0c1.59,4.108 4.24,7.255 7.95,9.441c3.711,2.186 8.348,3.28 13.914,3.28c4.77,-0 8.778,-0.597 12.025,-1.789c3.246,-1.193 6.791,-3.247 10.633,-6.162l23.454,23.653c-10.6,11.66 -26.435,17.491 -47.504,17.491c-13.118,-0 -24.646,-2.419 -34.584,-7.255c-9.938,-4.837 -17.623,-11.561 -23.056,-20.174c-5.433,-8.613 -8.149,-18.286 -8.149,-29.019c-0,-10.866 2.683,-20.572 8.049,-29.119c5.367,-8.546 12.721,-15.205 22.063,-19.975c9.342,-4.77 19.843,-7.156 31.503,-7.156c10.998,0 21.036,2.187 30.113,6.56c9.076,4.372 16.298,10.799 21.665,19.279c5.366,8.481 8.049,18.618 8.049,30.411Zm-59.429,-25.64c-4.638,-0 -8.481,1.258 -11.528,3.776c-3.048,2.518 -5.035,6.095 -5.963,10.733l34.982,0c-0.928,-4.505 -2.915,-8.05 -5.963,-10.634c-3.048,-2.584 -6.89,-3.875 -11.528,-3.875Z" style="fill:#fff;fill-rule:nonzero;stroke:#000;stroke-width:16.67px;stroke-linecap:butt;stroke-linejoin:round;stroke-miterlimit:2;"/><path d="M2226.73,1891.08c13.384,0 24.15,4.042 32.299,12.125c8.149,8.083 12.224,20.273 12.224,36.572l-0,62.013l-44.92,0l-0,-54.262c-0,-12.455 -4.439,-18.683 -13.317,-18.683c-5.035,-0 -9.11,1.756 -12.224,5.267c-3.114,3.512 -4.671,9.044 -4.671,16.597l0,51.081l-44.92,0l0,-108.722l42.734,0l-0,10.733c4.24,-4.24 9.143,-7.42 14.708,-9.54c5.565,-2.121 11.594,-3.181 18.087,-3.181Z" style="fill:#fff;fill-rule:nonzero;stroke:#000;stroke-width:16.67px;stroke-linecap:butt;stroke-linejoin:round;stroke-miterlimit:2;"/><path d="M2351.16,2003.78c-12.323,-0 -23.354,-2.385 -33.093,-7.156c-9.739,-4.77 -17.359,-11.462 -22.858,-20.075c-5.499,-8.613 -8.248,-18.352 -8.248,-29.217c-0,-10.866 2.749,-20.572 8.248,-29.119c5.499,-8.546 13.119,-15.205 22.858,-19.975c9.739,-4.77 20.77,-7.156 33.093,-7.156c13.251,0 24.58,2.849 33.988,8.547c9.408,5.698 15.901,13.582 19.479,23.653l-34.783,17.093c-4.24,-9.54 -10.534,-14.311 -18.882,-14.311c-5.301,0 -9.706,1.855 -13.218,5.566c-3.511,3.71 -5.267,8.944 -5.267,15.702c-0,6.89 1.756,12.19 5.267,15.9c3.512,3.711 7.917,5.566 13.218,5.566c8.348,-0 14.642,-4.77 18.882,-14.311l34.783,17.093c-3.578,10.071 -10.071,17.955 -19.479,23.653c-9.408,5.698 -20.737,8.547 -33.988,8.547Z" style="fill:#fff;fill-rule:nonzero;stroke:#000;stroke-width:16.67px;stroke-linecap:butt;stroke-linejoin:round;stroke-miterlimit:2;"/><path d="M2529.64,1947.33c0,0.662 -0.198,4.174 -0.596,10.534l-75.529,-0c1.59,4.108 4.24,7.255 7.951,9.441c3.71,2.186 8.347,3.28 13.913,3.28c4.77,-0 8.778,-0.597 12.025,-1.789c3.246,-1.193 6.791,-3.247 10.633,-6.162l23.454,23.653c-10.6,11.66 -26.435,17.491 -47.504,17.491c-13.118,-0 -24.646,-2.419 -34.584,-7.255c-9.938,-4.837 -17.623,-11.561 -23.056,-20.174c-5.433,-8.613 -8.149,-18.286 -8.149,-29.019c-0,-10.866 2.683,-20.572 8.049,-29.119c5.367,-8.546 12.721,-15.205 22.063,-19.975c9.342,-4.77 19.843,-7.156 31.503,-7.156c10.999,0 21.036,2.187 30.113,6.56c9.076,4.372 16.298,10.799 21.665,19.279c5.366,8.481 8.049,18.618 8.049,30.411Zm-59.429,-25.64c-4.638,-0 -8.48,1.258 -11.528,3.776c-3.048,2.518 -5.035,6.095 -5.963,10.733l34.982,0c-0.928,-4.505 -2.915,-8.05 -5.963,-10.634c-3.048,-2.584 -6.89,-3.875 -11.528,-3.875Z" style="fill:#fff;fill-rule:nonzero;stroke:#000;stroke-width:16.67px;stroke-linecap:butt;stroke-linejoin:round;stroke-miterlimit:2;"/><path d="M2698.19,1859.88c18.684,0 35.28,3.81 49.79,11.429c14.509,7.619 25.772,17.988 33.789,31.106c8.017,13.118 12.025,27.627 12.025,43.528c0,12.191 -2.087,22.626 -6.261,31.305c-4.174,8.679 -9.805,15.238 -16.894,19.677c-7.09,4.439 -14.941,6.659 -23.554,6.659c-7.552,-0 -13.979,-1.458 -19.279,-4.373c-5.301,-2.915 -9.342,-7.221 -12.125,-12.919c-5.83,11.528 -15.901,17.292 -30.211,17.292c-7.288,-0 -14.145,-2.021 -20.572,-6.062c-6.427,-4.042 -11.628,-9.839 -15.603,-17.392c-3.975,-7.553 -5.963,-16.232 -5.963,-26.038c0,-9.805 1.955,-18.451 5.864,-25.938c3.909,-7.486 9.077,-13.25 15.503,-17.292c6.427,-4.041 13.35,-6.062 20.771,-6.062c10.468,-0 18.617,3.246 24.447,9.739l0,-7.95l38.162,-0l0,56.845c0,7.288 2.584,10.932 7.752,10.932c3.18,0 5.665,-2.054 7.453,-6.162c1.789,-4.107 2.684,-11.329 2.684,-21.664c-0,-11.926 -2.816,-22.527 -8.448,-31.802c-5.631,-9.276 -13.582,-16.53 -23.851,-21.764c-10.269,-5.234 -22.095,-7.851 -35.479,-7.851c-13.383,-0 -25.242,2.882 -35.578,8.646c-10.335,5.764 -18.352,13.714 -24.05,23.851c-5.698,10.137 -8.547,21.433 -8.547,33.889c0,12.853 2.816,24.348 8.448,34.485c5.631,10.136 13.549,18.054 23.752,23.751c10.203,5.698 21.93,8.547 35.18,8.547c13.914,0 27.297,-2.915 40.15,-8.745l8.348,24.447c-5.963,2.915 -13.35,5.234 -22.162,6.957c-8.812,1.722 -17.59,2.584 -26.336,2.584c-19.478,-0 -36.671,-4.009 -51.578,-12.025c-14.907,-8.017 -26.402,-19.015 -34.485,-32.995c-8.083,-13.979 -12.124,-29.648 -12.124,-47.006c-0,-17.094 4.074,-32.597 12.223,-46.51c8.15,-13.914 19.711,-24.912 34.684,-32.995c14.973,-8.083 32.332,-12.124 52.075,-12.124Zm-1.789,112.498c4.241,0 7.686,-1.59 10.336,-4.77c2.65,-3.18 3.975,-7.685 3.975,-13.516c0,-5.83 -1.325,-10.302 -3.975,-13.416c-2.65,-3.114 -6.095,-4.671 -10.336,-4.671c-4.24,0 -7.652,1.557 -10.236,4.671c-2.584,3.114 -3.876,7.586 -3.876,13.416c0,5.831 1.292,10.336 3.876,13.516c2.584,3.18 5.996,4.77 10.236,4.77Z" style="fill:#fff;fill-rule:nonzero;stroke:#000;stroke-width:16.67px;stroke-linecap:butt;stroke-linejoin:round;stroke-miterlimit:2;"/><path d="M2900.73,1899.04l-40.746,-0l0,-36.373l128.4,-0l-0,36.373l-40.746,-0l-0,102.759l-46.908,0l0,-102.759Z" style="fill:#fff;fill-rule:nonzero;stroke:#000;stroke-width:16.67px;stroke-linecap:butt;stroke-linejoin:round;stroke-miterlimit:2;"/><path d="M3067.49,1862.66c12.854,-0 24.05,2.12 33.591,6.36c9.54,4.24 16.895,10.336 22.062,18.286c5.168,7.95 7.752,17.226 7.752,27.826c0,10.601 -2.584,19.876 -7.752,27.827c-5.167,7.95 -12.522,14.046 -22.062,18.286c-9.541,4.24 -20.737,6.36 -33.591,6.36l-20.074,0l-0,34.187l-46.908,0l0,-139.132l66.982,-0Zm-2.981,68.771c6.36,-0 11.131,-1.425 14.311,-4.274c3.18,-2.848 4.77,-6.857 4.77,-12.025c-0,-5.167 -1.59,-9.176 -4.77,-12.025c-3.18,-2.848 -7.951,-4.273 -14.311,-4.273l-17.093,0l-0,32.597l17.093,-0Z" style="fill:#fff;fill-rule:nonzero;stroke:#000;stroke-width:16.67px;stroke-linecap:butt;stroke-linejoin:round;stroke-miterlimit:2;"/></svg>