<svg viewBox="0 0 1280 551" xmlns="http://www.w3.org/2000/svg" xml:space="preserve" style="fill-rule:evenodd;clip-rule:evenodd;stroke-linecap:round;stroke-miterlimit:1.5"><g id="Artboard1"><path style="fill:none" d="M0 196h1280v551H0z" transform="translate(0 -196)"/><path d="m328.125 722.25 368.75 160-86.75 60-145.415 6.893-88.585-21.086-48-205.807Z" style="fill:#fff" transform="translate(-273.682 -460.273)"/><path d="M329.319 719.498a3.001 3.001 0 0 0-4.116 3.433l48 205.808a3.003 3.003 0 0 0 2.227 2.237l88.586 21.085c.273.066.555.092.836.079l145.415-6.893a3 3 0 0 0 1.565-.53l86.75-60a3.002 3.002 0 0 0-.513-5.219l-368.75-160Zm-1.194 2.752 368.75 160-86.75 60-145.415 6.893-88.585-21.086-48-205.807Z" transform="translate(-273.682 -460.273)"/><path d="m337 512 48 205.807 90 21.423L619 732l86.75-60" style="fill:none" transform="translate(-282.557 -250.023)"/><g transform="translate(-273.682 -460.273)"><circle cx="328.125" cy="722.25" r="4.443"/><circle cx="328.125" cy="722.25" r="4.443" transform="translate(47.318 205.193)"/><circle cx="328.125" cy="722.25" r="4.443" transform="translate(137.318 227.23)"/><circle cx="328.125" cy="722.25" r="4.443" transform="translate(283.318 218.344)"/><circle cx="328.125" cy="722.25" r="4.443" transform="translate(368.75 161.193)"/><circle cx="328.125" cy="722.25" r="4.443" transform="translate(248.318 161.193)"/><circle cx="328.125" cy="722.25" r="4.443" transform="translate(116 182.979)"/><circle cx="328.125" cy="722.25" r="4.443" transform="translate(228 135.466)"/><circle cx="328.125" cy="722.25" r="4.443" transform="translate(84.318 113.615)"/><circle cx="328.125" cy="722.25" r="4.443" transform="translate(84.318 196.307)"/><circle cx="328.125" cy="722.25" r="4.443" transform="translate(146.203 152.307)"/><circle cx="328.125" cy="722.25" r="4.443" transform="translate(274.432 187.421)"/><circle cx="328.125" cy="722.25" r="4.443" transform="translate(202.318 104.729)"/></g><path d="M289 752.181v-6.716h112.883v-6.235l9.594 9.593-9.594 9.593v-6.235H289Z" style="fill:#fff" transform="rotate(76.942 435.628 390.324)"/><path d="M286 752.181a3 3 0 0 0 3 3h109.883v3.235a3 3 0 0 0 5.122 2.121l9.593-9.593a2.998 2.998 0 0 0 0-4.242l-9.593-9.594a3.002 3.002 0 0 0-5.122 2.122v3.235H289a3 3 0 0 0-3 3v6.716Zm3 0v-6.716h112.883v-6.235l9.594 9.593-9.594 9.593v-6.235H289Z" transform="rotate(76.942 435.628 390.324)"/><path d="M289 752.181v-6.716h107.269v-6.235l15.208 9.593-15.208 9.593v-6.235H289Z" style="fill:#fff" transform="matrix(.48247 .11555 -.18318 .76481 109.666 -121.034)"/><path d="M282.953 752.181c0 2.106 2.707 3.814 6.047 3.814h101.222v2.421c0 1.543 1.474 2.934 3.733 3.524 2.26.591 4.861.265 6.59-.826l15.208-9.594c2.361-1.489 2.361-3.905 0-5.394l-15.208-9.594c-1.729-1.091-4.33-1.417-6.59-.827-2.259.591-3.733 1.982-3.733 3.525v2.421H289c-3.34 0-6.047 1.708-6.047 3.814v6.716Zm6.047 0v-6.716h107.269v-6.235l15.208 9.593-15.208 9.593v-6.235H289Z" transform="matrix(.48247 .11555 -.18318 .76481 109.666 -121.034)"/><path style="fill:#fff" d="M472 233h415v374H472z" transform="matrix(.61446 0 0 .61446 104.976 120.683)"/><path d="M893.51 613.51V226.49H465.49v387.02h428.02ZM887 233H472v374h415V233Z" transform="matrix(.61446 0 0 .61446 104.976 120.683)"/><path style="fill:#fff" d="M472 233h415v374H472z" transform="matrix(.45159 0 0 .47604 181.85 152.935)"/><path d="M895.858 615.403V224.597H463.142v390.806h432.716ZM887 233H472v374h415V233Z" transform="matrix(.45159 0 0 .47604 181.85 152.935)"/><path style="fill:#fff" d="M472 233h415v374H472z" transform="matrix(.2258 0 0 .28342 288.425 197.814)"/><path d="M904.715 621.113V218.887h-450.43v402.226h450.43ZM887 233H472v374h415V233Z" transform="matrix(.2258 0 0 .28342 288.425 197.814)"/><path style="fill:#fff" d="M472 233h415v374H472z" transform="matrix(.2258 0 0 .3483 382.13 182.698)"/><path d="M904.715 618.484V221.516h-450.43v396.968h450.43ZM887 233H472v374h415V233Z" transform="matrix(.2258 0 0 .3483 382.13 182.698)"/><path style="fill:#fff" d="M472 233h415v374H472z" transform="matrix(.2258 0 0 .12116 382.13 368.344)"/><path d="M904.715 640.014V199.986h-450.43v440.028h450.43ZM887 233H472v374h415V233Z" transform="matrix(.2258 0 0 .12116 382.13 368.344)"/><path style="fill:#fff" d="M472 233h415v374H472z" transform="matrix(.05854 0 0 .11571 461.073 369.613)"/><path d="M955.326 641.568V198.432H403.674v443.136h551.652ZM887 233H472v374h415V233Z" transform="matrix(.05854 0 0 .11571 461.073 369.613)"/><path style="fill:#fff" d="M472 233h415v374H472z" transform="matrix(.15761 0 0 .11571 442.607 369.613)"/><path d="M912.379 641.568V198.432H446.621v443.136h465.758ZM887 233H472v374h415V233Z" transform="matrix(.15761 0 0 .11571 442.607 369.613)"/><path style="fill:#fff" d="M472 233h415v374H472z" transform="matrix(.15761 0 0 .06685 442.607 399.277)"/><path d="M912.379 666.84V173.16H446.621v493.68h465.758ZM887 233H472v374h415V233Z" transform="matrix(.15761 0 0 .06685 442.607 399.277)"/><path style="fill:#fff" d="M472 233h415v374H472z" transform="matrix(.08264 0 0 .34225 449.7 184.109)"/><path d="M935.403 618.687V221.312l-511.806.001v397.375l511.806-.001ZM887 233H472v374h415V233Z" transform="matrix(.08264 0 0 .34225 449.7 184.109)"/><path style="fill:#fff" d="M472 233h415v374H472z" transform="matrix(.45159 0 0 .13185 181.85 413.628)"/><path d="M895.858 637.338V202.662H463.142v434.676h432.716ZM887 233H472v374h415V233Z" transform="matrix(.45159 0 0 .13185 181.85 413.628)"/><g transform="matrix(.69527 0 0 .92987 445.686 -126.037)"><path style="fill:#fff" d="M314 244h338v262.402H314z"/><clipPath id="_clip1"><path d="M314 244h338v262.402H314z"/></clipPath><g clip-path="url('#_clip1')"><path d="M314 244v262.402" style="fill:none;stroke:#000;stroke-width:4.87px"/><path d="M314 244v262.402" style="fill:none;stroke:#000;stroke-width:4.87px" transform="translate(281.667)"/><path d="M314 244v262.402" style="fill:none;stroke:#000;stroke-width:4.87px" transform="translate(225.333)"/><path d="M314 244v262.402" style="fill:none;stroke:#000;stroke-width:4.87px" transform="translate(169)"/><path d="M314 244v262.402" style="fill:none;stroke:#000;stroke-width:4.87px" transform="translate(112.667)"/><path d="M314 244v262.402" style="fill:none;stroke:#000;stroke-width:4.87px" transform="translate(56.333)"/><path d="M314 244v262.402" style="fill:none;stroke:#000;stroke-width:4.87px" transform="translate(338)"/><path d="M314 244v262.402" style="fill:none;stroke:#000;stroke-width:4.38px" transform="matrix(0 -1 1.2881 0 -.296 689.201)"/><path d="M314 244v262.402" style="fill:none;stroke:#000;stroke-width:4.38px" transform="matrix(0 -1 1.2881 0 -.296 776.669)"/><path d="M314 244v262.402" style="fill:none;stroke:#000;stroke-width:4.38px" transform="matrix(0 -1 1.2881 0 -.296 732.935)"/><path d="M314 244v262.402" style="fill:none;stroke:#000;stroke-width:4.38px" transform="matrix(0 -1 1.2881 0 -.296 558)"/><path d="M314 244v262.402" style="fill:none;stroke:#000;stroke-width:4.38px" transform="matrix(0 -1 1.2881 0 -.296 645.467)"/><path d="M314 244v262.402" style="fill:none;stroke:#000;stroke-width:4.38px" transform="matrix(0 -1 1.2881 0 -.296 601.734)"/><path d="M314 244v262.402" style="fill:none;stroke:#000;stroke-width:4.38px" transform="matrix(0 -1 1.2881 0 -.296 820.402)"/></g><path d="M657.753 510.704V239.698H308.247v271.006h349.506ZM652 244H314v262.402h338V244Z"/></g><text x="40" y="645" style="fill:#fff;stroke:#000;stroke-width:7.41px;stroke-linecap:butt;stroke-linejoin:round;stroke-miterlimit:2;font-family:Montserrat-BlackItalic,Montserrat;font-size:488.616px;font-style:italic;font-weight:900" transform="translate(50.967 -96.124) scale(.8101)">TPC<tspan x="1081.24" y="645">S</tspan></text><g transform="matrix(.1878 -.4767 .4767 .1878 801.27 152.99)"><circle cx="134" cy="367.127" r="52.127" style="fill:#fff"/><path d="M134 307.193c-33.078 0-59.934 26.855-59.934 59.934 0 33.078 26.856 59.933 59.934 59.933 33.078 0 59.934-26.855 59.934-59.933 0-33.079-26.856-59.934-59.934-59.934Zm0 7.807c28.769 0 52.127 23.357 52.127 52.127 0 28.769-23.358 52.126-52.127 52.126-28.769 0-52.127-23.357-52.127-52.126C81.873 338.357 105.231 315 134 315Z"/></g><g transform="rotate(-68.497 530.888 -654.278) scale(.43678)"><circle cx="134" cy="367.127" r="52.127" style="fill:#fff"/><path d="M134 305.842c-33.824 0-61.285 27.461-61.285 61.285 0 33.823 27.461 61.284 61.285 61.284s61.285-27.461 61.285-61.284c0-33.824-27.461-61.285-61.285-61.285Zm0 9.158c28.769 0 52.127 23.357 52.127 52.127 0 28.769-23.358 52.126-52.127 52.126-28.769 0-52.127-23.357-52.127-52.126C81.873 338.357 105.231 315 134 315Z"/></g><g transform="matrix(.2185 -.5546 .5546 .2185 889.556 220.56)"><circle cx="134" cy="367.127" r="52.127" style="fill:#fff"/><path d="M134 308.29c-32.473 0-58.837 26.364-58.837 58.837s26.364 58.837 58.837 58.837 58.837-26.364 58.837-58.837S166.473 308.29 134 308.29Zm0 6.71c28.769 0 52.127 23.357 52.127 52.127 0 28.769-23.358 52.126-52.127 52.126-28.769 0-52.127-23.357-52.127-52.126C81.873 338.357 105.231 315 134 315Z"/></g><path d="M149.662 412.36v23.767L134 399.563 149.662 363v23.766H271v25.594H149.662Z" style="fill:#fff" transform="matrix(.37114 -.2537 .10867 .15898 941.845 109.262)"/><path d="M158.56 433.132H271c4.914 0 8.897-9.3 8.897-20.772v-25.594c0-11.471-3.983-20.771-8.897-20.771H158.56V363c0-8.401-2.168-15.975-5.493-19.19-3.325-3.215-7.152-1.438-9.696 4.503l-15.662 36.563c-3.475 8.112-3.475 21.263 0 29.375l15.662 36.563c2.544 5.94 6.371 7.718 9.696 4.503 3.325-3.215 5.493-10.789 5.493-19.19v-2.995Zm-8.898-20.772v23.767L134 399.563 149.662 363v23.766H271v25.594H149.662Z" transform="matrix(.37114 -.2537 .10867 .15898 941.845 109.262)"/><path d="M149.343 412.36v23.767L134 399.563 149.343 363v23.766H271v25.594H149.343Z" style="fill:#fff" transform="matrix(.0471 .45651 -.19156 .01976 1185.908 50.052)"/><path d="M158.058 433.132H271c4.814 0 8.716-9.3 8.716-20.772v-25.594c0-11.471-3.902-20.771-8.716-20.771H158.058V363c0-8.401-2.123-15.975-5.38-19.19-3.257-3.215-7.006-1.438-9.499 4.503l-15.342 36.563c-3.404 8.112-3.404 21.263 0 29.375l15.342 36.563c2.493 5.94 6.242 7.718 9.499 4.503 3.257-3.215 5.38-10.789 5.38-19.19v-2.995Zm-8.715-20.772v23.767L134 399.563 149.343 363v23.766H271v25.594H149.343Z" transform="matrix(.0471 .45651 -.19156 .01976 1185.908 50.052)"/><path d="m640 284-46 60.127" style="fill:none;stroke:#000;stroke-width:4.47px" transform="matrix(-.89401 0 0 .89401 1069.98 -169.119)"/><path d="m640 284-46 60.127" style="fill:none;stroke:#000;stroke-width:4.47px" transform="matrix(.89401 0 0 .89401 -74.357 -169.119)"/><path d="m640 284-46 60.127" style="fill:none;stroke:#000;stroke-width:4.47px" transform="matrix(-.89401 0 0 .89401 1028.855 -115.365)"/><path d="m640 284-46 60.127" style="fill:none;stroke:#000;stroke-width:4.47px" transform="matrix(.89401 0 0 .89401 -115.481 -115.365)"/><path d="m640 284-46 60.127" style="fill:none;stroke:#000;stroke-width:4.47px" transform="matrix(-.89401 0 0 .89401 1111.105 -119.331)"/><g transform="matrix(-.73437 0 0 .73437 967.807 -123.78)"><circle cx="640" cy="284" r="28" style="fill:#fff"/><path d="M640 250.553c18.46 0 33.447 14.987 33.447 33.447S658.46 317.447 640 317.447 606.553 302.46 606.553 284 621.54 250.553 640 250.553Zm0 5.447c15.454 0 28 12.546 28 28s-12.546 28-28 28-28-12.546-28-28 12.546-28 28-28Z"/></g><g transform="matrix(-.73437 0 0 .73437 1008.932 -70.025)"><circle cx="640" cy="284" r="28" style="fill:#fff"/><path d="M640 250.553c18.46 0 33.447 14.987 33.447 33.447S658.46 317.447 640 317.447 606.553 302.46 606.553 284 621.54 250.553 640 250.553Zm0 5.447c15.454 0 28 12.546 28 28s-12.546 28-28 28-28-12.546-28-28 12.546-28 28-28Z"/></g><g transform="matrix(-.73437 0 0 .73437 926.682 -70.025)"><circle cx="640" cy="284" r="28" style="fill:#fff"/><path d="M640 250.553c18.46 0 33.447 14.987 33.447 33.447S658.46 317.447 640 317.447 606.553 302.46 606.553 284 621.54 250.553 640 250.553Zm0 5.447c15.454 0 28 12.546 28 28s-12.546 28-28 28-28-12.546-28-28 12.546-28 28-28Z"/></g><g transform="matrix(-.73437 0 0 .73437 967.807 -16.272)"><circle cx="640" cy="284" r="28" style="fill:#fff"/><path d="M640 250.553c18.46 0 33.447 14.987 33.447 33.447S658.46 317.447 640 317.447 606.553 302.46 606.553 284 621.54 250.553 640 250.553Zm0 5.447c15.454 0 28 12.546 28 28s-12.546 28-28 28-28-12.546-28-28 12.546-28 28-28Z"/></g><g transform="matrix(-.73437 0 0 .73437 885.558 -16.272)"><circle cx="640" cy="284" r="28" style="fill:#fff"/><path d="M640 250.553c18.46 0 33.447 14.987 33.447 33.447S658.46 317.447 640 317.447 606.553 302.46 606.553 284 621.54 250.553 640 250.553Zm0 5.447c15.454 0 28 12.546 28 28s-12.546 28-28 28-28-12.546-28-28 12.546-28 28-28Z"/></g><g transform="matrix(-.73437 0 0 .73437 1050.056 -20.238)"><circle cx="640" cy="284" r="28" style="fill:#fff"/><path d="M640 250.553c18.46 0 33.447 14.987 33.447 33.447S658.46 317.447 640 317.447 606.553 302.46 606.553 284 621.54 250.553 640 250.553Zm0 5.447c15.454 0 28 12.546 28 28s-12.546 28-28 28-28-12.546-28-28 12.546-28 28-28Z"/></g><path d="m640 284-46 60.127" style="fill:none;stroke:#000;stroke-width:4.47px" transform="matrix(.89401 0 0 .89401 -375.699 -158.583)"/><path d="m640 284-46 60.127" style="fill:none;stroke:#000;stroke-width:4.47px" transform="matrix(-.89401 0 0 .89401 727.513 -104.83)"/><path d="m640 284-46 60.127" style="fill:none;stroke:#000;stroke-width:4.47px" transform="matrix(-.89401 0 0 .89401 809.763 -212.337)"/><path d="m640 284-46 60.127" style="fill:none;stroke:#000;stroke-width:4.47px" transform="matrix(.89401 0 0 .89401 -416.823 -104.83)"/><path d="m640 284-46 60.127" style="fill:none;stroke:#000;stroke-width:4.47px" transform="matrix(.89401 0 0 .89401 -334.574 -212.337)"/><g transform="matrix(-.73437 0 0 .73437 666.465 -113.244)"><circle cx="640" cy="284" r="28" style="fill:#fff"/><path d="M640 250.553c18.46 0 33.447 14.987 33.447 33.447S658.46 317.447 640 317.447 606.553 302.46 606.553 284 621.54 250.553 640 250.553Zm0 5.447c15.454 0 28 12.546 28 28s-12.546 28-28 28-28-12.546-28-28 12.546-28 28-28Z"/></g><g transform="matrix(-.73437 0 0 .73437 707.59 -166.998)"><circle cx="640" cy="284" r="28" style="fill:#fff"/><path d="M640 250.553c18.46 0 33.447 14.987 33.447 33.447S658.46 317.447 640 317.447 606.553 302.46 606.553 284 621.54 250.553 640 250.553Zm0 5.447c15.454 0 28 12.546 28 28s-12.546 28-28 28-28-12.546-28-28 12.546-28 28-28Z"/></g><g transform="matrix(-.73437 0 0 .73437 625.34 -59.49)"><circle cx="640" cy="284" r="28" style="fill:#fff"/><path d="M640 250.553c18.46 0 33.447 14.987 33.447 33.447S658.46 317.447 640 317.447 606.553 302.46 606.553 284 621.54 250.553 640 250.553Zm0 5.447c15.454 0 28 12.546 28 28s-12.546 28-28 28-28-12.546-28-28 12.546-28 28-28Z"/></g><g transform="matrix(-.73437 0 0 .73437 666.465 -5.737)"><circle cx="640" cy="284" r="28" style="fill:#fff"/><path d="M640 250.553c18.46 0 33.447 14.987 33.447 33.447S658.46 317.447 640 317.447 606.553 302.46 606.553 284 621.54 250.553 640 250.553Zm0 5.447c15.454 0 28 12.546 28 28s-12.546 28-28 28-28-12.546-28-28 12.546-28 28-28Z"/></g><g transform="matrix(-.73437 0 0 .73437 584.216 -5.737)"><circle cx="640" cy="284" r="28" style="fill:#fff"/><path d="M640 250.553c18.46 0 33.447 14.987 33.447 33.447S658.46 317.447 640 317.447 606.553 302.46 606.553 284 621.54 250.553 640 250.553Zm0 5.447c15.454 0 28 12.546 28 28s-12.546 28-28 28-28-12.546-28-28 12.546-28 28-28Z"/></g><g transform="matrix(-.73437 0 0 .73437 748.714 -113.244)"><circle cx="640" cy="284" r="28" style="fill:#fff"/><path d="M640 250.553c18.46 0 33.447 14.987 33.447 33.447S658.46 317.447 640 317.447 606.553 302.46 606.553 284 621.54 250.553 640 250.553Zm0 5.447c15.454 0 28 12.546 28 28s-12.546 28-28 28-28-12.546-28-28 12.546-28 28-28Z"/></g><path d="M670 348.725v-2.45h59.063V344L740 347.5l-10.937 3.5v-2.275H670Z" transform="matrix(.68571 0 0 2.14286 218.571 -621.292)"/><path d="M670 348.725v-2.45h57.896V344L740 347.5l-12.104 3.5v-2.275H670Z" transform="matrix(.61962 0 0 2.14286 317.481 -621.292)"/><path d="M670 348.725v-2.45h59.063V344L740 347.5l-10.937 3.5v-2.275H670Z" transform="matrix(.68571 0 0 2.14286 218.571 -580.292)"/><path d="M670 348.725v-2.45h46.136V344L740 347.5l-23.864 3.5v-2.275H670Z" transform="matrix(0 .31429 -2.14286 0 1426.14 -77.72)"/><path d="M670 348.725v-2.45h46.136V344L740 347.5l-23.864 3.5v-2.275H670Z" transform="matrix(0 .31429 -2.14286 0 1426.14 -77.72)"/><path d="M670 348.725v-2.45h46.136V344L740 347.5l-23.864 3.5v-2.275H670Z" transform="matrix(0 .31429 -2.14286 0 1469.77 -78.594)"/><path d="M670 348.725v-2.45h59.063V344L740 347.5l-10.937 3.5v-2.275H670Z" transform="matrix(.68571 0 0 2.14286 218.571 -580.292)"/><path d="M670 348.725v-2.45h46.136V344L740 347.5l-23.864 3.5v-2.275H670Z" transform="matrix(0 .31429 -2.14286 0 1426.14 -77.72)"/><path d="M670 348.725v-2.45h46.136V344L740 347.5l-23.864 3.5v-2.275H670Z" transform="matrix(0 .31429 -2.14286 0 1426.14 -36.72)"/><path d="M670 348.725v-2.45h46.136V344L740 347.5l-23.864 3.5v-2.275H670Z" transform="matrix(0 .31429 -2.14286 0 1469.77 -78.594)"/><path style="fill:#fff" d="M692 637h460v33H692z" transform="rotate(-180 964 570.898)"/><path d="M1156 674v-41H688v41h468Zm-4-37H692v33h460v-33Z" transform="rotate(-180 964 570.898)"/><path d="M684 602.904v33M1144 602.904v33" style="fill:none;stroke:#000;stroke-width:4px" transform="rotate(-180 960 553.85)"/><path d="M684 602.904v33" style="fill:none;stroke:#000;stroke-width:4px" transform="rotate(-180 927.143 553.85)"/><path d="M1144 602.904v33" style="fill:none;stroke:#000;stroke-width:4px" transform="rotate(-180 1025.715 553.85)"/><path d="M684 602.904v33" style="fill:none;stroke:#000;stroke-width:4px" transform="rotate(-180 861.428 553.85)"/><path d="M1144 602.904v33" style="fill:none;stroke:#000;stroke-width:4px" transform="rotate(-180 1058.572 553.85)"/><path d="M684 602.904v33" style="fill:none;stroke:#000;stroke-width:4px" transform="rotate(-180 894.285 553.85)"/><path d="M1144 602.904v33" style="fill:none;stroke:#000;stroke-width:4px" transform="rotate(-180 992.857 553.85)"/><path d="m794.118 619.404.022-2.754h-3.672l5.65-5.65 5.65 5.65h-3.672l.022 2.754c0 26.732-21.671 48.403-48.404 48.403-26.732 0-48.403-21.671-48.403-48.403a2 2 0 0 1 4 0c0 24.523 19.88 44.403 44.403 44.403 24.524 0 44.404-19.88 44.404-44.403Z" style="fill:#fff" transform="rotate(-180 1065.374 680.176) scale(1.41638)"/><path d="M792 619.404c0 23.353-18.932 42.285-42.286 42.285-23.353 0-42.285-18.932-42.285-42.285a4.12 4.12 0 0 0-4.118-4.118 4.12 4.12 0 0 0-4.118 4.118c0 27.902 22.619 50.521 50.521 50.521 27.903 0 50.522-22.619 50.522-50.521l-.005-.636h1.537a2.118 2.118 0 0 0 1.498-3.615l-5.65-5.651a2.12 2.12 0 0 0-2.996 0l-5.65 5.651a2.116 2.116 0 0 0 1.498 3.615h1.537l-.005.636Zm2.118 0 .022-2.754h-3.672l5.65-5.65 5.65 5.65h-3.672l.022 2.754c0 26.732-21.671 48.403-48.404 48.403-26.732 0-48.403-21.671-48.403-48.403a2 2 0 0 1 4 0c0 24.523 19.88 44.403 44.403 44.403 24.524 0 44.404-19.88 44.404-44.403Z" transform="rotate(-180 1065.374 680.176) scale(1.41638)"/><path d="m794.118 619.404.022-2.754h-3.672l5.65-5.65 5.65 5.65h-3.672l.022 2.754c0 26.732-21.671 48.403-48.404 48.403-26.732 0-48.403-21.671-48.403-48.403a2 2 0 0 1 4 0c0 24.523 19.88 44.403 44.403 44.403 24.524 0 44.404-19.88 44.404-44.403Z" style="fill:#fff" transform="rotate(-180 1285.78 872.199) scale(2.04493)"/><path d="M792.651 619.404c0 23.713-19.224 42.936-42.937 42.936-23.713 0-42.936-19.223-42.936-42.936a3.468 3.468 0 0 0-6.934 0c0 27.542 22.327 49.87 49.87 49.87 27.543 0 49.871-22.328 49.871-49.87l-.01-1.287h2.193a1.467 1.467 0 0 0 1.038-2.504l-5.651-5.65a1.466 1.466 0 0 0-2.074 0l-5.651 5.65a1.467 1.467 0 0 0 1.038 2.504h2.193l-.01 1.287Zm1.467 0 .022-2.754h-3.672l5.65-5.65 5.65 5.65h-3.672l.022 2.754c0 26.732-21.671 48.403-48.404 48.403-26.732 0-48.403-21.671-48.403-48.403a2 2 0 0 1 4 0c0 24.523 19.88 44.403 44.403 44.403 24.524 0 44.404-19.88 44.404-44.403Z" transform="rotate(-180 1285.78 872.199) scale(2.04493)"/><path d="m794.118 619.404.022-2.754h-3.672l5.65-5.65 5.65 5.65h-3.672l.022 2.754c0 26.732-21.671 48.403-48.404 48.403-26.732 0-48.403-21.671-48.403-48.403a2 2 0 0 1 4 0c0 24.523 19.88 44.403 44.403 44.403 24.524 0 44.404-19.88 44.404-44.403Z" style="fill:#fff" transform="rotate(-180 1254.565 872.199) scale(2.04493)"/><path d="M792.651 619.404c0 23.713-19.224 42.936-42.937 42.936-23.713 0-42.936-19.223-42.936-42.936a3.468 3.468 0 0 0-6.934 0c0 27.542 22.327 49.87 49.87 49.87 27.543 0 49.871-22.328 49.871-49.87l-.01-1.287h2.193a1.467 1.467 0 0 0 1.038-2.504l-5.651-5.65a1.466 1.466 0 0 0-2.074 0l-5.651 5.65a1.467 1.467 0 0 0 1.038 2.504h2.193l-.01 1.287Zm1.467 0 .022-2.754h-3.672l5.65-5.65 5.65 5.65h-3.672l.022 2.754c0 26.732-21.671 48.403-48.404 48.403-26.732 0-48.403-21.671-48.403-48.403a2 2 0 0 1 4 0c0 24.523 19.88 44.403 44.403 44.403 24.524 0 44.404-19.88 44.404-44.403Z" transform="rotate(-180 1254.565 872.199) scale(2.04493)"/><path d="m794.118 619.404.022-2.754h-3.672l5.65-5.65 5.65 5.65h-3.672l.022 2.754c0 26.732-21.671 48.403-48.404 48.403-26.732 0-48.403-21.671-48.403-48.403a2 2 0 0 1 4 0c0 24.523 19.88 44.403 44.403 44.403 24.524 0 44.404-19.88 44.404-44.403Z" style="fill:#fff" transform="rotate(-180 1530.325 1111.14) scale(2.82706)"/><path d="M793.057 619.404c0 23.937-19.405 43.342-43.343 43.342-23.937 0-43.342-19.405-43.342-43.342a3.063 3.063 0 0 0-3.061-3.062 3.063 3.063 0 0 0-3.062 3.062c.001 27.318 22.147 49.464 49.465 49.464 27.319 0 49.465-22.146 49.465-49.464l-.013-1.692h2.602a1.063 1.063 0 0 0 .751-1.812l-5.651-5.65a1.06 1.06 0 0 0-1.5 0l-5.651 5.65a1.062 1.062 0 0 0 .751 1.812h2.602l-.013 1.692Zm1.061 0 .022-2.754h-3.672l5.65-5.65 5.65 5.65h-3.672l.022 2.754c0 26.732-21.671 48.403-48.404 48.403-26.732 0-48.403-21.671-48.403-48.403a2 2 0 0 1 4 0c0 24.523 19.88 44.403 44.403 44.403 24.524 0 44.404-19.88 44.404-44.403Z" transform="rotate(-180 1530.325 1111.14) scale(2.82706)"/><path d="m794.118 619.404.022-2.754h-3.672l5.65-5.65 5.65 5.65h-3.672l.022 2.754c0 26.732-21.671 48.403-48.404 48.403-26.732 0-48.403-21.671-48.403-48.403a2 2 0 0 1 4 0c0 24.523 19.88 44.403 44.403 44.403 24.524 0 44.404-19.88 44.404-44.403Z" style="fill:#fff" transform="matrix(-.76223 0 0 -.76223 1743.129 958.667)"/><path d="M802.04 620.576a3.935 3.935 0 0 0 2.511-6.709l-5.65-5.65a3.936 3.936 0 0 0-5.566 0l-5.651 5.65a3.936 3.936 0 0 0 2.481 6.707c-.618 21.808-18.492 39.297-40.451 39.297-22.349 0-40.467-18.118-40.467-40.467a5.939 5.939 0 0 0-5.936-5.936 5.939 5.939 0 0 0-5.936 5.936c0 28.906 23.433 52.339 52.339 52.339 28.513 0 51.701-22.8 52.326-51.167Zm-7.922-1.172.022-2.754h-3.672l5.65-5.65 5.65 5.65h-3.672l.022 2.754c0 26.732-21.671 48.403-48.404 48.403-26.732 0-48.403-21.671-48.403-48.403a2 2 0 0 1 4 0c0 24.523 19.88 44.403 44.403 44.403 24.524 0 44.404-19.88 44.404-44.403Z" transform="matrix(-.76223 0 0 -.76223 1743.129 958.667)"/><path d="m794.118 619.404.022-2.754h-3.672l5.65-5.65 5.65 5.65h-3.672l.022 2.754c0 26.732-21.671 48.403-48.404 48.403-26.732 0-48.403-21.671-48.403-48.403a2 2 0 0 1 4 0c0 24.523 19.88 44.403 44.403 44.403 24.524 0 44.404-19.88 44.404-44.403Z" style="fill:#fff" transform="rotate(-180 1100.446 680.257) scale(1.41638)"/><path d="M792 619.404c0 23.353-18.932 42.285-42.286 42.285-23.353 0-42.285-18.932-42.285-42.285a4.12 4.12 0 0 0-4.118-4.118 4.12 4.12 0 0 0-4.118 4.118c0 27.902 22.619 50.521 50.521 50.521 27.903 0 50.522-22.619 50.522-50.521l-.005-.636h1.537a2.118 2.118 0 0 0 1.498-3.615l-5.65-5.651a2.12 2.12 0 0 0-2.996 0l-5.65 5.651a2.116 2.116 0 0 0 1.498 3.615h1.537l-.005.636Zm2.118 0 .022-2.754h-3.672l5.65-5.65 5.65 5.65h-3.672l.022 2.754c0 26.732-21.671 48.403-48.404 48.403-26.732 0-48.403-21.671-48.403-48.403a2 2 0 0 1 4 0c0 24.523 19.88 44.403 44.403 44.403 24.524 0 44.404-19.88 44.404-44.403Z" transform="rotate(-180 1100.446 680.257) scale(1.41638)"/><path d="M302.29 362.062v10.622L279 356.342 302.29 340v10.622h59.42V340L385 356.342l-23.29 16.342v-10.622h-59.42Z" style="fill:#fff" transform="matrix(.70167 0 0 1 127.583 -234.149)"/><path d="M306.565 365.062h50.87v7.622c0 1.213 1.041 2.307 2.639 2.771 1.598.465 3.436.208 4.659-.65l23.29-16.342c1.67-1.171 1.67-3.071 0-4.242l-23.29-16.342c-1.223-.858-3.061-1.115-4.659-.651-1.598.465-2.639 1.559-2.639 2.772v7.622h-50.87V340c0-1.213-1.041-2.307-2.639-2.772-1.598-.464-3.436-.207-4.659.651l-23.29 16.342c-1.67 1.171-1.67 3.071 0 4.242l23.29 16.342c1.223.858 3.061 1.115 4.659.65 1.598-.464 2.639-1.558 2.639-2.771v-7.622Zm-4.275-3v10.622L279 356.342 302.29 340v10.622h59.42V340L385 356.342l-23.29 16.342v-10.622h-59.42Z" transform="matrix(.70167 0 0 1 127.583 -234.149)"/><text x="210" y="511" style="fill:#fff;stroke:#000;stroke-width:4.52px;stroke-linecap:butt;stroke-linejoin:round;stroke-miterlimit:2;font-family:Montserrat-Black,Montserrat;font-size:53.908px;font-weight:900" transform="translate(-22.17 28.256) scale(.88488)">c<tspan x="242.884" y="511">o</tspan>din<tspan x="373.396" y="511">g</tspan> club @ TP</text></g></svg>