<svg viewBox="0 0 5334 2296" xmlns="http://www.w3.org/2000/svg" xml:space="preserve" style="fill-rule:evenodd;clip-rule:evenodd;stroke-linecap:round;stroke-miterlimit:1.5"><path id="Artboard1" style="fill:none" d="M0 0h5333.33v2295.83H0z"/><path d="m226.845 1091.57 1536.46 666.667-361.458 250-605.895 28.72-369.105-87.857-200-857.53Z" style="fill:#fff"/><path d="M231.821 1080.1a12.502 12.502 0 0 0-17.149 14.306l200 857.53a12.498 12.498 0 0 0 9.279 9.321l369.105 87.857c1.141.272 2.314.382 3.486.326l605.895-28.72a12.502 12.502 0 0 0 6.519-2.206l361.458-250a12.5 12.5 0 0 0-2.135-21.747L231.819 1080.1Zm-4.976 11.467 1536.46 666.667-361.458 250-605.895 28.72-369.105-87.857-200-857.53Z"/><path d="m226.845 1091.57 200 857.53 375 89.26 600-30.123 361.458-250" style="fill:none"/><circle cx="226.845" cy="1091.57" r="18.512"/><circle cx="424.003" cy="1946.54" r="18.512"/><circle cx="799.003" cy="2038.36" r="18.512"/><circle cx="1407.34" cy="2001.34" r="18.512"/><circle cx="1763.3" cy="1763.21" r="18.512"/><circle cx="1261.5" cy="1763.21" r="18.512"/><circle cx="710.178" cy="1853.98" r="18.512"/><circle cx="1176.85" cy="1656.01" r="18.512"/><circle cx="578.169" cy="1564.97" r="18.512"/><circle cx="578.169" cy="1909.52" r="18.512"/><circle cx="836.026" cy="1726.18" r="18.512"/><circle cx="1370.31" cy="1872.49" r="18.512"/><circle cx="1069.84" cy="1527.94" r="18.512"/><path d="m208.333 1371.85 27.257-6.322 106.269 458.185 25.31-5.87-29.908 47.969-47.969-29.907 25.31-5.87-106.269-458.185Z" style="fill:#fff"/><path d="M205.509 1359.67c-6.725 1.56-10.912 8.276-9.352 15.001l103.444 446.008-13.133 3.046a12.5 12.5 0 0 0-3.789 22.785l47.969 29.907c5.858 3.652 13.568 1.864 17.221-3.994l29.907-47.97a12.5 12.5 0 0 0-13.432-18.79l-13.133 3.046-103.444-446.008c-1.56-6.725-8.276-10.912-15.001-9.353l-27.257 6.322Zm2.824 12.177 27.257-6.322 106.269 458.185 25.31-5.87-29.908 47.969-47.969-29.907 25.31-5.87-106.269-458.185Z"/><path d="m463.824 2031.81 5.126-21.4 215.641 51.647 4.76-19.871 23.249 37.893-37.893 23.249 4.759-19.871-215.642-51.647Z" style="fill:#fff"/><path d="M451.668 2028.9c-1.608 6.714 2.531 13.46 9.245 15.068l203.485 48.736-1.847 7.715a12.5 12.5 0 0 0 18.693 13.565l37.893-23.249c5.884-3.61 7.727-11.307 4.117-17.191l-23.249-37.893a12.501 12.501 0 0 0-22.811 3.626l-1.847 7.715-203.486-48.736c-6.714-1.608-13.46 2.531-15.068 9.245l-5.125 21.399Zm12.156 2.912 5.126-21.4 215.641 51.647 4.76-19.871 23.249 37.893-37.893 23.249 4.759-19.871-215.642-51.647Z"/><path style="fill:#fff" d="M1645.83 1099.38h1062.5v957.53h-1062.5z"/><path d="M2725 2073.58v-990.863H1629.17v990.863H2725Zm-16.667-974.197h-1062.5v957.531h1062.5v-957.531Z"/><path style="fill:#fff" d="M1645.83 1099.38h780.873v741.822H1645.83z"/><path d="M2443.37 1857.87v-775.155h-814.206v775.155h814.206Zm-16.666-758.489H1645.83v741.822h780.874v-741.822Z"/><path style="fill:#fff" d="M1645.83 1099.38h390.437v441.667H1645.83z"/><path d="M2052.94 1557.71v-475h-423.77v475h423.77Zm-16.667-458.334h-390.437v441.667h390.437v-441.667Z"/><path style="fill:#fff" d="M2036.27 1099.38h390.437v542.765H2036.27z"/><path d="M2443.37 1658.81v-576.098H2019.6v576.098h423.77Zm-16.666-559.432h-390.437v542.765h390.437v-542.765Z"/><path style="fill:#fff" d="M2036.27 1652.39h390.437v188.81H2036.27z"/><path d="M2443.37 1857.87v-222.143H2019.6v222.143h423.77Zm-16.666-205.476h-390.437v188.809h390.437v-188.809Z"/><path style="fill:#fff" d="M2036.27 1652.39h101.23v180.321h-101.23z"/><path d="M2154.17 1849.38v-213.654h-134.564v213.654h134.564Zm-16.667-196.987h-101.23v180.321h101.23v-180.321Z"/><path style="fill:#fff" d="M2154.17 1652.39h272.54v180.321h-272.54z"/><path d="M2443.37 1849.38v-213.654h-305.873v213.654h305.873Zm-16.666-196.987h-272.54v180.321h272.54v-180.321Z"/><path style="fill:#fff" d="M2154.17 1728.55h272.54v104.167h-272.54z"/><path d="M2443.37 1849.38v-137.5h-305.873v137.5h305.873Zm-16.666-120.833h-272.54v104.167h272.54v-104.167Z"/><path style="fill:#fff" d="M2036.27 1099.38h142.897v533.333H2036.27z"/><path d="M2195.83 1649.38v-566.666H2019.6v566.666h176.23Zm-16.666-550h-142.897v533.334h142.897V1099.38Z"/><path style="fill:#fff" d="M1645.83 1851.45h780.873v205.461H1645.83z"/><path d="M2443.37 2073.58v-238.794h-814.206v238.794h814.206Zm-16.666-222.127H1645.83v205.461h780.874v-205.461Z"/><path style="fill:#fff" d="M2766.67 420.214h979.167v1016.67H2766.67z"/><clipPath id="_clip1"><path d="M2766.67 420.214h979.167v1016.67H2766.67z"/></clipPath><g clip-path="url('#_clip1')"><path d="M2766.67 420.214v1016.67M3582.64 420.214v1016.67M3419.44 420.214v1016.67M3256.25 420.214v1016.67M3093.06 420.214v1016.67M2929.86 420.214v1016.67M3745.83 420.214v1016.67M2766.67 928.547h979.166M2766.67 1267.44h979.166M2766.67 1097.99h979.166M2766.67 420.214h979.166M2766.67 759.103h979.166M2766.67 589.658h979.166M2766.67 1436.88h979.166" style="fill:none;stroke:#000;stroke-width:16.67px"/></g><path d="M3762.5 1453.55v-1050H2750v1050h1012.5Zm-16.667-1033.33h-979.166v1016.67h979.166V420.22Z"/><path d="M771.245 923.949H433.141l61.024-301.819h1065.44l-61.024 301.819h-338.104L990.6 1776.631H601.369l169.876-852.682ZM2173.14 622.13c153.933 0 273.232 33.535 357.895 100.606 84.663 67.071 126.995 161.081 126.995 282.029 0 96.758-23.915 181.971-71.744 255.639s-116 130.844-204.512 171.526c-88.511 40.682-191.042 61.024-307.592 61.024h-199.563l-56.076 283.677h-389.232l230.9-1154.5h512.929Zm-79.166 570.653c53.876 0 95.658-13.469 125.346-40.407 29.687-26.939 44.53-64.597 44.53-112.976 0-78.067-48.379-117.1-145.137-117.1h-130.294l-54.426 270.483h159.981ZM3311.15 1803.02c-117.649 0-221.28-21.716-310.891-65.147-89.611-43.431-158.881-104.18-207.81-182.246-48.929-78.067-73.393-167.678-73.393-268.834 0-134.142 31.061-253.441 93.184-357.896 62.124-104.455 148.436-186.094 258.939-244.919 110.502-58.824 236.123-88.237 376.862-88.237 111.052 0 209.459 20.067 295.222 60.199 85.763 40.133 149.536 97.033 191.318 170.702l-280.379 219.355c-51.678-90.161-128.645-135.242-230.901-135.242-60.473 0-114.35 14.844-161.63 44.531-47.279 29.687-84.113 71.194-110.502 124.521-26.389 53.327-39.583 114.076-39.583 182.246 0 68.171 21.716 122.872 65.147 164.105 43.431 41.232 100.881 61.848 172.35 61.848 97.858 0 183.621-44.531 257.289-133.592l229.251 219.355c-67.071 82.464-143.213 141.289-228.426 176.473-85.213 35.185-183.896 52.778-296.047 52.778ZM4323.81 1803.02c-100.056 0-194.066-10.721-282.028-32.161-87.962-21.441-160.53-49.754-217.706-84.939l150.085-286.976c124.247 71.469 253.991 107.204 389.232 107.204 49.479 0 87.412-6.047 113.801-18.142 26.389-12.095 39.583-28.588 39.583-49.479 0-19.791-13.469-35.734-40.408-47.829-26.938-12.095-69.545-25.289-127.819-39.583-76.967-19.792-140.74-39.858-191.318-60.199s-94.834-51.678-132.767-94.009c-37.934-42.332-56.901-98.133-56.901-167.403 0-86.863 23.365-163.005 70.095-228.426 46.73-65.422 114.076-116 202.038-151.735 87.962-35.734 191.867-53.602 311.715-53.602 85.763 0 165.753 8.522 239.971 25.564 74.218 17.043 138.266 41.507 192.142 73.394l-140.189 283.677c-45.081-28.588-94.834-50.028-149.261-64.322-54.426-14.294-110.227-21.441-167.402-21.441-53.877 0-95.659 7.697-125.346 23.09-29.687 15.393-44.531 33.536-44.531 54.427s13.469 37.383 40.408 49.478c26.938 12.095 71.194 25.289 132.767 39.583 74.768 17.592 137.716 36.284 188.844 56.076 51.128 19.791 95.383 50.578 132.767 92.36s56.076 96.758 56.076 164.929c0 85.763-23.64 161.08-70.919 225.952-47.28 64.872-114.901 115.175-202.863 150.91-87.962 35.734-191.317 53.602-310.066 53.602Z" style="fill:#fff;fill-rule:nonzero;stroke:#000;stroke-width:25px;stroke-linecap:butt;stroke-linejoin:round;stroke-miterlimit:2"/><path d="M4069.16 617.791c22.513-57.144 87.184-85.26 144.328-62.748 57.144 22.513 85.26 87.184 62.747 144.328-22.512 57.144-87.184 85.26-144.328 62.747-57.144-22.512-85.26-87.183-62.747-144.327Z" style="fill:#fff"/><path d="M4053.65 611.682c-25.884 65.702 6.443 140.059 72.145 165.943 65.703 25.885 140.059-6.443 165.944-72.145 25.884-65.702-6.443-140.059-72.145-165.943-65.703-25.885-140.059 6.442-165.944 72.145Zm15.507 6.109c22.513-57.144 87.184-85.26 144.328-62.748 57.144 22.513 85.26 87.184 62.747 144.328-22.512 57.144-87.184 85.26-144.328 62.747-57.144-22.512-85.26-87.183-62.747-144.327Z"/><path d="M4560.4 314.407c19.191-48.714 74.322-72.682 123.035-53.49 48.714 19.191 72.682 74.321 53.491 123.035-19.192 48.714-74.322 72.682-123.036 53.491-48.714-19.192-72.682-74.322-53.49-123.036Z" style="fill:#fff"/><path d="M4544.89 308.298c-22.563 57.272 5.616 122.088 62.888 144.651 57.272 22.564 122.088-5.616 144.652-62.888 22.563-57.272-5.617-122.088-62.889-144.651-57.272-22.563-122.088 5.616-144.651 62.888Zm15.507 6.109c19.191-48.714 74.322-72.682 123.035-53.49 48.714 19.191 72.682 74.321 53.491 123.035-19.192 48.714-74.322 72.682-123.036 53.491-48.714-19.192-72.682-74.322-53.49-123.036Z"/><path d="M4556.38 896.116c26.191-66.481 101.43-99.191 167.911-73 66.481 26.191 99.191 101.429 73 167.91-26.191 66.481-101.429 99.192-167.911 73.001-66.481-26.192-99.191-101.43-73-167.911Z" style="fill:#fff"/><path d="M4540.88 890.007c-29.563 75.04 7.358 159.963 82.397 189.526 75.04 29.563 159.964-7.358 189.527-82.398 29.562-75.039-7.359-159.963-82.398-189.526-75.04-29.563-159.964 7.359-189.526 82.398Zm15.506 6.109c26.191-66.481 101.43-99.191 167.911-73 66.481 26.191 99.191 101.429 73 167.91-26.191 66.481-101.429 99.192-167.911 73.001-66.481-26.192-99.191-101.43-73-167.911Z"/><path d="m4342.52 570.216 10.761 15.743-40.776-7.665 7.665-40.776 10.761 15.743L4518.572 425l11.589 16.954-187.641 128.262Z" style="fill:#fff"/><path d="m4365.68 574.57 173.881-118.856c7.599-5.195 9.549-15.566 4.354-23.165l-11.589-16.954c-5.194-7.599-15.565-9.549-23.164-4.354L4335.28 530.097l-1.356-1.984a16.665 16.665 0 0 0-30.139 6.326l-7.665 40.776c-1.7 9.047 4.255 17.759 13.301 19.459l40.777 7.665a16.667 16.667 0 0 0 16.838-25.785l-1.356-1.984Zm-23.165-4.354 10.761 15.743-40.776-7.665 7.665-40.776 10.761 15.743L4518.567 425l11.589 16.954-187.641 128.262Z"/><path d="m4641.46 526.57-18.969 1.957 26.173-32.194 32.194 26.173-18.97 1.956 23.871 231.408-20.428 2.108-23.871-231.408Z" style="fill:#fff"/><path d="m4626.59 544.859 22.161 214.829c.945 9.156 9.133 15.813 18.289 14.868l20.429-2.107c9.156-.944 15.813-9.133 14.868-18.289l-22.161-214.829 2.391-.247a16.665 16.665 0 0 0 8.803-29.511l-32.194-26.172c-7.142-5.807-17.639-4.724-23.445 2.418l-26.173 32.194a16.666 16.666 0 0 0 14.642 27.092l2.39-.246Zm14.869-18.289-18.969 1.957 26.173-32.194 32.194 26.173-18.97 1.956 23.871 231.408-20.428 2.108-23.871-231.408Z"/><path d="m2074.21 353.255 171.353 223.975M2074.21 353.255 1902.858 577.23M1902.86 577.23l171.352 223.974M1902.86 577.23l-171.352 223.974M2245.57 560.703l171.352 223.974" style="fill:none;stroke:#000;stroke-width:16.67px"/><circle cx="2074.21" cy="353.255" r="85.676" style="fill:#fff"/><path d="M2074.21 250.912c-56.484 0-102.342 45.858-102.342 102.343 0 56.484 45.858 102.343 102.342 102.343 56.485 0 102.343-45.859 102.343-102.343 0-56.485-45.858-102.343-102.343-102.343Zm0 16.667c-47.286 0-85.676 38.39-85.676 85.676s38.39 85.676 85.676 85.676 85.677-38.39 85.677-85.676-38.391-85.676-85.677-85.676Z"/><circle cx="2245.57" cy="577.23" r="85.676" style="fill:#fff"/><path d="M2245.57 474.887c-56.485 0-102.343 45.858-102.343 102.343 0 56.484 45.858 102.342 102.343 102.342 56.484 0 102.343-45.858 102.343-102.342 0-56.485-45.859-102.343-102.343-102.343Zm0 16.666c-47.286 0-85.676 38.391-85.676 85.677 0 47.286 38.39 85.676 85.676 85.676s85.676-38.39 85.676-85.676-38.39-85.677-85.676-85.677Z"/><circle cx="1902.86" cy="577.23" r="85.676" style="fill:#fff"/><path d="M1902.86 474.887c-56.485 0-102.343 45.858-102.343 102.343 0 56.484 45.858 102.342 102.343 102.342 56.485 0 102.343-45.858 102.343-102.342 0-56.485-45.858-102.343-102.343-102.343Zm0 16.666c-47.286 0-85.676 38.391-85.676 85.677 0 47.286 38.39 85.676 85.676 85.676s85.676-38.39 85.676-85.676-38.39-85.677-85.676-85.677Z"/><circle cx="2074.21" cy="801.204" r="85.676" style="fill:#fff"/><path d="M2074.21 698.861c-56.484 0-102.342 45.859-102.342 102.343 0 56.485 45.858 102.343 102.342 102.343 56.485 0 102.343-45.858 102.343-102.343 0-56.484-45.858-102.343-102.343-102.343Zm0 16.667c-47.286 0-85.676 38.39-85.676 85.676s38.39 85.676 85.676 85.676 85.677-38.39 85.677-85.676-38.391-85.676-85.677-85.676Z"/><circle cx="1731.51" cy="801.204" r="85.676" style="fill:#fff"/><path d="M1731.51 698.861c-56.485 0-102.343 45.859-102.343 102.343 0 56.485 45.858 102.343 102.343 102.343 56.484 0 102.342-45.858 102.342-102.343 0-56.484-45.858-102.343-102.342-102.343Zm0 16.667c-47.286 0-85.677 38.39-85.677 85.676s38.391 85.676 85.677 85.676c47.286 0 85.676-38.39 85.676-85.676s-38.39-85.676-85.676-85.676Z"/><circle cx="2416.92" cy="784.677" r="85.676" style="fill:#fff"/><path d="M2416.92 682.334c-56.484 0-102.343 45.859-102.343 102.343 0 56.485 45.859 102.343 102.343 102.343 56.485 0 102.343-45.858 102.343-102.343 0-56.484-45.858-102.343-102.343-102.343Zm0 16.667c-47.286 0-85.676 38.39-85.676 85.676s38.39 85.677 85.676 85.677 85.677-38.391 85.677-85.677c0-47.286-38.391-85.676-85.677-85.676Z"/><path d="M818.623 397.151 647.271 621.126M647.271 621.126 818.623 845.1M989.976 173.176l171.352 223.975M647.271 621.126 475.918 845.1M989.976 173.176 818.623 397.151" style="fill:none;stroke:#000;stroke-width:16.67px"/><circle cx="818.623" cy="397.151" r="85.676" style="fill:#fff"/><path d="M818.623 294.808c-56.484 0-102.343 45.858-102.343 102.343 0 56.485 45.859 102.343 102.343 102.343 56.485 0 102.343-45.858 102.343-102.343 0-56.485-45.858-102.343-102.343-102.343Zm0 16.667c-47.286 0-85.676 38.39-85.676 85.676s38.39 85.676 85.676 85.676 85.676-38.39 85.676-85.676-38.39-85.676-85.676-85.676Z"/><circle cx="989.976" cy="173.176" r="85.676" style="fill:#fff"/><path d="M989.976 70.833c-56.485 0-102.343 45.859-102.343 102.343 0 56.485 45.858 102.343 102.343 102.343 56.484 0 102.343-45.858 102.343-102.343 0-56.484-45.859-102.343-102.343-102.343Zm0 16.667c-47.286 0-85.677 38.39-85.677 85.676s38.391 85.676 85.677 85.676c47.286 0 85.676-38.39 85.676-85.676S1037.262 87.5 989.976 87.5Z"/><circle cx="647.271" cy="621.126" r="85.676" style="fill:#fff"/><path d="M647.271 518.783c-56.485 0-102.343 45.858-102.343 102.343 0 56.484 45.858 102.343 102.343 102.343 56.484 0 102.343-45.859 102.343-102.343 0-56.485-45.859-102.343-102.343-102.343Zm0 16.666c-47.286 0-85.676 38.391-85.676 85.677 0 47.286 38.39 85.676 85.676 85.676s85.676-38.39 85.676-85.676-38.39-85.677-85.676-85.677Z"/><circle cx="818.623" cy="845.1" r="85.676" style="fill:#fff"/><path d="M818.623 742.758c-56.484 0-102.343 45.858-102.343 102.342 0 56.485 45.859 102.343 102.343 102.343 56.485 0 102.343-45.858 102.343-102.343 0-56.484-45.858-102.342-102.343-102.342Zm0 16.666c-47.286 0-85.676 38.39-85.676 85.676s38.39 85.677 85.676 85.677 85.676-38.391 85.676-85.677c0-47.286-38.39-85.676-85.676-85.676Z"/><circle cx="475.918" cy="845.1" r="85.676" style="fill:#fff"/><path d="M475.918 742.758c-56.484 0-102.343 45.858-102.343 102.342 0 56.485 45.859 102.343 102.343 102.343 56.485 0 102.343-45.858 102.343-102.343 0-56.484-45.858-102.342-102.343-102.342Zm0 16.666c-47.286 0-85.676 38.39-85.676 85.676s38.39 85.677 85.676 85.677 85.677-38.391 85.677-85.677c0-47.286-38.391-85.676-85.677-85.676Z"/><circle cx="1161.33" cy="397.151" r="85.676" style="fill:#fff"/><path d="M1161.33 294.808c-56.484 0-102.343 45.858-102.343 102.343 0 56.485 45.859 102.343 102.343 102.343 56.485 0 102.343-45.858 102.343-102.343 0-56.485-45.858-102.343-102.343-102.343Zm0 16.667c-47.286 0-85.676 38.39-85.676 85.676s38.39 85.676 85.676 85.676 85.676-38.39 85.676-85.676-38.39-85.676-85.676-85.676ZM2825 524.901v-21.875h168.75v-20.312l31.25 31.25-31.25 31.25v-20.313H2825ZM3052.61 524.901v-21.875h149.472v-20.312l31.25 31.25-31.25 31.25v-20.313H3052.61ZM2825 695.735V673.86h168.75v-20.313l31.25 31.25-31.25 31.25v-20.312H2825ZM2828.65 553.547h21.875v60.417h20.312l-31.25 31.25-31.25-31.25h20.313v-60.417Z"/><path d="M2828.65 553.547h21.875v60.417h20.312l-31.25 31.25-31.25-31.25h20.313v-60.417ZM3010.42 549.908h21.875v60.417h20.313l-31.25 31.25-31.25-31.25h20.312v-60.417ZM2825 695.735V673.86h168.75v-20.313l31.25 31.25-31.25 31.25v-20.312H2825Z"/><path d="M2828.65 553.547h21.875v60.417h20.312l-31.25 31.25-31.25-31.25h20.313v-60.417ZM2828.65 724.38h21.875v60.417h20.312l-31.25 31.25-31.25-31.25h20.313V724.38ZM3010.42 549.908h21.875v60.417h20.313l-31.25 31.25-31.25-31.25h20.312v-60.417Z"/><path style="fill:#fff" d="M3233.33 1965.83H5150v137.5H3233.33z"/><path d="M3216.67 1949.16v170.834h1950V1949.16h-1950Zm16.666 154.167h1916.67v-137.5h-1916.67v137.5Z"/><path d="M5150 2103.33v-137.5M3233.33 2103.33v-137.5M4876.19 2103.33v-137.5M3780.95 2103.33v-137.5M4328.57 2103.33v-137.5M4054.76 2103.33v-137.5M4602.38 2103.33v-137.5M3507.14 2103.33v-137.5" style="fill:none;stroke:#000;stroke-width:16.67px"/><path d="M4191.58 2012.7c0 .601-.132 16.248-.132 16.248h21.675l-33.346 33.346-33.346-33.346h21.674s-.132-15.647-.132-16.248c0-157.764 127.893-285.657 285.658-285.657 157.764 0 285.657 127.893 285.657 285.657 0 6.514-5.289 11.803-11.803 11.803-6.515 0-11.804-5.289-11.804-11.803 0-144.727-117.324-262.051-262.05-262.051-144.727 0-262.051 117.324-262.051 262.051Z" style="fill:#fff"/><path d="M4204.08 2012.7c0-137.823 111.727-249.551 249.551-249.551 137.823 0 249.55 111.728 249.55 249.551 0 13.413 10.89 24.303 24.304 24.303 13.413 0 24.303-10.89 24.303-24.303 0-164.668-133.49-298.157-298.157-298.157-164.668 0-298.158 133.489-298.158 298.157 0 .18.012 1.701.029 3.748h-9.071a12.501 12.501 0 0 0-8.839 21.339l33.346 33.346c4.881 4.882 12.796 4.882 17.677 0l33.346-33.346a12.499 12.499 0 0 0-8.838-21.339h-9.072c.017-2.047.029-3.568.029-3.748Zm-12.5 0c0 .601-.132 16.248-.132 16.248h21.675l-33.346 33.346-33.346-33.346h21.674s-.132-15.647-.132-16.248c0-157.764 127.893-285.657 285.658-285.657 157.764 0 285.657 127.893 285.657 285.657 0 6.514-5.289 11.803-11.803 11.803-6.515 0-11.804-5.289-11.804-11.803 0-144.727-117.324-262.051-262.05-262.051-144.727 0-262.051 117.324-262.051 262.051Z"/><path d="M3948.52 1990.69c0 .868-.191 23.459-.191 23.459h31.294l-48.145 48.144-48.144-48.144h31.294s-.191-22.591-.191-23.459c0-227.776 184.649-412.425 412.425-412.425s412.425 184.649 412.425 412.425c0 9.405-7.636 17.041-17.041 17.041-9.406 0-17.041-7.636-17.041-17.041 0-208.953-169.39-378.343-378.343-378.343-208.953 0-378.342 169.39-378.342 378.343Z" style="fill:#fff"/><path d="M3961.02 1990.69c0-202.049 163.793-365.843 365.842-365.843 202.049 0 365.843 163.794 365.843 365.843 0 16.304 13.236 29.541 29.541 29.541 16.304 0 29.541-13.237 29.541-29.541 0-234.679-190.246-424.925-424.925-424.925s-424.925 190.246-424.925 424.925c0 .407.042 5.57.086 10.959h-18.689a12.5 12.5 0 0 0-8.839 21.339l48.145 48.144c4.881 4.882 12.796 4.882 17.677 0l48.144-48.144a12.499 12.499 0 0 0-8.838-21.339h-18.69c.045-5.389.087-10.552.087-10.959Zm-12.5 0c0 .868-.191 23.459-.191 23.459h31.294l-48.145 48.144-48.144-48.144h31.294s-.191-22.591-.191-23.459c0-227.776 184.649-412.425 412.425-412.425s412.425 184.649 412.425 412.425c0 9.405-7.636 17.041-17.041 17.041-9.406 0-17.041-7.636-17.041-17.041 0-208.953-169.39-378.343-378.343-378.343-208.953 0-378.342 169.39-378.342 378.343Z"/><path d="M3688.4 1990.69c0 .868-.19 23.459-.19 23.459h31.294l-48.145 48.144-48.144-48.144h31.294s-.191-22.591-.191-23.459c0-227.776 184.649-412.425 412.425-412.425s412.425 184.649 412.425 412.425c0 9.405-7.636 17.041-17.041 17.041-9.406 0-17.041-7.636-17.041-17.041-.001-208.953-169.39-378.343-378.343-378.343-208.953 0-378.343 169.39-378.343 378.343Z" style="fill:#fff"/><path d="M3700.9 1990.69c0-202.049 163.794-365.843 365.843-365.843s365.842 163.794 365.843 365.843c0 16.304 13.236 29.541 29.541 29.541 16.304 0 29.541-13.237 29.541-29.541 0-234.679-190.246-424.925-424.925-424.925s-424.925 190.246-424.925 424.925c0 .407.042 5.57.086 10.959h-18.689a12.5 12.5 0 0 0-8.839 21.339l48.145 48.144c4.881 4.882 12.796 4.882 17.677 0l48.144-48.144a12.499 12.499 0 0 0-8.838-21.339h-18.69c.045-5.389.086-10.552.086-10.959Zm-12.5 0c0 .868-.19 23.459-.19 23.459h31.294l-48.145 48.144-48.144-48.144h31.294s-.191-22.591-.191-23.459c0-227.776 184.649-412.425 412.425-412.425s412.425 184.649 412.425 412.425c0 9.405-7.636 17.041-17.041 17.041-9.406 0-17.041-7.636-17.041-17.041-.001-208.953-169.39-378.343-378.343-378.343-208.953 0-378.343 169.39-378.343 378.343Z"/><path d="M3398.45 1963.3c0 1.201-.263 32.432-.263 32.432h43.262l-66.558 66.558-66.558-66.558h43.263s-.263-31.231-.263-32.432c0-314.894 255.272-570.167 570.167-570.167 314.894 0 570.167 255.273 570.167 570.167 0 13.003-10.557 23.559-23.559 23.559-13.003 0-23.559-10.556-23.559-23.559 0-288.872-234.177-523.049-523.049-523.049-288.873 0-523.05 234.177-523.05 523.049Z" style="fill:#fff"/><path d="M3410.95 1963.3c0-281.968 228.581-510.549 510.55-510.549 281.968 0 510.549 228.581 510.549 510.549 0 19.902 16.157 36.059 36.059 36.059 19.901 0 36.059-16.157 36.059-36.059 0-321.798-260.869-582.667-582.667-582.667-321.799 0-582.667 260.869-582.667 582.667 0 .684.085 11.074.158 19.932h-30.658a12.5 12.5 0 0 0-8.839 21.339l66.559 66.558c4.881 4.882 12.796 4.882 17.677 0l66.558-66.558a12.499 12.499 0 0 0-8.839-21.339h-30.657c.073-8.858.158-19.248.158-19.932Zm-12.5 0c0 1.201-.263 32.432-.263 32.432h43.262l-66.558 66.558-66.558-66.558h43.263s-.263-31.231-.263-32.432c0-314.894 255.272-570.167 570.167-570.167 314.894 0 570.167 255.273 570.167 570.167 0 13.003-10.557 23.559-23.559 23.559-13.003 0-23.559-10.556-23.559-23.559 0-288.872-234.177-523.049-523.049-523.049-288.873 0-523.05 234.177-523.05 523.049Z"/><path d="M4740.96 2027.27c0 .323-.071 8.744-.071 8.744h11.664l-17.945 17.945-17.945-17.945h11.664s-.071-8.421-.071-8.744c0-84.902 68.826-153.728 153.727-153.728 84.901 0 153.727 68.826 153.727 153.728a6.354 6.354 0 0 1-6.352 6.351 6.354 6.354 0 0 1-6.351-6.351c0-77.886-63.139-141.024-141.024-141.024-77.885 0-141.023 63.138-141.023 141.024Z" style="fill:#fff"/><path d="M4715.8 2023.54a12.494 12.494 0 0 0-10.686 7.684 12.5 12.5 0 0 0 2.71 13.623l17.945 17.945c4.882 4.881 12.796 4.881 17.678 0l17.945-17.945a12.5 12.5 0 0 0-7.878-21.302c1.964-69.259 58.73-124.805 128.469-124.805 70.982 0 128.524 57.542 128.524 128.524 0 10.404 8.447 18.851 18.851 18.851 10.405 0 18.852-8.447 18.852-18.851 0-91.805-74.422-166.228-166.227-166.228-90.556 0-164.199 72.412-166.183 162.504Zm25.16 3.724c0 .323-.071 8.744-.071 8.744h11.664l-17.945 17.945-17.945-17.945h11.664s-.071-8.421-.071-8.744c0-84.902 68.826-153.728 153.727-153.728 84.901 0 153.727 68.826 153.727 153.728a6.354 6.354 0 0 1-6.352 6.351 6.354 6.354 0 0 1-6.351-6.351c0-77.886-63.139-141.024-141.024-141.024-77.885 0-141.023 63.138-141.023 141.024Z"/><path d="M4483.84 2013.37c0 .601-.132 16.248-.132 16.248h21.674l-33.346 33.346-33.346-33.346h21.675s-.132-15.647-.132-16.248c0-157.764 127.893-285.657 285.657-285.657 157.765 0 285.658 127.893 285.658 285.657 0 6.514-5.289 11.803-11.804 11.803-6.514 0-11.803-5.289-11.803-11.803 0-144.727-117.324-262.051-262.051-262.051-144.726 0-262.05 117.324-262.05 262.051Z" style="fill:#fff"/><path d="M4496.34 2013.37c0-137.823 111.727-249.551 249.55-249.551 137.824 0 249.551 111.728 249.551 249.551 0 13.413 10.89 24.303 24.303 24.303 13.414 0 24.304-10.89 24.304-24.303 0-164.668-133.49-298.157-298.158-298.157-164.667 0-298.157 133.489-298.157 298.157 0 .18.012 1.701.029 3.748h-9.072a12.5 12.5 0 0 0-8.838 21.339l33.346 33.346c4.881 4.882 12.796 4.882 17.677 0l33.346-33.346a12.499 12.499 0 0 0-8.839-21.339h-9.071c.017-2.047.029-3.568.029-3.748Zm-12.5 0c0 .601-.132 16.248-.132 16.248h21.674l-33.346 33.346-33.346-33.346h21.675s-.132-15.647-.132-16.248c0-157.764 127.893-285.657 285.657-285.657 157.765 0 285.658 127.893 285.658 285.657 0 6.514-5.289 11.803-11.804 11.803-6.514 0-11.803-5.289-11.803-11.803 0-144.727-117.324-262.051-262.051-262.051-144.726 0-262.05 117.324-262.05 262.051Z"/><path d="M1415.38 532.97v44.26l-68.091-68.092 68.091-68.091v44.259h173.722v-44.259l68.091 68.091-68.091 68.092v-44.26H1415.38Z" style="fill:#fff"/><path d="M1427.88 545.47h148.722v31.76a12.501 12.501 0 0 0 21.339 8.838l68.091-68.091c4.882-4.881 4.882-12.796 0-17.677l-68.091-68.092a12.5 12.5 0 0 0-21.339 8.839v31.759H1427.88v-31.759a12.499 12.499 0 0 0-21.339-8.839L1338.45 500.3c-4.882 4.881-4.882 12.796 0 17.677l68.091 68.091a12.5 12.5 0 0 0 21.339-8.838v-31.76Zm-12.5-12.5v44.26l-68.091-68.092 68.091-68.091v44.259h173.722v-44.259l68.091 68.091-68.091 68.092v-44.26H1415.38Z"/><path d="M671.433 2003.78c-12.323 0-23.354-2.385-33.094-7.156-9.739-4.77-17.358-11.462-22.857-20.075-5.499-8.613-8.249-18.352-8.249-29.217 0-10.866 2.75-20.572 8.249-29.119 5.499-8.546 13.118-15.205 22.857-19.975 9.74-4.77 20.771-7.156 33.094-7.156 13.251 0 24.58 2.849 33.988 8.547 9.408 5.698 15.901 13.582 19.479 23.653l-34.783 17.093c-4.241-9.54-10.535-14.311-18.883-14.311-5.3 0-9.706 1.855-13.217 5.566-3.512 3.71-5.267 8.944-5.267 15.702 0 6.89 1.755 12.19 5.267 15.9 3.511 3.711 7.917 5.566 13.217 5.566 8.348 0 14.642-4.77 18.883-14.311l34.783 17.093c-3.578 10.071-10.071 17.955-19.479 23.653s-20.737 8.547-33.988 8.547ZM791.683 2003.78c-12.058 0-22.89-2.419-32.497-7.255-9.607-4.837-17.127-11.528-22.559-20.075-5.433-8.547-8.15-18.253-8.15-29.118 0-10.866 2.717-20.572 8.15-29.119 5.432-8.546 12.952-15.205 22.559-19.975 9.607-4.77 20.439-7.156 32.497-7.156 12.191 0 23.09 2.386 32.696 7.156 9.607 4.77 17.094 11.429 22.46 19.975 5.367 8.547 8.05 18.253 8.05 29.119 0 10.865-2.683 20.571-8.05 29.118-5.366 8.547-12.853 15.238-22.46 20.075-9.606 4.836-20.505 7.255-32.696 7.255Zm0-34.982c5.168 0 9.408-1.888 12.721-5.665 3.313-3.776 4.969-9.044 4.969-15.801 0-6.758-1.656-11.992-4.969-15.702-3.313-3.711-7.553-5.566-12.721-5.566s-9.408 1.855-12.72 5.566c-3.313 3.71-4.969 8.944-4.969 15.702 0 6.757 1.656 12.025 4.969 15.801 3.312 3.777 7.552 5.665 12.72 5.665ZM1012.9 1891.08c13.118 0 23.619 4.042 31.503 12.125s11.827 20.273 11.827 36.572v62.013h-44.92v-54.262c0-12.455-4.042-18.683-12.125-18.683-4.24 0-7.652 1.59-10.236 4.77-2.584 3.18-3.876 8.216-3.876 15.106v53.069h-44.92v-54.262c0-12.455-4.041-18.683-12.124-18.683-4.24 0-7.652 1.59-10.236 4.77-2.584 3.18-3.876 8.216-3.876 15.106v53.069h-44.92v-108.722h42.734v10.137c8.083-8.083 18.352-12.125 30.807-12.125 7.288 0 13.847 1.359 19.678 4.075 5.83 2.716 10.6 6.857 14.311 12.423 4.372-5.301 9.673-9.375 15.9-12.224 6.228-2.849 13.052-4.274 20.473-4.274ZM1148.26 1891.08c9.54 0 18.319 2.286 26.335 6.858 8.017 4.571 14.377 11.163 19.081 19.776 4.704 8.613 7.056 18.551 7.056 29.814 0 11.263-2.352 21.168-7.056 29.715-4.704 8.547-11.064 15.106-19.081 19.677-8.016 4.572-16.795 6.858-26.335 6.858-12.058 0-21.268-3.114-27.628-9.342v45.914h-44.92v-147.282h42.734v8.944c6.492-7.288 16.43-10.932 29.814-10.932Zm-10.733 77.716c5.167 0 9.408-1.855 12.72-5.566 3.313-3.71 4.969-8.944 4.969-15.702 0-6.757-1.656-12.025-4.969-15.801-3.312-3.777-7.553-5.665-12.72-5.665-5.168 0-9.408 1.888-12.721 5.665-3.313 3.776-4.969 9.044-4.969 15.801 0 6.758 1.656 11.992 4.969 15.702 3.313 3.711 7.553 5.566 12.721 5.566ZM1333.7 1893.07v108.722h-42.733v-10.336c-3.976 4.108-8.613 7.189-13.914 9.243-5.3 2.054-10.931 3.081-16.894 3.081-13.781 0-24.845-4.207-33.193-12.622-8.348-8.414-12.522-21.101-12.522-38.062v-60.026h44.92v52.274c0 7.42 1.192 12.721 3.577 15.901 2.386 3.18 5.897 4.77 10.535 4.77 4.373 0 8.016-1.756 10.932-5.267 2.915-3.511 4.372-9.044 4.372-16.597v-51.081h44.92ZM1433.68 1998.02c-6.758 3.842-15.967 5.764-27.628 5.764-15.238 0-26.965-3.677-35.181-11.032-8.215-7.354-12.323-18.385-12.323-33.093v-27.827h-14.907v-32.795h14.907v-30.411h44.92v30.411h22.261v32.795h-22.261v27.429c0 3.313.861 5.897 2.584 7.752 1.723 1.855 3.975 2.783 6.758 2.783 3.843 0 7.222-.994 10.137-2.982l10.733 31.206ZM1557.71 1947.33c0 .662-.198 4.174-.596 10.534h-75.529c1.59 4.108 4.24 7.255 7.95 9.441 3.711 2.186 8.348 3.28 13.914 3.28 4.77 0 8.778-.597 12.025-1.789 3.246-1.193 6.791-3.247 10.633-6.162l23.454 23.653c-10.6 11.66-26.435 17.491-47.504 17.491-13.118 0-24.646-2.419-34.584-7.255-9.938-4.837-17.623-11.561-23.056-20.174s-8.149-18.286-8.149-29.019c0-10.866 2.683-20.572 8.049-29.119 5.367-8.546 12.721-15.205 22.063-19.975 9.342-4.77 19.843-7.156 31.503-7.156 10.999 0 21.036 2.187 30.113 6.56 9.076 4.372 16.298 10.799 21.665 19.279 5.366 8.481 8.049 18.618 8.049 30.411Zm-59.429-25.64c-4.638 0-8.481 1.258-11.528 3.776-3.048 2.518-5.035 6.095-5.963 10.733h34.982c-.928-4.505-2.915-8.05-5.963-10.634-3.048-2.584-6.89-3.875-11.528-3.875ZM1614.55 1904.8c7.95-9.143 19.677-13.715 35.18-13.715v39.753c-3.577-.531-6.89-.796-9.938-.796-15.37 0-23.056 7.818-23.056 23.454v48.299h-44.92v-108.722h42.734v11.727ZM1764.62 2003.78a126.94 126.94 0 0 1-27.429-2.982c-9.01-1.987-16.298-4.571-21.864-7.751l12.324-29.616c5.035 3.048 10.998 5.433 17.888 7.156 6.89 1.722 13.582 2.584 20.075 2.584 5.168 0 8.778-.431 10.832-1.292 2.054-.862 3.081-2.154 3.081-3.876 0-1.723-1.292-2.915-3.876-3.578-2.584-.662-6.791-1.325-12.621-1.988-8.878-1.06-16.431-2.418-22.659-4.074-6.228-1.656-11.693-4.87-16.397-9.64-4.704-4.77-7.056-11.594-7.056-20.472 0-7.023 2.12-13.317 6.36-18.883 4.24-5.565 10.567-10.004 18.982-13.317 8.414-3.312 18.517-4.969 30.31-4.969 8.216 0 16.266.762 24.15 2.286s14.609 3.743 20.174 6.659l-12.323 29.615c-9.541-5.3-20.009-7.95-31.404-7.95-9.806 0-14.709 1.722-14.709 5.167 0 1.723 1.326 2.949 3.976 3.677 2.65.729 6.824 1.425 12.522 2.087 8.878 1.06 16.397 2.452 22.559 4.174 6.162 1.723 11.594 4.969 16.298 9.74 4.704 4.77 7.056 11.594 7.056 20.472 0 6.758-2.12 12.919-6.36 18.485-4.24 5.565-10.601 10.004-19.081 13.317-8.48 3.312-18.75 4.969-30.808 4.969ZM1892.82 2003.78c-12.324 0-23.355-2.385-33.094-7.156-9.739-4.77-17.358-11.462-22.857-20.075-5.5-8.613-8.249-18.352-8.249-29.217 0-10.866 2.749-20.572 8.249-29.119 5.499-8.546 13.118-15.205 22.857-19.975 9.739-4.77 20.77-7.156 33.094-7.156 13.25 0 24.58 2.849 33.988 8.547 9.408 5.698 15.901 13.582 19.478 23.653l-34.783 17.093c-4.24-9.54-10.534-14.311-18.882-14.311-5.3 0-9.706 1.855-13.218 5.566-3.511 3.71-5.267 8.944-5.267 15.702 0 6.89 1.756 12.19 5.267 15.9 3.512 3.711 7.918 5.566 13.218 5.566 8.348 0 14.642-4.77 18.882-14.311l34.783 17.093c-3.577 10.071-10.07 17.955-19.478 23.653-9.408 5.698-20.738 8.547-33.988 8.547ZM1956.62 1893.07h44.92v108.722h-44.92V1893.07Zm22.46-8.745c-8.083 0-14.609-2.154-19.578-6.46-4.969-4.307-7.454-9.773-7.454-16.398s2.485-12.091 7.454-16.398c4.969-4.306 11.495-6.459 19.578-6.459 8.215 0 14.774 2.053 19.677 6.161 4.903 4.108 7.354 9.408 7.354 15.901 0 6.89-2.451 12.555-7.354 16.994-4.903 4.439-11.462 6.659-19.677 6.659ZM2137.09 1947.33c0 .662-.198 4.174-.596 10.534h-75.529c1.59 4.108 4.24 7.255 7.95 9.441 3.711 2.186 8.348 3.28 13.914 3.28 4.77 0 8.778-.597 12.025-1.789 3.246-1.193 6.791-3.247 10.633-6.162l23.454 23.653c-10.6 11.66-26.435 17.491-47.504 17.491-13.118 0-24.646-2.419-34.584-7.255-9.938-4.837-17.623-11.561-23.056-20.174s-8.149-18.286-8.149-29.019c0-10.866 2.683-20.572 8.049-29.119 5.367-8.546 12.721-15.205 22.063-19.975 9.342-4.77 19.843-7.156 31.503-7.156 10.998 0 21.036 2.187 30.113 6.56 9.076 4.372 16.298 10.799 21.665 19.279 5.366 8.481 8.049 18.618 8.049 30.411Zm-59.429-25.64c-4.638 0-8.481 1.258-11.528 3.776-3.048 2.518-5.035 6.095-5.963 10.733h34.982c-.928-4.505-2.915-8.05-5.963-10.634-3.048-2.584-6.89-3.875-11.528-3.875ZM2226.73 1891.08c13.384 0 24.15 4.042 32.299 12.125 8.149 8.083 12.224 20.273 12.224 36.572v62.013h-44.92v-54.262c0-12.455-4.439-18.683-13.317-18.683-5.035 0-9.11 1.756-12.224 5.267-3.114 3.512-4.671 9.044-4.671 16.597v51.081h-44.92v-108.722h42.734v10.733c4.24-4.24 9.143-7.42 14.708-9.54 5.565-2.121 11.594-3.181 18.087-3.181ZM2351.16 2003.78c-12.323 0-23.354-2.385-33.093-7.156-9.739-4.77-17.359-11.462-22.858-20.075-5.499-8.613-8.248-18.352-8.248-29.217 0-10.866 2.749-20.572 8.248-29.119 5.499-8.546 13.119-15.205 22.858-19.975 9.739-4.77 20.77-7.156 33.093-7.156 13.251 0 24.58 2.849 33.988 8.547 9.408 5.698 15.901 13.582 19.479 23.653l-34.783 17.093c-4.24-9.54-10.534-14.311-18.882-14.311-5.301 0-9.706 1.855-13.218 5.566-3.511 3.71-5.267 8.944-5.267 15.702 0 6.89 1.756 12.19 5.267 15.9 3.512 3.711 7.917 5.566 13.218 5.566 8.348 0 14.642-4.77 18.882-14.311l34.783 17.093c-3.578 10.071-10.071 17.955-19.479 23.653s-20.737 8.547-33.988 8.547ZM2529.64 1947.33c0 .662-.198 4.174-.596 10.534h-75.529c1.59 4.108 4.24 7.255 7.951 9.441 3.71 2.186 8.347 3.28 13.913 3.28 4.77 0 8.778-.597 12.025-1.789 3.246-1.193 6.791-3.247 10.633-6.162l23.454 23.653c-10.6 11.66-26.435 17.491-47.504 17.491-13.118 0-24.646-2.419-34.584-7.255-9.938-4.837-17.623-11.561-23.056-20.174s-8.149-18.286-8.149-29.019c0-10.866 2.683-20.572 8.049-29.119 5.367-8.546 12.721-15.205 22.063-19.975 9.342-4.77 19.843-7.156 31.503-7.156 10.999 0 21.036 2.187 30.113 6.56 9.076 4.372 16.298 10.799 21.665 19.279 5.366 8.481 8.049 18.618 8.049 30.411Zm-59.429-25.64c-4.638 0-8.48 1.258-11.528 3.776s-5.035 6.095-5.963 10.733h34.982c-.928-4.505-2.915-8.05-5.963-10.634-3.048-2.584-6.89-3.875-11.528-3.875ZM2698.19 1859.88c18.684 0 35.28 3.81 49.79 11.429 14.509 7.619 25.772 17.988 33.789 31.106 8.017 13.118 12.025 27.627 12.025 43.528 0 12.191-2.087 22.626-6.261 31.305-4.174 8.679-9.805 15.238-16.894 19.677-7.09 4.439-14.941 6.659-23.554 6.659-7.552 0-13.979-1.458-19.279-4.373-5.301-2.915-9.342-7.221-12.125-12.919-5.83 11.528-15.901 17.292-30.211 17.292-7.288 0-14.145-2.021-20.572-6.062-6.427-4.042-11.628-9.839-15.603-17.392-3.975-7.553-5.963-16.232-5.963-26.038 0-9.805 1.955-18.451 5.864-25.938 3.909-7.486 9.077-13.25 15.503-17.292 6.427-4.041 13.35-6.062 20.771-6.062 10.468 0 18.617 3.246 24.447 9.739v-7.95h38.162v56.845c0 7.288 2.584 10.932 7.752 10.932 3.18 0 5.665-2.054 7.453-6.162 1.789-4.107 2.684-11.329 2.684-21.664 0-11.926-2.816-22.527-8.448-31.802-5.631-9.276-13.582-16.53-23.851-21.764-10.269-5.234-22.095-7.851-35.479-7.851-13.383 0-25.242 2.882-35.578 8.646-10.335 5.764-18.352 13.714-24.05 23.851-5.698 10.137-8.547 21.433-8.547 33.889 0 12.853 2.816 24.348 8.448 34.485 5.631 10.136 13.549 18.054 23.752 23.751 10.203 5.698 21.93 8.547 35.18 8.547 13.914 0 27.297-2.915 40.15-8.745l8.348 24.447c-5.963 2.915-13.35 5.234-22.162 6.957-8.812 1.722-17.59 2.584-26.336 2.584-19.478 0-36.671-4.009-51.578-12.025-14.907-8.017-26.402-19.015-34.485-32.995-8.083-13.979-12.124-29.648-12.124-47.006 0-17.094 4.074-32.597 12.223-46.51 8.15-13.914 19.711-24.912 34.684-32.995 14.973-8.083 32.332-12.124 52.075-12.124Zm-1.789 112.498c4.241 0 7.686-1.59 10.336-4.77 2.65-3.18 3.975-7.685 3.975-13.516 0-5.83-1.325-10.302-3.975-13.416-2.65-3.114-6.095-4.671-10.336-4.671-4.24 0-7.652 1.557-10.236 4.671-2.584 3.114-3.876 7.586-3.876 13.416 0 5.831 1.292 10.336 3.876 13.516 2.584 3.18 5.996 4.77 10.236 4.77ZM2900.73 1899.04h-40.746v-36.373h128.4v36.373h-40.746v102.759h-46.908V1899.04ZM3067.49 1862.66c12.854 0 24.05 2.12 33.591 6.36 9.54 4.24 16.895 10.336 22.062 18.286 5.168 7.95 7.752 17.226 7.752 27.826 0 10.601-2.584 19.876-7.752 27.827-5.167 7.95-12.522 14.046-22.062 18.286-9.541 4.24-20.737 6.36-33.591 6.36h-20.074v34.187h-46.908V1862.66h66.982Zm-2.981 68.771c6.36 0 11.131-1.425 14.311-4.274 3.18-2.848 4.77-6.857 4.77-12.025 0-5.167-1.59-9.176-4.77-12.025-3.18-2.848-7.951-4.273-14.311-4.273h-17.093v32.597h17.093Z" style="fill:#fff;fill-rule:nonzero;stroke:#000;stroke-width:16.67px;stroke-linecap:butt;stroke-linejoin:round;stroke-miterlimit:2"/></svg>