<?xml version="1.0" encoding="UTF-8" standalone="no"?>
<!DOCTYPE svg PUBLIC "-//W3C//DTD SVG 1.1//EN" "http://www.w3.org/Graphics/SVG/1.1/DTD/svg11.dtd">
<svg width="100%" height="100%" viewBox="0 0 1280 551" version="1.1" xmlns="http://www.w3.org/2000/svg" xmlns:xlink="http://www.w3.org/1999/xlink" xml:space="preserve" xmlns:serif="http://www.serif.com/" style="fill-rule:evenodd;clip-rule:evenodd;stroke-linecap:round;stroke-miterlimit:1.5;">
    <g id="Artboard1" transform="matrix(1,0,0,1,0,-196)">
        <rect x="0" y="196" width="1280" height="551" style="fill:none;"/>
        <g transform="matrix(1,0,0,1,-273.682,-264.273)">
            <path d="M328.125,722.25L696.875,882.25L610.125,942.25L464.71,949.143L376.125,928.057L328.125,722.25Z" style="fill:white;"/>
            <path d="M329.319,719.498C328.279,719.047 327.074,719.22 326.203,719.946C325.333,720.673 324.946,721.827 325.203,722.931L373.203,928.739C373.462,929.846 374.324,930.712 375.43,930.976L464.016,952.061C464.289,952.127 464.571,952.153 464.852,952.14L610.267,945.247C610.828,945.22 611.37,945.037 611.832,944.717L698.582,884.717C699.477,884.098 699.967,883.041 699.861,881.957C699.754,880.873 699.068,879.932 698.069,879.498L329.319,719.498ZM328.125,722.25L696.875,882.25L610.125,942.25L464.71,949.143L376.125,928.057L328.125,722.25Z"/>
            <g transform="matrix(1,0,0,1,-8.875,210.25)">
                <path d="M337,512L385,717.807L475,739.23L619,732L705.75,672" style="fill:none;"/>
            </g>
            <g>
                <g>
                    <circle cx="328.125" cy="722.25" r="4.443"/>
                    <g transform="matrix(1,0,0,1,47.3178,205.193)">
                        <circle cx="328.125" cy="722.25" r="4.443"/>
                    </g>
                    <g transform="matrix(1,0,0,1,137.318,227.23)">
                        <circle cx="328.125" cy="722.25" r="4.443"/>
                    </g>
                    <g transform="matrix(1,0,0,1,283.318,218.344)">
                        <circle cx="328.125" cy="722.25" r="4.443"/>
                    </g>
                    <g transform="matrix(1,0,0,1,368.75,161.193)">
                        <circle cx="328.125" cy="722.25" r="4.443"/>
                    </g>
                    <g transform="matrix(1,0,0,1,248.318,161.193)">
                        <circle cx="328.125" cy="722.25" r="4.443"/>
                    </g>
                    <g transform="matrix(1,0,0,1,116,182.979)">
                        <circle cx="328.125" cy="722.25" r="4.443"/>
                    </g>
                    <g transform="matrix(1,0,0,1,228,135.466)">
                        <circle cx="328.125" cy="722.25" r="4.443"/>
                    </g>
                    <g transform="matrix(1,0,0,1,84.3178,113.615)">
                        <circle cx="328.125" cy="722.25" r="4.443"/>
                    </g>
                    <g transform="matrix(1,0,0,1,84.3178,196.307)">
                        <circle cx="328.125" cy="722.25" r="4.443"/>
                    </g>
                    <g transform="matrix(1,0,0,1,146.203,152.307)">
                        <circle cx="328.125" cy="722.25" r="4.443"/>
                    </g>
                    <g transform="matrix(1,0,0,1,274.432,187.421)">
                        <circle cx="328.125" cy="722.25" r="4.443"/>
                    </g>
                    <g transform="matrix(1,0,0,1,202.318,104.729)">
                        <circle cx="328.125" cy="722.25" r="4.443"/>
                    </g>
                </g>
                <g transform="matrix(0.225936,0.974142,-0.974142,0.225936,991.117,338.045)">
                    <path d="M289,752.181L289,745.465L401.883,745.465L401.883,739.23L411.477,748.823L401.883,758.416L401.883,752.181L289,752.181Z" style="fill:white;"/>
                    <path d="M286,752.181C286,753.837 287.343,755.181 289,755.181L398.883,755.181C398.883,755.181 398.883,758.416 398.883,758.416C398.883,759.63 399.614,760.723 400.735,761.188C401.856,761.652 403.147,761.395 404.005,760.537L413.598,750.944C414.77,749.773 414.77,747.873 413.598,746.702L404.005,737.108C403.147,736.25 401.856,735.994 400.735,736.458C399.614,736.922 398.883,738.016 398.883,739.23L398.883,742.465C398.883,742.465 289,742.465 289,742.465C287.343,742.465 286,743.808 286,745.465L286,752.181ZM289,752.181L289,745.465L401.883,745.465L401.883,739.23L411.477,748.823L401.883,758.416L401.883,752.181L289,752.181Z"/>
                </g>
                <g transform="matrix(0.482468,0.115553,-0.183176,0.76481,383.348,339.239)">
                    <path d="M289,752.181L289,745.465L396.269,745.465L396.269,739.23L411.477,748.823L396.269,758.416L396.269,752.181L289,752.181Z" style="fill:white;"/>
                    <path d="M282.953,752.181C282.953,754.287 285.66,755.995 289,755.995L390.222,755.995C390.222,755.995 390.222,758.416 390.222,758.416C390.222,759.959 391.696,761.35 393.955,761.94C396.215,762.531 398.816,762.205 400.545,761.114L415.753,751.52C418.114,750.031 418.114,747.615 415.753,746.126L400.545,736.532C398.816,735.441 396.215,735.115 393.955,735.705C391.696,736.296 390.222,737.687 390.222,739.23L390.222,741.651C390.222,741.651 289,741.651 289,741.651C285.66,741.651 282.953,743.359 282.953,745.465L282.953,752.181ZM289,752.181L289,745.465L396.269,745.465L396.269,739.23L411.477,748.823L396.269,758.416L396.269,752.181L289,752.181Z"/>
                </g>
            </g>
        </g>
        <g transform="matrix(0.614458,-1.38778e-17,1.38778e-17,0.614458,151.675,199.936)">
            <g transform="matrix(1,0,0,1,-76,190)">
                <rect x="472" y="233" width="415" height="374" style="fill:white;"/>
                <path d="M893.51,613.51L893.51,226.49L465.49,226.49L465.49,613.51L893.51,613.51ZM887,233L472,233L472,607L887,607L887,233Z"/>
            </g>
            <g transform="matrix(0.73494,0,0,0.774724,49.1084,242.489)">
                <rect x="472" y="233" width="415" height="374" style="fill:white;"/>
                <path d="M895.858,615.403L895.858,224.597L463.142,224.597L463.142,615.403L895.858,615.403ZM887,233L472,233L472,607L887,607L887,233Z"/>
            </g>
            <g transform="matrix(0.36747,1.5459e-18,2.38461e-18,0.461256,222.554,315.527)">
                <rect x="472" y="233" width="415" height="374" style="fill:white;"/>
                <path d="M904.715,621.113L904.715,218.887L454.285,218.887L454.285,621.113L904.715,621.113ZM887,233L472,233L472,607L887,607L887,233Z"/>
            </g>
            <g transform="matrix(0.36747,0,0,0.566838,375.054,290.927)">
                <rect x="472" y="233" width="415" height="374" style="fill:white;"/>
                <path d="M904.715,618.484L904.715,221.516L454.285,221.516L454.285,618.484L904.715,618.484ZM887,233L472,233L472,607L887,607L887,233Z"/>
            </g>
            <g transform="matrix(0.36747,0,0,0.197184,375.054,593.056)">
                <rect x="472" y="233" width="415" height="374" style="fill:white;"/>
                <path d="M904.715,640.014L904.715,199.986L454.285,199.986L454.285,640.014L904.715,640.014ZM887,233L472,233L472,607L887,607L887,233Z"/>
            </g>
            <g transform="matrix(0.0952752,-5.77451e-18,-3.0986e-18,0.188319,503.53,595.122)">
                <rect x="472" y="233" width="415" height="374" style="fill:white;"/>
                <path d="M955.326,641.568L955.326,198.432L403.674,198.432L403.674,641.568L955.326,641.568ZM887,233L472,233L472,607L887,607L887,233Z"/>
            </g>
            <g transform="matrix(0.256508,-2.13299e-18,-1.14456e-18,0.188319,473.477,595.122)">
                <rect x="472" y="233" width="415" height="374" style="fill:white;"/>
                <path d="M912.379,641.568L912.379,198.432L446.621,198.432L446.621,641.568L912.379,641.568ZM887,233L472,233L472,607L887,607L887,233Z"/>
            </g>
            <g transform="matrix(0.256508,1.21452e-18,6.5171e-19,0.108787,473.477,643.398)">
                <rect x="472" y="233" width="415" height="374" style="fill:white;"/>
                <path d="M912.379,666.84L912.379,173.16L446.621,173.16L446.621,666.84L912.379,666.84ZM887,233L472,233L472,607L887,607L887,233Z"/>
            </g>
            <g transform="matrix(0.134491,-2.04061e-17,-1.09499e-17,0.556989,485.02,293.222)">
                <rect x="472" y="233" width="415" height="374" style="fill:white;"/>
                <path d="M935.403,618.687L935.403,221.312L423.597,221.313L423.597,618.688L935.403,618.687ZM887,233L472,233L472,607L887,607L887,233Z"/>
            </g>
            <g transform="matrix(0.73494,0,0,0.214574,49.1084,666.754)">
                <rect x="472" y="233" width="415" height="374" style="fill:white;"/>
                <path d="M895.858,637.338L895.858,202.662L463.142,202.662L463.142,637.338L895.858,637.338ZM887,233L472,233L472,607L887,607L887,233Z"/>
            </g>
        </g>
        <g transform="matrix(0.695266,0,0,0.92987,445.686,69.9632)">
            <rect x="314" y="244" width="338" height="262.402" style="fill:white;"/>
            <clipPath id="_clip1">
                <rect x="314" y="244" width="338" height="262.402"/>
            </clipPath>
            <g clip-path="url(#_clip1)">
                <path d="M314,244L314,506.402" style="fill:none;stroke:black;stroke-width:4.87px;"/>
                <g transform="matrix(1,0,0,1,281.667,-3.19744e-14)">
                    <path d="M314,244L314,506.402" style="fill:none;stroke:black;stroke-width:4.87px;"/>
                </g>
                <g transform="matrix(1,0,0,1,225.333,-3.19744e-14)">
                    <path d="M314,244L314,506.402" style="fill:none;stroke:black;stroke-width:4.87px;"/>
                </g>
                <g transform="matrix(1,0,0,1,169,-3.19744e-14)">
                    <path d="M314,244L314,506.402" style="fill:none;stroke:black;stroke-width:4.87px;"/>
                </g>
                <g transform="matrix(1,0,0,1,112.667,-3.19744e-14)">
                    <path d="M314,244L314,506.402" style="fill:none;stroke:black;stroke-width:4.87px;"/>
                </g>
                <g transform="matrix(1,0,0,1,56.3333,-3.19744e-14)">
                    <path d="M314,244L314,506.402" style="fill:none;stroke:black;stroke-width:4.87px;"/>
                </g>
                <g transform="matrix(1,0,0,1,338,0)">
                    <path d="M314,244L314,506.402" style="fill:none;stroke:black;stroke-width:4.87px;"/>
                </g>
                <g transform="matrix(1.64635e-17,-1,1.2881,1.23642e-16,-0.295903,689.201)">
                    <path d="M314,244L314,506.402" style="fill:none;stroke:black;stroke-width:4.38px;"/>
                </g>
                <g transform="matrix(1.64635e-17,-1,1.2881,1.23642e-16,-0.295903,776.669)">
                    <path d="M314,244L314,506.402" style="fill:none;stroke:black;stroke-width:4.38px;"/>
                </g>
                <g transform="matrix(1.64635e-17,-1,1.2881,1.23642e-16,-0.295903,732.935)">
                    <path d="M314,244L314,506.402" style="fill:none;stroke:black;stroke-width:4.38px;"/>
                </g>
                <g transform="matrix(1.64635e-17,-1,1.2881,1.23642e-16,-0.295903,558)">
                    <path d="M314,244L314,506.402" style="fill:none;stroke:black;stroke-width:4.38px;"/>
                </g>
                <g transform="matrix(1.64635e-17,-1,1.2881,1.23642e-16,-0.295903,645.467)">
                    <path d="M314,244L314,506.402" style="fill:none;stroke:black;stroke-width:4.38px;"/>
                </g>
                <g transform="matrix(1.64635e-17,-1,1.2881,1.23642e-16,-0.295903,601.734)">
                    <path d="M314,244L314,506.402" style="fill:none;stroke:black;stroke-width:4.38px;"/>
                </g>
                <g transform="matrix(1.64635e-17,-1,1.2881,1.23642e-16,-0.295903,820.402)">
                    <path d="M314,244L314,506.402" style="fill:none;stroke:black;stroke-width:4.38px;"/>
                </g>
            </g>
            <path d="M657.753,510.704L657.753,239.698L308.247,239.698L308.247,510.704L657.753,510.704ZM652,244L314,244L314,506.402L652,506.402L652,244Z"/>
        </g>
        <g transform="matrix(0.810102,0,0,0.810102,50.9667,99.8757)">
            <text x="40px" y="645px" style="font-family:'Montserrat-BlackItalic', 'Montserrat';font-weight:900;font-style:italic;font-size:488.616px;fill:white;stroke:black;stroke-width:7.41px;stroke-linecap:butt;stroke-linejoin:round;stroke-miterlimit:2;">TPC<tspan x="1081.24px " y="645px ">S</tspan></text>
        </g>
        <g transform="matrix(0.460322,-0.224995,0.224995,0.460322,875.22,224.291)">
            <g transform="matrix(0.737879,-0.674933,0.674933,0.737879,-236.545,155.277)">
                <circle cx="134" cy="367.127" r="52.127" style="fill:white;"/>
                <path d="M134,307.193C100.922,307.193 74.066,334.048 74.066,367.127C74.066,400.205 100.922,427.06 134,427.06C167.078,427.06 193.934,400.205 193.934,367.127C193.934,334.048 167.078,307.193 134,307.193ZM134,315C162.769,315 186.127,338.357 186.127,367.127C186.127,395.896 162.769,419.253 134,419.253C105.231,419.253 81.873,395.896 81.873,367.127C81.873,338.357 105.231,315 134,315Z"/>
            </g>
            <g transform="matrix(0.629023,-0.575363,0.575363,0.629023,78.5425,149.596)">
                <circle cx="134" cy="367.127" r="52.127" style="fill:white;"/>
                <path d="M134,305.842C100.176,305.842 72.715,333.303 72.715,367.127C72.715,400.95 100.176,428.411 134,428.411C167.824,428.411 195.285,400.95 195.285,367.127C195.285,333.303 167.824,305.842 134,305.842ZM134,315C162.769,315 186.127,338.357 186.127,367.127C186.127,395.896 162.769,419.253 134,419.253C105.231,419.253 81.873,395.896 81.873,367.127C81.873,338.357 105.231,315 134,315Z"/>
            </g>
            <g transform="matrix(0.858446,-0.785215,0.785215,0.858446,-139.648,349.425)">
                <circle cx="134" cy="367.127" r="52.127" style="fill:white;"/>
                <path d="M134,308.29C101.527,308.29 75.163,334.654 75.163,367.127C75.163,399.6 101.527,425.964 134,425.964C166.473,425.964 192.837,399.6 192.837,367.127C192.837,334.654 166.473,308.29 134,308.29ZM134,315C162.769,315 186.127,338.357 186.127,367.127C186.127,395.896 162.769,419.253 134,419.253C105.231,419.253 81.873,395.896 81.873,367.127C81.873,338.357 105.231,315 134,315Z"/>
            </g>
            <g transform="matrix(0.868226,-0.126753,0.0542959,0.371912,47.4286,199.083)">
                <path d="M149.662,412.36L149.662,436.127L134,399.563L149.662,363L149.662,386.766L271,386.766L271,412.36L149.662,412.36Z" style="fill:white;"/>
                <path d="M158.56,433.132L271,433.132C275.914,433.132 279.897,423.832 279.897,412.36L279.897,386.766C279.897,375.295 275.914,365.995 271,365.995L158.56,365.995C158.56,365.995 158.56,363 158.56,363C158.56,354.599 156.392,347.025 153.067,343.81C149.742,340.595 145.915,342.372 143.371,348.313L127.709,384.876C124.234,392.988 124.234,406.139 127.709,414.251L143.371,450.814C145.915,456.754 149.742,458.532 153.067,455.317C156.392,452.102 158.56,444.528 158.56,436.127L158.56,433.132ZM149.662,412.36L149.662,436.127L134,399.563L149.662,363L149.662,386.766L271,386.766L271,412.36L149.662,412.36Z"/>
            </g>
            <g transform="matrix(-0.308684,0.840843,-0.35283,-0.129528,526.135,304.437)">
                <path d="M149.343,412.36L149.343,436.127L134,399.563L149.343,363L149.343,386.766L271,386.766L271,412.36L149.343,412.36Z" style="fill:white;"/>
                <path d="M158.058,433.132L271,433.132C275.814,433.132 279.716,423.832 279.716,412.36L279.716,386.766C279.716,375.295 275.814,365.995 271,365.995L158.058,365.995C158.058,365.995 158.058,363 158.058,363C158.058,354.599 155.935,347.025 152.678,343.81C149.421,340.595 145.672,342.372 143.179,348.313L127.837,384.876C124.433,392.988 124.433,406.139 127.837,414.251L143.179,450.814C145.672,456.754 149.421,458.532 152.678,455.317C155.935,452.102 158.058,444.528 158.058,436.127L158.058,433.132ZM149.343,412.36L149.343,436.127L134,399.563L149.343,363L149.343,386.766L271,386.766L271,412.36L149.343,412.36Z"/>
            </g>
        </g>
        <g transform="matrix(-0.894013,0,0,0.894013,1069.98,26.8815)">
            <g>
                <path d="M640,284L594,344.127" style="fill:none;stroke:black;stroke-width:4.47px;"/>
                <g transform="matrix(-1,0,0,1,1280,0)">
                    <path d="M640,284L594,344.127" style="fill:none;stroke:black;stroke-width:4.47px;"/>
                </g>
                <g transform="matrix(1,0,0,1,46,60.1266)">
                    <path d="M640,284L594,344.127" style="fill:none;stroke:black;stroke-width:4.47px;"/>
                </g>
                <g transform="matrix(-1,0,0,1,1326,60.1266)">
                    <path d="M640,284L594,344.127" style="fill:none;stroke:black;stroke-width:4.47px;"/>
                </g>
                <g transform="matrix(1,0,0,1,-46,55.6899)">
                    <path d="M640,284L594,344.127" style="fill:none;stroke:black;stroke-width:4.47px;"/>
                </g>
            </g>
            <g transform="matrix(0.821429,0,0,0.821429,114.286,50.7143)">
                <circle cx="640" cy="284" r="28" style="fill:white;"/>
                <path d="M640,250.553C658.46,250.553 673.447,265.54 673.447,284C673.447,302.46 658.46,317.447 640,317.447C621.54,317.447 606.553,302.46 606.553,284C606.553,265.54 621.54,250.553 640,250.553ZM640,256C655.454,256 668,268.546 668,284C668,299.454 655.454,312 640,312C624.546,312 612,299.454 612,284C612,268.546 624.546,256 640,256Z"/>
            </g>
            <g transform="matrix(0.821429,0,0,0.821429,68.2857,110.841)">
                <circle cx="640" cy="284" r="28" style="fill:white;"/>
                <path d="M640,250.553C658.46,250.553 673.447,265.54 673.447,284C673.447,302.46 658.46,317.447 640,317.447C621.54,317.447 606.553,302.46 606.553,284C606.553,265.54 621.54,250.553 640,250.553ZM640,256C655.454,256 668,268.546 668,284C668,299.454 655.454,312 640,312C624.546,312 612,299.454 612,284C612,268.546 624.546,256 640,256Z"/>
            </g>
            <g transform="matrix(0.821429,0,0,0.821429,160.286,110.841)">
                <circle cx="640" cy="284" r="28" style="fill:white;"/>
                <path d="M640,250.553C658.46,250.553 673.447,265.54 673.447,284C673.447,302.46 658.46,317.447 640,317.447C621.54,317.447 606.553,302.46 606.553,284C606.553,265.54 621.54,250.553 640,250.553ZM640,256C655.454,256 668,268.546 668,284C668,299.454 655.454,312 640,312C624.546,312 612,299.454 612,284C612,268.546 624.546,256 640,256Z"/>
            </g>
            <g transform="matrix(0.821429,0,0,0.821429,114.286,170.967)">
                <circle cx="640" cy="284" r="28" style="fill:white;"/>
                <path d="M640,250.553C658.46,250.553 673.447,265.54 673.447,284C673.447,302.46 658.46,317.447 640,317.447C621.54,317.447 606.553,302.46 606.553,284C606.553,265.54 621.54,250.553 640,250.553ZM640,256C655.454,256 668,268.546 668,284C668,299.454 655.454,312 640,312C624.546,312 612,299.454 612,284C612,268.546 624.546,256 640,256Z"/>
            </g>
            <g transform="matrix(0.821429,0,0,0.821429,206.286,170.967)">
                <circle cx="640" cy="284" r="28" style="fill:white;"/>
                <path d="M640,250.553C658.46,250.553 673.447,265.54 673.447,284C673.447,302.46 658.46,317.447 640,317.447C621.54,317.447 606.553,302.46 606.553,284C606.553,265.54 621.54,250.553 640,250.553ZM640,256C655.454,256 668,268.546 668,284C668,299.454 655.454,312 640,312C624.546,312 612,299.454 612,284C612,268.546 624.546,256 640,256Z"/>
            </g>
            <g transform="matrix(0.821429,0,0,0.821429,22.2857,166.531)">
                <circle cx="640" cy="284" r="28" style="fill:white;"/>
                <path d="M640,250.553C658.46,250.553 673.447,265.54 673.447,284C673.447,302.46 658.46,317.447 640,317.447C621.54,317.447 606.553,302.46 606.553,284C606.553,265.54 621.54,250.553 640,250.553ZM640,256C655.454,256 668,268.546 668,284C668,299.454 655.454,312 640,312C624.546,312 612,299.454 612,284C612,268.546 624.546,256 640,256Z"/>
            </g>
        </g>
        <g transform="matrix(-0.894013,0,0,0.894013,768.638,37.4166)">
            <g>
                <g transform="matrix(-1,0,0,1,1280,0)">
                    <path d="M640,284L594,344.127" style="fill:none;stroke:black;stroke-width:4.47px;"/>
                </g>
                <g transform="matrix(1,0,0,1,46,60.1266)">
                    <path d="M640,284L594,344.127" style="fill:none;stroke:black;stroke-width:4.47px;"/>
                </g>
                <g transform="matrix(1,0,0,1,-46,-60.1266)">
                    <path d="M640,284L594,344.127" style="fill:none;stroke:black;stroke-width:4.47px;"/>
                </g>
                <g transform="matrix(-1,0,0,1,1326,60.1266)">
                    <path d="M640,284L594,344.127" style="fill:none;stroke:black;stroke-width:4.47px;"/>
                </g>
                <g transform="matrix(-1,0,0,1,1234,-60.1266)">
                    <path d="M640,284L594,344.127" style="fill:none;stroke:black;stroke-width:4.47px;"/>
                </g>
            </g>
            <g transform="matrix(0.821429,0,0,0.821429,114.286,50.7143)">
                <circle cx="640" cy="284" r="28" style="fill:white;"/>
                <path d="M640,250.553C658.46,250.553 673.447,265.54 673.447,284C673.447,302.46 658.46,317.447 640,317.447C621.54,317.447 606.553,302.46 606.553,284C606.553,265.54 621.54,250.553 640,250.553ZM640,256C655.454,256 668,268.546 668,284C668,299.454 655.454,312 640,312C624.546,312 612,299.454 612,284C612,268.546 624.546,256 640,256Z"/>
            </g>
            <g transform="matrix(0.821429,0,0,0.821429,68.2857,-9.41231)">
                <circle cx="640" cy="284" r="28" style="fill:white;"/>
                <path d="M640,250.553C658.46,250.553 673.447,265.54 673.447,284C673.447,302.46 658.46,317.447 640,317.447C621.54,317.447 606.553,302.46 606.553,284C606.553,265.54 621.54,250.553 640,250.553ZM640,256C655.454,256 668,268.546 668,284C668,299.454 655.454,312 640,312C624.546,312 612,299.454 612,284C612,268.546 624.546,256 640,256Z"/>
            </g>
            <g transform="matrix(0.821429,0,0,0.821429,160.286,110.841)">
                <circle cx="640" cy="284" r="28" style="fill:white;"/>
                <path d="M640,250.553C658.46,250.553 673.447,265.54 673.447,284C673.447,302.46 658.46,317.447 640,317.447C621.54,317.447 606.553,302.46 606.553,284C606.553,265.54 621.54,250.553 640,250.553ZM640,256C655.454,256 668,268.546 668,284C668,299.454 655.454,312 640,312C624.546,312 612,299.454 612,284C612,268.546 624.546,256 640,256Z"/>
            </g>
            <g transform="matrix(0.821429,0,0,0.821429,114.286,170.967)">
                <circle cx="640" cy="284" r="28" style="fill:white;"/>
                <path d="M640,250.553C658.46,250.553 673.447,265.54 673.447,284C673.447,302.46 658.46,317.447 640,317.447C621.54,317.447 606.553,302.46 606.553,284C606.553,265.54 621.54,250.553 640,250.553ZM640,256C655.454,256 668,268.546 668,284C668,299.454 655.454,312 640,312C624.546,312 612,299.454 612,284C612,268.546 624.546,256 640,256Z"/>
            </g>
            <g transform="matrix(0.821429,0,0,0.821429,206.286,170.967)">
                <circle cx="640" cy="284" r="28" style="fill:white;"/>
                <path d="M640,250.553C658.46,250.553 673.447,265.54 673.447,284C673.447,302.46 658.46,317.447 640,317.447C621.54,317.447 606.553,302.46 606.553,284C606.553,265.54 621.54,250.553 640,250.553ZM640,256C655.454,256 668,268.546 668,284C668,299.454 655.454,312 640,312C624.546,312 612,299.454 612,284C612,268.546 624.546,256 640,256Z"/>
            </g>
            <g transform="matrix(0.821429,0,0,0.821429,22.2857,50.7143)">
                <circle cx="640" cy="284" r="28" style="fill:white;"/>
                <path d="M640,250.553C658.46,250.553 673.447,265.54 673.447,284C673.447,302.46 658.46,317.447 640,317.447C621.54,317.447 606.553,302.46 606.553,284C606.553,265.54 621.54,250.553 640,250.553ZM640,256C655.454,256 668,268.546 668,284C668,299.454 655.454,312 640,312C624.546,312 612,299.454 612,284C612,268.546 624.546,256 640,256Z"/>
            </g>
        </g>
        <g transform="matrix(1,0,0,1,10,-28.1487)">
            <g transform="matrix(0.685714,0,0,2.14286,208.571,-397.143)">
                <path d="M670,348.725L670,346.275L729.063,346.275L729.063,344L740,347.5L729.063,351L729.063,348.725L670,348.725Z"/>
            </g>
            <g transform="matrix(0.61962,0,0,2.14286,307.481,-397.143)">
                <path d="M670,348.725L670,346.275L727.896,346.275L727.896,344L740,347.5L727.896,351L727.896,348.725L670,348.725Z"/>
            </g>
            <g transform="matrix(0.685714,0,0,2.14286,208.571,-356.143)">
                <path d="M670,348.725L670,346.275L729.063,346.275L729.063,344L740,347.5L729.063,351L729.063,348.725L670,348.725Z"/>
            </g>
            <g transform="matrix(1.92444e-17,0.314286,-2.14286,1.31212e-16,1416.14,146.429)">
                <path d="M670,348.725L670,346.275L716.136,346.275L716.136,344L740,347.5L716.136,351L716.136,348.725L670,348.725Z"/>
            </g>
            <g transform="matrix(1.92444e-17,0.314286,-2.14286,1.31212e-16,1416.14,146.429)">
                <path d="M670,348.725L670,346.275L716.136,346.275L716.136,344L740,347.5L716.136,351L716.136,348.725L670,348.725Z"/>
            </g>
            <g transform="matrix(1.92444e-17,0.314286,-2.14286,1.31212e-16,1459.77,145.555)">
                <path d="M670,348.725L670,346.275L716.136,346.275L716.136,344L740,347.5L716.136,351L716.136,348.725L670,348.725Z"/>
            </g>
            <g transform="matrix(0.685714,0,0,2.14286,208.571,-356.143)">
                <path d="M670,348.725L670,346.275L729.063,346.275L729.063,344L740,347.5L729.063,351L729.063,348.725L670,348.725Z"/>
            </g>
            <g transform="matrix(1.92444e-17,0.314286,-2.14286,1.31212e-16,1416.14,146.429)">
                <path d="M670,348.725L670,346.275L716.136,346.275L716.136,344L740,347.5L716.136,351L716.136,348.725L670,348.725Z"/>
            </g>
            <g transform="matrix(1.92444e-17,0.314286,-2.14286,1.31212e-16,1416.14,187.429)">
                <path d="M670,348.725L670,346.275L716.136,346.275L716.136,344L740,347.5L716.136,351L716.136,348.725L670,348.725Z"/>
            </g>
            <g transform="matrix(1.92444e-17,0.314286,-2.14286,1.31212e-16,1459.77,145.555)">
                <path d="M670,348.725L670,346.275L716.136,346.275L716.136,344L740,347.5L716.136,351L716.136,348.725L670,348.725Z"/>
            </g>
        </g>
        <g transform="matrix(-1,-1.22465e-16,1.22465e-16,-1,1920,1303.7)">
            <g>
                <g transform="matrix(1,0,0,1,-8,-34.0964)">
                    <rect x="692" y="637" width="460" height="33" style="fill:white;"/>
                    <path d="M1156,674L1156,633L688,633L688,674L1156,674ZM1152,637L692,637L692,670L1152,670L1152,637Z"/>
                </g>
                <path d="M684,602.904L684,635.904" style="fill:none;stroke:black;stroke-width:4px;"/>
                <path d="M1144,602.904L1144,635.904" style="fill:none;stroke:black;stroke-width:4px;"/>
                <g transform="matrix(1,0,0,1,65.7143,0)">
                    <path d="M684,602.904L684,635.904" style="fill:none;stroke:black;stroke-width:4px;"/>
                </g>
                <g transform="matrix(1,0,0,1,-131.429,0)">
                    <path d="M1144,602.904L1144,635.904" style="fill:none;stroke:black;stroke-width:4px;"/>
                </g>
                <g transform="matrix(1,0,0,1,197.143,0)">
                    <path d="M684,602.904L684,635.904" style="fill:none;stroke:black;stroke-width:4px;"/>
                </g>
                <g transform="matrix(1,0,0,1,-197.143,0)">
                    <path d="M1144,602.904L1144,635.904" style="fill:none;stroke:black;stroke-width:4px;"/>
                </g>
                <g transform="matrix(1,0,0,1,131.429,0)">
                    <path d="M684,602.904L684,635.904" style="fill:none;stroke:black;stroke-width:4px;"/>
                </g>
                <g transform="matrix(1,0,0,1,-65.7143,0)">
                    <path d="M1144,602.904L1144,635.904" style="fill:none;stroke:black;stroke-width:4px;"/>
                </g>
            </g>
            <g>
                <g transform="matrix(1.41638,0,0,1.41638,-210.748,-252.652)">
                    <path d="M794.118,619.404C794.118,619.302 794.14,616.65 794.14,616.65L790.468,616.65L796.118,611L801.768,616.65L798.096,616.65C798.096,616.65 798.118,619.302 798.118,619.404C798.118,646.136 776.447,667.807 749.714,667.807C722.982,667.807 701.311,646.136 701.311,619.404C701.311,618.3 702.207,617.404 703.311,617.404C704.415,617.404 705.311,618.3 705.311,619.404C705.311,643.927 725.191,663.807 749.714,663.807C774.238,663.807 794.118,643.927 794.118,619.404Z" style="fill:white;"/>
                    <path d="M792,619.404C792,642.757 773.068,661.689 749.714,661.689C726.361,661.689 707.429,642.757 707.429,619.404C707.429,617.131 705.584,615.286 703.311,615.286C701.038,615.286 699.193,617.131 699.193,619.404C699.193,647.306 721.812,669.925 749.714,669.925C777.617,669.925 800.236,647.306 800.236,619.404C800.236,619.373 800.234,619.115 800.231,618.768C800.231,618.768 801.768,618.768 801.768,618.768C802.625,618.768 803.397,618.252 803.725,617.461C804.053,616.669 803.872,615.758 803.266,615.153L797.616,609.502C796.788,608.675 795.447,608.675 794.62,609.502L788.97,615.153C788.364,615.758 788.183,616.669 788.511,617.461C788.839,618.252 789.611,618.768 790.468,618.768L792.005,618.768C792.002,619.115 792,619.373 792,619.404ZM794.118,619.404C794.118,619.302 794.14,616.65 794.14,616.65L790.468,616.65L796.118,611L801.768,616.65L798.096,616.65C798.096,616.65 798.118,619.302 798.118,619.404C798.118,646.136 776.447,667.807 749.714,667.807C722.982,667.807 701.311,646.136 701.311,619.404C701.311,618.3 702.207,617.404 703.311,617.404C704.415,617.404 705.311,618.3 705.311,619.404C705.311,643.927 725.191,663.807 749.714,663.807C774.238,663.807 794.118,643.927 794.118,619.404Z"/>
                </g>
                <g transform="matrix(2.04493,0,0,2.04493,-651.559,-636.698)">
                    <path d="M794.118,619.404C794.118,619.302 794.14,616.65 794.14,616.65L790.468,616.65L796.118,611L801.768,616.65L798.096,616.65C798.096,616.65 798.118,619.302 798.118,619.404C798.118,646.136 776.447,667.807 749.714,667.807C722.982,667.807 701.311,646.136 701.311,619.404C701.311,618.3 702.207,617.404 703.311,617.404C704.415,617.404 705.311,618.3 705.311,619.404C705.311,643.927 725.191,663.807 749.714,663.807C774.238,663.807 794.118,643.927 794.118,619.404Z" style="fill:white;"/>
                    <path d="M792.651,619.404C792.651,643.117 773.427,662.34 749.714,662.34C726.001,662.34 706.778,643.117 706.778,619.404C706.778,617.49 705.224,615.937 703.311,615.937C701.397,615.937 699.844,617.49 699.844,619.404C699.844,646.946 722.171,669.274 749.714,669.274C777.257,669.274 799.585,646.946 799.585,619.404C799.585,619.356 799.58,618.75 799.575,618.117C799.575,618.117 801.768,618.117 801.768,618.117C802.362,618.117 802.897,617.76 803.124,617.212C803.351,616.664 803.225,616.033 802.806,615.613L797.155,609.963C796.582,609.39 795.653,609.39 795.081,609.963L789.43,615.613C789.011,616.033 788.885,616.664 789.112,617.212C789.339,617.76 789.874,618.117 790.468,618.117L792.661,618.117C792.656,618.75 792.651,619.356 792.651,619.404ZM794.118,619.404C794.118,619.302 794.14,616.65 794.14,616.65L790.468,616.65L796.118,611L801.768,616.65L798.096,616.65C798.096,616.65 798.118,619.302 798.118,619.404C798.118,646.136 776.447,667.807 749.714,667.807C722.982,667.807 701.311,646.136 701.311,619.404C701.311,618.3 702.207,617.404 703.311,617.404C704.415,617.404 705.311,618.3 705.311,619.404C705.311,643.927 725.191,663.807 749.714,663.807C774.238,663.807 794.118,643.927 794.118,619.404Z"/>
                </g>
                <g transform="matrix(2.04493,0,0,2.04493,-589.13,-636.698)">
                    <path d="M794.118,619.404C794.118,619.302 794.14,616.65 794.14,616.65L790.468,616.65L796.118,611L801.768,616.65L798.096,616.65C798.096,616.65 798.118,619.302 798.118,619.404C798.118,646.136 776.447,667.807 749.714,667.807C722.982,667.807 701.311,646.136 701.311,619.404C701.311,618.3 702.207,617.404 703.311,617.404C704.415,617.404 705.311,618.3 705.311,619.404C705.311,643.927 725.191,663.807 749.714,663.807C774.238,663.807 794.118,643.927 794.118,619.404Z" style="fill:white;"/>
                    <path d="M792.651,619.404C792.651,643.117 773.427,662.34 749.714,662.34C726.001,662.34 706.778,643.117 706.778,619.404C706.778,617.49 705.224,615.937 703.311,615.937C701.397,615.937 699.844,617.49 699.844,619.404C699.844,646.946 722.171,669.274 749.714,669.274C777.257,669.274 799.585,646.946 799.585,619.404C799.585,619.356 799.58,618.75 799.575,618.117C799.575,618.117 801.768,618.117 801.768,618.117C802.362,618.117 802.897,617.76 803.124,617.212C803.351,616.664 803.225,616.033 802.806,615.613L797.155,609.963C796.582,609.39 795.653,609.39 795.081,609.963L789.43,615.613C789.011,616.033 788.885,616.664 789.112,617.212C789.339,617.76 789.874,618.117 790.468,618.117L792.661,618.117C792.656,618.75 792.651,619.356 792.651,619.404ZM794.118,619.404C794.118,619.302 794.14,616.65 794.14,616.65L790.468,616.65L796.118,611L801.768,616.65L798.096,616.65C798.096,616.65 798.118,619.302 798.118,619.404C798.118,646.136 776.447,667.807 749.714,667.807C722.982,667.807 701.311,646.136 701.311,619.404C701.311,618.3 702.207,617.404 703.311,617.404C704.415,617.404 705.311,618.3 705.311,619.404C705.311,643.927 725.191,663.807 749.714,663.807C774.238,663.807 794.118,643.927 794.118,619.404Z"/>
                </g>
                <g transform="matrix(2.82706,0,0,2.82706,-1140.65,-1114.58)">
                    <path d="M794.118,619.404C794.118,619.302 794.14,616.65 794.14,616.65L790.468,616.65L796.118,611L801.768,616.65L798.096,616.65C798.096,616.65 798.118,619.302 798.118,619.404C798.118,646.136 776.447,667.807 749.714,667.807C722.982,667.807 701.311,646.136 701.311,619.404C701.311,618.3 702.207,617.404 703.311,617.404C704.415,617.404 705.311,618.3 705.311,619.404C705.311,643.927 725.191,663.807 749.714,663.807C774.238,663.807 794.118,643.927 794.118,619.404Z" style="fill:white;"/>
                    <path d="M793.057,619.404C793.057,643.341 773.652,662.746 749.714,662.746C725.777,662.746 706.372,643.341 706.372,619.404C706.372,617.714 705,616.342 703.311,616.342C701.621,616.342 700.249,617.714 700.249,619.404C700.25,646.722 722.396,668.868 749.714,668.868C777.033,668.868 799.179,646.722 799.179,619.404C799.179,619.346 799.172,618.464 799.166,617.712C799.166,617.712 801.768,617.712 801.768,617.712C802.197,617.712 802.584,617.453 802.749,617.056C802.913,616.66 802.822,616.203 802.519,615.9L796.868,610.25C796.454,609.835 795.782,609.835 795.368,610.25L789.717,615.9C789.414,616.203 789.323,616.66 789.487,617.056C789.651,617.453 790.038,617.712 790.468,617.712L793.07,617.712C793.064,618.464 793.057,619.346 793.057,619.404ZM794.118,619.404C794.118,619.302 794.14,616.65 794.14,616.65L790.468,616.65L796.118,611L801.768,616.65L798.096,616.65C798.096,616.65 798.118,619.302 798.118,619.404C798.118,646.136 776.447,667.807 749.714,667.807C722.982,667.807 701.311,646.136 701.311,619.404C701.311,618.3 702.207,617.404 703.311,617.404C704.415,617.404 705.311,618.3 705.311,619.404C705.311,643.927 725.191,663.807 749.714,663.807C774.238,663.807 794.118,643.927 794.118,619.404Z"/>
                </g>
                <g transform="matrix(0.762226,0,0,0.762226,176.871,149.033)">
                    <path d="M794.118,619.404C794.118,619.302 794.14,616.65 794.14,616.65L790.468,616.65L796.118,611L801.768,616.65L798.096,616.65C798.096,616.65 798.118,619.302 798.118,619.404C798.118,646.136 776.447,667.807 749.714,667.807C722.982,667.807 701.311,646.136 701.311,619.404C701.311,618.3 702.207,617.404 703.311,617.404C704.415,617.404 705.311,618.3 705.311,619.404C705.311,643.927 725.191,663.807 749.714,663.807C774.238,663.807 794.118,643.927 794.118,619.404Z" style="fill:white;"/>
                    <path d="M802.04,620.576C803.522,620.475 804.83,619.543 805.405,618.157C806.014,616.686 805.677,614.993 804.551,613.867L798.901,608.217C797.364,606.68 794.872,606.68 793.335,608.217L787.684,613.867C786.559,614.993 786.222,616.686 786.831,618.157C787.402,619.533 788.696,620.462 790.165,620.574C789.547,642.382 771.673,659.871 749.714,659.871C727.365,659.871 709.247,641.753 709.247,619.404C709.247,616.128 706.587,613.468 703.311,613.468C700.035,613.468 697.375,616.128 697.375,619.404C697.375,648.31 720.808,671.743 749.714,671.743C778.227,671.743 801.415,648.943 802.04,620.576ZM794.118,619.404C794.118,619.302 794.14,616.65 794.14,616.65L790.468,616.65L796.118,611L801.768,616.65L798.096,616.65C798.096,616.65 798.118,619.302 798.118,619.404C798.118,646.136 776.447,667.807 749.714,667.807C722.982,667.807 701.311,646.136 701.311,619.404C701.311,618.3 702.207,617.404 703.311,617.404C704.415,617.404 705.311,618.3 705.311,619.404C705.311,643.927 725.191,663.807 749.714,663.807C774.238,663.807 794.118,643.927 794.118,619.404Z"/>
                </g>
                <g transform="matrix(1.41638,0,0,1.41638,-280.891,-252.814)">
                    <path d="M794.118,619.404C794.118,619.302 794.14,616.65 794.14,616.65L790.468,616.65L796.118,611L801.768,616.65L798.096,616.65C798.096,616.65 798.118,619.302 798.118,619.404C798.118,646.136 776.447,667.807 749.714,667.807C722.982,667.807 701.311,646.136 701.311,619.404C701.311,618.3 702.207,617.404 703.311,617.404C704.415,617.404 705.311,618.3 705.311,619.404C705.311,643.927 725.191,663.807 749.714,663.807C774.238,663.807 794.118,643.927 794.118,619.404Z" style="fill:white;"/>
                    <path d="M792,619.404C792,642.757 773.068,661.689 749.714,661.689C726.361,661.689 707.429,642.757 707.429,619.404C707.429,617.131 705.584,615.286 703.311,615.286C701.038,615.286 699.193,617.131 699.193,619.404C699.193,647.306 721.812,669.925 749.714,669.925C777.617,669.925 800.236,647.306 800.236,619.404C800.236,619.373 800.234,619.115 800.231,618.768C800.231,618.768 801.768,618.768 801.768,618.768C802.625,618.768 803.397,618.252 803.725,617.461C804.053,616.669 803.872,615.758 803.266,615.153L797.616,609.502C796.788,608.675 795.447,608.675 794.62,609.502L788.97,615.153C788.364,615.758 788.183,616.669 788.511,617.461C788.839,618.252 789.611,618.768 790.468,618.768L792.005,618.768C792.002,619.115 792,619.373 792,619.404ZM794.118,619.404C794.118,619.302 794.14,616.65 794.14,616.65L790.468,616.65L796.118,611L801.768,616.65L798.096,616.65C798.096,616.65 798.118,619.302 798.118,619.404C798.118,646.136 776.447,667.807 749.714,667.807C722.982,667.807 701.311,646.136 701.311,619.404C701.311,618.3 702.207,617.404 703.311,617.404C704.415,617.404 705.311,618.3 705.311,619.404C705.311,643.927 725.191,663.807 749.714,663.807C774.238,663.807 794.118,643.927 794.118,619.404Z"/>
                </g>
            </g>
        </g>
        <g transform="matrix(0.70167,8.32667e-17,-5.84258e-17,1,127.583,-38.1487)">
            <path d="M302.29,362.062L302.29,372.684L279,356.342L302.29,340L302.29,350.622L361.71,350.622L361.71,340L385,356.342L361.71,372.684L361.71,362.062L302.29,362.062Z" style="fill:white;"/>
            <path d="M306.565,365.062L357.435,365.062C357.435,365.062 357.435,372.684 357.435,372.684C357.435,373.897 358.476,374.991 360.074,375.455C361.672,375.92 363.51,375.663 364.733,374.805L388.023,358.463C389.693,357.292 389.693,355.392 388.023,354.221L364.733,337.879C363.51,337.021 361.672,336.764 360.074,337.228C358.476,337.693 357.435,338.787 357.435,340L357.435,347.622C357.435,347.622 306.565,347.622 306.565,347.622C306.565,347.622 306.565,340 306.565,340C306.565,338.787 305.524,337.693 303.926,337.228C302.328,336.764 300.49,337.021 299.267,337.879L275.977,354.221C274.307,355.392 274.307,357.292 275.977,358.463L299.267,374.805C300.49,375.663 302.328,375.92 303.926,375.455C305.524,374.991 306.565,373.897 306.565,372.684L306.565,365.062ZM302.29,362.062L302.29,372.684L279,356.342L302.29,340L302.29,350.622L361.71,350.622L361.71,340L385,356.342L361.71,372.684L361.71,362.062L302.29,362.062Z"/>
        </g>
        <g transform="matrix(0.884882,0,0,0.884882,-22.1702,224.256)">
            <text x="210px" y="511px" style="font-family:'Montserrat-Black', 'Montserrat';font-weight:900;font-size:53.908px;fill:white;stroke:black;stroke-width:4.52px;stroke-linecap:butt;stroke-linejoin:round;stroke-miterlimit:2;">c<tspan x="242.884px " y="511px ">o</tspan>din<tspan x="373.396px " y="511px ">g</tspan> club @ TP</text>
        </g>
    </g>
</svg>
